<?xml version="1.0" encoding="utf-8"?>
<!-- Generator: Adobe Illustrator 27.9.0, SVG Export Plug-In . SVG Version: 6.00 Build 0)  -->
<svg version="1.1" id="Layer_1" xmlns="http://www.w3.org/2000/svg" xmlns:xlink="http://www.w3.org/1999/xlink" x="0px" y="0px"
	 viewBox="0 0 119 36.9" style="enable-background:new 0 0 119 36.9;" xml:space="preserve">
<style type="text/css">
	.st0{fill:#9D9D9D;}
</style>
<path class="st0" d="M18,6.2c-7.2,0-13,5.8-13,13c0,1.3,0.2,2.6,0.6,3.8c0.2-0.3,0.5-0.7,0.7-1c0.9-1.3,1.8-2.7,2.7-4l0.6-1
	c0.2-0.3,0.4-0.7,0.6-1c0.4-0.7,0.8-1.4,1.2-2.1c0.2-0.4,0.4-0.7,0.6-1.1c0.2-0.4,0.4-0.7,0.6-1.1c0.2-0.4,0.4-0.7,0.5-1.1l0.5-1.1
	l0-0.1c0.3-0.6,1-0.8,1.6-0.5c0.4,0.2,0.7,0.7,0.7,1.2c0,0.6-0.1,1.3-0.2,1.9c0,0.6-0.1,1.3-0.1,1.9c0,1.3-0.1,2.6-0.1,3.8
	c0,1.3,0.1,2.5,0.2,3.8c0.1,0.6,0.2,1.2,0.3,1.8c0.1,0.5,0.3,1.1,0.5,1.5c0.1,0.1,0.2,0.3,0.3,0.4c0.1,0,0,0,0.1,0h0l0,0h0l0.1,0
	c0,0,0.1,0,0.1-0.1c0.2-0.1,0.4-0.3,0.5-0.5c0.4-0.5,0.7-0.9,1.1-1.4c0.3-0.5,0.6-1.1,1-1.6c0.6-1.1,1.2-2.2,1.7-3.4
	c0.3-0.6,0.5-1.1,0.8-1.7c0.3-0.6,0.5-1.2,0.8-1.7c0.2-0.6,0.9-0.9,1.5-0.6c0.4,0.1,0.6,0.5,0.7,0.9c0,0.1,0,0.3,0,0.5l0.1,0.5
	c0,0.4,0.1,0.7,0.2,1.1c0.1,0.7,0.3,1.4,0.5,2.1c0.2,0.7,0.4,1.4,0.7,2.1c0.3,0.7,0.6,1.3,1.1,1.9c0.1,0.1,0.1,0.3,0,0.4
	c-0.1,0.1-0.3,0.1-0.4,0c-0.6-0.5-1.1-1.1-1.6-1.8c-0.5-0.6-0.8-1.3-1.2-2c-0.2-0.5-0.4-1-0.6-1.4c-0.1,0.3-0.3,0.6-0.4,0.8
	c-0.6,1.2-1.1,2.3-1.8,3.5c-0.3,0.6-0.7,1.2-1.1,1.8c-0.4,0.6-0.8,1.2-1.3,1.7c-0.3,0.3-0.6,0.6-0.9,0.8c-0.1,0.1-0.2,0.1-0.3,0.2
	l-0.2,0.1l-0.1,0h0l-0.1,0h0l-0.1,0c-0.1,0-0.1,0-0.2,0c-0.1,0-0.3,0-0.4,0.1c-0.3,0-0.6,0-0.9-0.1c-0.3-0.1-0.5-0.3-0.8-0.5
	c-0.4-0.3-0.7-0.7-0.9-1.1c-0.3-0.7-0.6-1.4-0.7-2.1c-0.1-0.7-0.2-1.4-0.3-2c-0.1-1.3-0.2-2.7-0.2-4v-1.9c-0.2,0.5-0.5,0.9-0.7,1.3
	c-0.2,0.4-0.4,0.7-0.6,1.1l-0.6,1.1c-0.8,1.4-1.6,2.8-2.5,4.3c-0.5,0.9-1.1,1.8-1.7,2.7c3.9,6,12,7.7,18,3.8s7.7-12,3.8-18
	C26.5,8.4,22.4,6.2,18,6.2z"/>
<path class="st0" d="M42.3,23.9v-8.6h-0.2l-2.8,8.7h-0.7l-2.8-8.7h-0.2v8.6h-1.1v-9.6h2l2.5,7.6l2.4-7.6h2.1v9.6L42.3,23.9
	L42.3,23.9L42.3,23.9z"/>
<path class="st0" d="M45.1,15.6v-1.2h1.2v1.2H45.1z M45.1,23.9v-7.4h1.2v7.4H45.1z"/>
<path class="st0" d="M53.7,21.5c0,1.4-0.5,2.5-2.9,2.5c-3,0-3.2-1.7-3.2-3.8s0.2-3.8,3.2-3.8c2.4,0,2.9,1.1,2.9,2.5h-1.1
	c0-1.2-0.4-1.7-1.8-1.7c-1.9,0-2,1-2,3s0.1,3,2,3c1.4,0,1.8-0.6,1.8-1.7L53.7,21.5z"/>
<path class="st0" d="M56.1,17.3c0.6-0.4,1.3-0.8,2-0.9c0.1,0,0.3,0,0.4,0c0.2,0,0.4,0,0.6,0L59,17.3c-0.2,0-0.4,0-0.5,0
	c-0.1,0-0.3,0-0.5,0c-0.6,0-1.3,0.5-1.8,0.8v5.8H55v-7.4h1L56.1,17.3z"/>
<path class="st0" d="M65.9,20.2c0,2.1-0.2,3.8-3.2,3.8s-3.2-1.7-3.2-3.8c0-2.1,0.2-3.8,3.2-3.8S65.9,18.1,65.9,20.2z M60.7,20.2
	c0,2,0.1,3,2,3c1.9,0,2-1,2-3c0-2-0.1-3-2-3C60.8,17.2,60.7,18.2,60.7,20.2z"/>
<path class="st0" d="M68.2,25.6c0.5,0,1.1,0.1,1.7,0.1c1.9,0,2.1-0.5,2.1-2.5c-0.5,0.3-1.3,0.7-2.1,0.7c-2.7,0-2.9-1.4-2.9-3.7
	c0-2.3,0.1-3.8,2.7-3.8c0.9,0,1.7,0.4,2.3,0.8l0.1-0.7h1v6.5c0,2.7-0.6,3.5-3,3.5c-0.7,0-1.4-0.1-2.1-0.2L68.2,25.6z M72,17.9
	c-0.5-0.3-1.2-0.7-1.8-0.7c-1.8,0-1.9,1-1.9,3s0.1,2.9,1.9,2.9c0.6,0,1.3-0.4,1.8-0.6V17.9z"/>
<path class="st0" d="M79.8,23.9l-0.1-0.7c-0.6,0.4-1.4,0.8-2.2,0.8c-2.7,0-2.9-1.5-2.9-3.8c0-2.3,0.1-3.8,2.8-3.8
	c0.9,0,1.7,0.4,2.3,0.8l0.1-0.6h1v7.4L79.8,23.9L79.8,23.9z M79.6,17.8c-0.5-0.3-1.2-0.6-1.8-0.6c-1.8,0-1.9,1-1.9,3s0.1,3,1.9,3
	c0.6,0,1.3-0.4,1.8-0.7V17.8z"/>
<path class="st0" d="M83.3,17.2c0.5-0.3,1.3-0.7,2.1-0.8c1.2,0,1.9,0.3,2.2,0.8c0.6-0.4,1.3-0.8,2.2-0.8c2.5-0.1,2.7,1.2,2.7,3v4.5
	h-1.2v-4.4c0-1.5-0.1-2.3-1.7-2.3c-0.6,0-1.2,0.4-1.7,0.7c0.1,0.5,0.2,1.1,0.1,1.6v4.4h-1.1v-4.4c0-1.5-0.1-2.3-1.7-2.3
	c-0.6,0-1.2,0.4-1.7,0.6v6.1h-1.2v-7.4h1L83.3,17.2L83.3,17.2z"/>
<path class="st0" d="M94,15.6v-1.2h1.2v1.2H94z M94,23.9v-7.4h1.2v7.4H94z"/>
<path class="st0" d="M97.8,17.2c0.6-0.3,1.4-0.7,2.2-0.8c2.7-0.1,2.9,1.2,2.9,3v4.5h-1.2v-4.4c0-1.5-0.1-2.3-1.9-2.3
	c-0.6,0-1.3,0.4-1.8,0.6v6.1h-1.2v-7.4h1L97.8,17.2L97.8,17.2z"/>
<path class="st0" d="M105.3,25.6c0.5,0,1.1,0.1,1.7,0.1c1.9,0,2.1-0.5,2.1-2.5c-0.5,0.3-1.3,0.7-2.1,0.7c-2.7,0-2.9-1.4-2.9-3.7
	c0-2.3,0.1-3.8,2.7-3.8c0.9,0,1.7,0.4,2.3,0.8l0.1-0.7h1v6.5c0,2.7-0.6,3.5-3,3.5c-0.7,0-1.4-0.1-2.1-0.2L105.3,25.6z M109.1,17.9
	c-0.5-0.3-1.2-0.7-1.8-0.7c-1.8,0-1.9,1-1.9,3s0.1,2.9,1.9,2.9c0.6,0,1.3-0.4,1.8-0.6V17.9z"/>
</svg>
