<?xml version="1.0" encoding="utf-8"?>
<!-- Generator: Adobe Illustrator 27.9.0, SVG Export Plug-In . SVG Version: 6.00 Build 0)  -->
<svg version="1.1" id="Layer_1" xmlns="http://www.w3.org/2000/svg" xmlns:xlink="http://www.w3.org/1999/xlink" x="0px" y="0px"
	 viewBox="0 0 85 50" style="enable-background:new 0 0 85 50;" xml:space="preserve">
<style type="text/css">
	.st0{fill:#9D9D9D;}
</style>
<path class="st0" d="M47.7,42.3c-0.2-0.2-0.4-0.6-0.7-1.3c-0.5-1.1-1.1-2.8-1.8-4.9c-0.1-0.1-0.1-0.2-0.1-0.3
	c1.3,0.4,2.7,1.2,3.9,2.3c-1.3-1.4-2.7-2.6-4.2-3.1c-0.7-1.9-1.4-3.9-2.1-6.4H41c-1.1,3-2,5.5-3,7.8c-1,2.3-1.6,3.9-2,4.7
	c-0.2,0.4-0.5,0.8-0.7,0.9c-0.2,0.2-0.1,0.3-1.1,0.3V43c1-0.1,0.9-0.1,1.3-0.1h2.3c0.4,0,1,0.1,1.5,0.1v-0.3h-0.6
	c-0.5,0-0.8-0.3-0.9-0.4c-0.2-0.2-0.3-0.5-0.3-0.8c0-0.3,0.1-0.7,0.3-1.2c0.1-0.2,0.5-1.4,1.1-2.9c0.1-0.1,0.2-0.3,0.4-0.4
	c1.3-1.1,2.6-1.6,3.9-1.6l1.6,5.2c0.1,0.2,0.1,0.4,0.2,0.5c0,0.2,0,0.3,0,0.4c0,0.3-0.1,0.7-0.3,0.8c-0.2,0.1-0.5,0.4-1,0.4V43
	c0.5-0.1,0.9-0.1,1.3-0.1h2.3c0.4,0,1,0.1,1.5,0.1v-0.3h-0.4C48.2,42.7,47.9,42.4,47.7,42.3L47.7,42.3z M39.5,36.2l-0.1,0.1
	c1.1-2.7,2.3-5.7,2.3-5.7l1.3,4.2C41.7,34.8,40.6,35.3,39.5,36.2z M54.4,39.4l0.3-0.9l-0.4-0.1c-0.2,0.5-0.4,0.9-0.7,1
	c-0.3,0.2-0.9,0.3-1.8,0.3h-0.8l0.3-3.8v-1.1c0-0.7-0.3-3.2-0.2-3.4c0.1-0.2,0-0.3,0.3-0.3h0.9v-0.4c-0.5,0-0.8,0-1,0h-1.3
	c-0.2,0-0.3,0-0.8,0v0.4h-0.3c0.3,0,0.5,0.1,0.6,0.3c0.1,0.2,0.2,2.7,0.2,3.3v3.2c0,1.4-0.3,2-0.7,2h0.3v0.4c0.5,0,0.7,0,1.1,0h2.2
	c0.5,0,1,0,1.6,0C54.3,40,54.4,39.7,54.4,39.4L54.4,39.4z M58.7,40.2H60c0.5,0,1,0,1.6,0c0-0.3,0.2-0.6,0.2-0.9l0.3-0.9l-0.4-0.1
	c-0.2,0.5-0.4,0.9-0.7,1c-0.3,0.2-0.9,0.3-1.8,0.3h-0.7l0.4-3.8v-1.1c0-0.7-0.3-3.2-0.2-3.4c0.1-0.2,0-0.3,0.2-0.3v-0.4
	c0,0-0.4,0.1-0.6,0.1h-0.8c-0.2,0-0.1,0-0.6-0.1v0.4h-0.5c0.3,0,0.5,0.1,0.6,0.3c0.1,0.2,0.2,2.7,0.2,3.3v3.2c0,1.4-0.3,2-0.7,2H57
	v0.4c0.5,0,0.7,0,1,0H58.7L58.7,40.2z M64.9,40.2c0.3,0,0.6,0,1.1,0c0.4,0,0.7,0.1,0.9,0.1c0.9,0,1.5-0.3,2-0.8
	c0.5-0.5,0.8-1.2,0.8-2c0-0.7-0.2-1.2-0.5-1.5c-0.3-0.4-0.8-0.7-1.4-0.8c0.5-0.4,0.8-0.7,1-1.1c0.2-0.4,0.3-0.8,0.3-1.3
	c0-0.7-0.2-1.3-0.6-1.7c-0.4-0.4-1-0.6-1.7-0.6c-0.1,0-0.4,0-0.7,0.1c-0.4,0-0.7,0-0.9,0h-0.4c-0.2,0-0.4,0-0.4,0v0.4h-0.6
	c0.3,0,0.5,0.1,0.6,0.3c0.1,0.2,0.2,0.4,0.2,0.8v5.2c0,1.7-0.3,2.5-0.7,2.5c-0.1,0,0.1,0,0,0H64v0.5c0.5,0,0.4-0.1,0.6-0.1
	C64.7,40.2,64.8,40.2,64.9,40.2L64.9,40.2z M65.6,33.5c0-0.8,0-1.5,0.1-2.1c0.2-0.1,0.4-0.1,0.5-0.1c0.2,0,0.3-0.1,0.4-0.1
	c0.5,0,0.9,0.2,1.2,0.5c0.3,0.4,0.4,0.8,0.4,1.4c0,0.4-0.1,0.7-0.2,1c-0.2,0.3-0.3,0.6-0.6,0.8c-0.2,0-0.3,0.1-0.5,0.1h-1.2
	L65.6,33.5L65.6,33.5z M65.6,36.4v-0.9h0.8c0.8,0,1.3,0.2,1.6,0.5c0.4,0.4,0.6,0.9,0.6,1.5c0,0.7-0.2,1.2-0.5,1.5
	c-0.3,0.4-0.8,0.6-1.4,0.6c-0.2,0-0.4,0-0.6-0.1l-0.6-0.2L65.6,36.4L65.6,36.4z M73.8,40.2H75c0.5,0,1,0,1.5,0
	c0.1-0.4,0.2-0.7,0.2-1.1c0.1-0.4,0.2-0.7,0.3-1.1l-0.4-0.2c-0.2,0.6-0.4,1.1-0.7,1.3c-0.3,0.2-0.9,0.3-1.8,0.3h-0.8
	c-0.2,0-0.4-0.1-0.6-0.1v-3.8h1.4c0.7,0,1.2,0,1.4,0.2c0.2,0.2,0.4,0.4,0.4,0.8v0.1h0.2c0-0.1-0.1-0.2-0.1-0.3c0-0.4,0-0.7,0-0.8V35
	c0-0.3,0-0.5,0-0.8l-0.4-0.1c0,0.4-0.1,0.6-0.3,0.7c-0.2,0.1-0.5,0.2-1,0.2c-0.1,0-0.3-0.2-0.6-0.2s-0.6-0.2-0.8-0.2H73
	c0,0,0-0.6,0.1-1.4c0-0.8,0-1.4,0.1-1.9c0,0,0.2,0,0.3,0h1.1c0.8,0,1.3,0.1,1.5,0.3c0.3,0.2,0.4,0.6,0.4,1.1l0.4,0
	c0-0.4-0.1-0.7-0.1-1.1c0-0.4-0.1-0.7-0.1-1.1c-0.4,0-0.8,0-1.2,0h-2.3c-0.5,0-1,0-1.5,0v0.4h-0.3c0.3,0,0.5,0.1,0.6,0.3
	s0.2,0.4,0.2,0.8v5.2c0,1.7-0.3,2.5-0.7,2.5h0.3v0.5C72.7,40.2,73.3,40.2,73.8,40.2L73.8,40.2z M84.7,31.9c0-0.3-0.1-0.6-0.1-0.9
	v-0.4c-0.1,0.1-0.4,0.3-0.7,0.4c-0.3,0.1-1,0.2-2.1,0.2h-1.3c-0.8,0-1.4-0.2-1.7-0.2c-0.3,0-0.6-0.2-0.7-0.3c0,0.4,0,0.7-0.1,1.1
	c-0.1,0.4-0.1,0.8-0.2,1.1l0.4,0.1c0.1-0.6,0.2-0.9,0.4-1.1c0.2-0.2,0.5-0.2,1.1-0.2h1.6v2.1c0,1.8-0.3,3.2-0.3,4s-0.2,1.4-0.2,1.5
	c-0.1,0.2-0.2,0.6-0.3,0.7c-0.1,0.1-0.4,0.3-0.6,0.3h0.4v0.1c0.5,0,0.3-0.1,0.6-0.1h1.2c0.2,0,0.4,0,0.8,0.1v-0.2h-0.2
	c-0.2,0-0.4-0.3-0.5-0.3c-0.1-0.1-0.2-0.3-0.2-0.5c-0.1-0.2-0.1-0.6-0.1-1.1v-6.7h1c0.6,0,0.9,0.1,1.1,0.3c0.2,0.2,0.3,0.5,0.3,1
	l0.4-0.1C84.8,32.5,84.7,32.2,84.7,31.9L84.7,31.9z M52.7,41.5c2.8,2.4,8.2,3.9,14.1,3.9s10.9-1.6,13.7-3.9c-3.3,2-8.2,3.3-13.7,3.3
	C61.3,44.7,56,43.5,52.7,41.5z M24.8,27.8v-0.4c0-0.1-0.1-0.2-0.1-0.3c-0.1-0.1-0.1-0.2-0.1-0.3c-0.1-0.1-0.1-0.2-0.1-0.3
	c0-0.1,0-0.1,0-0.1c-0.1-0.1-0.1-0.2-0.1-0.3c0,0,0-0.1-0.1-0.1c0,0,0-0.1-0.1-0.1c0-0.2-0.1-0.3-0.2-0.4c-0.1-0.1-0.1-0.2-0.2-0.3
	c-0.1-0.2-0.2-0.3-0.2-0.5c0,0,0-0.1-0.1-0.1c-0.1-0.1-0.1-0.1-0.2-0.1h-0.1c-0.1,0.1-0.1,0-0.2,0l-0.1-0.1c0,0-0.1-0.1-0.1-0.1
	c-0.1,0-0.1,0-0.2,0c-0.1-0.1-0.3-0.2-0.4-0.2h-0.1v-0.1h-0.4c-0.1-0.1-0.2-0.1-0.3-0.1c-0.1,0-0.2-0.1-0.2-0.1
	c-0.1-0.1-0.1-0.1-0.2-0.1h-0.3c-0.1,0-0.1,0-0.2,0h-0.1l0,0l-0.1,0l-0.1-0.1c-0.1,0-0.2,0-0.3-0.1c0,0-0.1,0-0.1-0.1
	c-0.1,0-0.2-0.1-0.2-0.1c-0.1-0.1-0.2-0.1-0.3-0.1c-0.1,0-0.1,0-0.2-0.1l-0.1-0.1c-0.1,0-0.1-0.1-0.1-0.1c-0.1-0.1-0.1-0.1-0.2-0.1
	l-0.2-0.2c-0.1-0.1-0.2-0.2-0.2-0.3h0c0-0.1-0.1-0.1-0.2-0.1c0-0.1,0-0.1-0.1-0.2v-0.1c0-0.1,0-0.1,0-0.2c0-0.1,0.1-0.1,0.2-0.1
	v-0.2c0-0.1,0-0.1,0.1-0.1c0.1-0.1,0.1-0.1,0.1-0.1c0.1,0,0.1-0.1,0.2,0c0.1,0,0.1-0.1,0.2-0.1c0.1-0.1,0.2-0.1,0.2-0.2v0
	c0.1-0.1,0.1-0.1,0.1-0.2v-0.2c0,0,0,0.1-0.1,0.1c-0.1-0.1-0.1-0.1-0.2-0.1v-0.1c0.1,0,0.1-0.1,0.1-0.1v0.1l-0.1,0.1
	c0,0.1,0.1,0,0.1,0l0.1-0.1c0.1-0.1,0.1-0.1,0.2-0.1c0.1,0,0.1-0.1,0.2-0.1c0.1-0.1,0.2-0.2,0.3-0.2c0,0,0,0,0,0c0,0,0.1,0,0.1,0
	c0,0,0-0.1,0-0.1c0.1-0.1,0.1-0.1,0.2-0.1c0.1,0,0.2-0.1,0.2-0.1c0.1,0,0.2-0.1,0.3-0.1c0.1,0,0.1-0.1,0.1-0.1
	c0.1,0,0.2-0.1,0.2-0.2c0,0,0.1,0,0.1,0h-0.1c0-0.1,0.1-0.1,0.1-0.1c0.1,0,0.1,0,0.1,0c0.1,0,0.1-0.1,0.1-0.1
	c0.1-0.1,0.2-0.1,0.2-0.1c0-0.1,0.2-0.1,0.3-0.1h0.1c0.1,0,0.2,0,0.2,0.1c0,0.1,0.1,0.1,0.2,0.1c0,0,0.1,0,0.2,0
	c0.1-0.1,0.1-0.1,0.2-0.1c0.1,0,0.2,0,0.3-0.1h0.1c0,0,0.1,0,0.1-0.1c0-0.1,0-0.1,0-0.2v-0.1c-0.1-0.1-0.2-0.3-0.3-0.3l-0.1-0.1
	c-0.1-0.1-0.2-0.2-0.3-0.2c0-0.1-0.1-0.1-0.1-0.1c0,0-0.1,0-0.1-0.1c0,0,0-0.1-0.1-0.1c-0.1,0-0.1,0-0.1-0.2c0,0-0.1-0.1-0.1,0
	c0,0-0.1,0-0.1-0.1c-0.1-0.1-0.1-0.2-0.1-0.3c0-0.1-0.1-0.1-0.1-0.2c0-0.1-0.1-0.2-0.1-0.3c0-0.1,0-0.1,0-0.1V18
	c0,0-0.1-0.1-0.1-0.1c0-0.1-0.1-0.1-0.1-0.1l-0.2-0.2c0,0-0.2-0.1-0.2-0.2c-0.1-0.1-0.1-0.1-0.2-0.1v0c-0.1-0.1-0.1-0.1-0.2-0.1
	c0.1,0,0.1,0.1,0.1,0.1h-0.3c0,0-0.1,0-0.1-0.1c-0.1-0.1-0.2-0.1-0.2-0.1h-0.1c-0.1,0-0.2,0-0.2-0.1h-0.1c0,0.1-0.1,0.1-0.1,0.1
	h-0.2c0,0-0.1,0-0.2,0c-0.1,0-0.1,0.1-0.2,0c-0.1,0.1-0.1,0.1-0.2,0.1l0,0c-0.1,0.1-0.2,0.1-0.3,0.1c-0.1,0-0.2,0.1-0.3,0.1
	c-0.1,0-0.1,0.1-0.2,0.1c-0.1,0.1-0.2,0.1-0.3,0.1c0,0.1-0.1,0.1-0.1,0.1c-0.1,0-0.1,0.1-0.2,0.1c-0.2,0.1-0.4,0.2-0.5,0.3
	c0,0-0.1,0-0.1,0.1c-0.1,0.1-0.1,0.1-0.2,0.1c-0.1,0.1-0.1,0.1-0.2,0.1c-0.1,0.1-0.1,0.1-0.2,0.1c0,0.1-0.1,0.1-0.2,0.1
	c-0.1,0-0.2,0.1-0.2,0.1l-0.1,0.1c-0.1,0-0.1,0-0.1,0.1h0c-0.1,0-0.1,0-0.2,0.1c-0.1,0-0.1,0-0.1,0c0.1-0.1,0.1-0.2,0.2-0.4v0
	c0.1-0.1,0.1-0.2,0.2-0.2c0-0.1,0.1-0.1,0.1-0.1c0-0.1,0-0.1,0-0.2c0.1-0.1,0.1-0.2,0.2-0.3c0-0.1,0.1-0.1,0.1-0.1
	c0.1,0,0.1-0.1,0.1-0.1v-0.2c0-0.1,0-0.1,0.1-0.1c0-0.1-0.1-0.1-0.1-0.1h0.1c0,0,0.1,0,0.1-0.1c0-0.1,0.1-0.1,0.1-0.1
	c0.1,0,0.1-0.1,0.1-0.1c0,0,0.1-0.1,0.1-0.2c0,0,0.1-0.1,0.1-0.1c0-0.1,0-0.1,0.1-0.1c0.1-0.1,0.1-0.2,0.1-0.2
	c0.1-0.1,0.1-0.1,0.1-0.2c0-0.1,0.1-0.1,0.1-0.1c0-0.1,0.1-0.2,0.2-0.2l0.2-0.3c0-0.1,0-0.2,0.1-0.3c0,0,0.1-0.1,0.1-0.1
	c0-0.1,0-0.1,0-0.1c0-0.1,0.1-0.1,0.1-0.1c0,0,0-0.1,0.1-0.1c0,0,0-0.1,0-0.1C19,15.1,19,15,19,14.9v-0.2c0-0.1,0-0.2,0-0.2
	c0.1-0.1,0.1-0.2,0.2-0.3c0,0,0.1-0.1,0.1-0.1c0,0,0-0.1,0-0.1l0.2-0.2c0.1-0.1,0.1-0.1,0.1-0.2c0,0,0-0.1-0.1-0.1
	c0-0.1,0-0.1-0.1-0.2c0-0.1,0-0.1-0.1-0.1c-0.1-0.1-0.2-0.2-0.2-0.3c0-0.1,0-0.1-0.1-0.2l-0.2-0.3c0-0.1,0-0.1,0-0.2
	c0-0.1-0.1-0.2-0.1-0.3c0-0.1,0-0.1,0-0.1c-0.1-0.1-0.2-0.3-0.3-0.3c-0.1-0.1-0.2-0.2-0.4-0.2h-0.3c0,0-0.1,0-0.1,0.1v0.2
	c0.1,0.1,0.1,0.2,0.1,0.3v0.2c-0.1,0.1,0,0.2,0,0.3V13c0,0.1,0,0.1-0.1,0.2v0.2c0,0.1,0,0.2-0.1,0.3c-0.1,0.1-0.1,0.2-0.1,0.3v0
	c0,0.1-0.1,0.2-0.1,0.3c0,0.1-0.1,0.3-0.2,0.4v0.1c0,0.1,0,0.2-0.1,0.3c0,0.1-0.1,0.1-0.1,0.2c0,0.1,0,0.1,0,0.2c0,0-0.1,0-0.1,0
	L17.1,15c0,0.1-0.1,0.1-0.1,0.1c0.1,0.1,0.1,0.1,0,0.2c0,0.2-0.1,0.3-0.2,0.4c-0.1,0-0.1,0.2-0.2,0.2c-0.1,0.1-0.1,0.1-0.1,0.2
	c-0.1,0.1-0.1,0.1-0.1,0.2l-0.2,0.3c0,0.1-0.1,0.1-0.1,0.1c0,0.1,0,0.1,0,0.1c-0.1,0-0.1,0.1-0.1,0.1c0,0-0.1,0-0.1,0.1
	c-0.1,0.1-0.1,0.2-0.1,0.3c0,0.1-0.1,0.1-0.1,0.2v0H16c0.1,0,0.1-0.1,0.1-0.2c0.1,0,0.1-0.1,0.1-0.2v0c0,0.1,0,0.2-0.1,0.2
	c0,0,0,0.1-0.2,0c-0.1,0.1-0.1,0.2-0.2,0.3v0c0,0.1-0.1,0.1-0.1,0.2v0.2c0,0.1-0.1,0.1-0.1,0.1c0,0.1-0.1,0.1-0.1,0.2
	c-0.1,0.1-0.1,0.2-0.1,0.2c0,0.1-0.1,0.1,0,0.1v0c0,0.1-0.1,0.1-0.1,0.2c0,0,0,0.1-0.1,0.1l0,0c0,0.1,0,0.1-0.1,0.1
	c0,0,0,0.1-0.1,0.1c0,0-0.1,0-0.1,0c0,0.1-0.1,0.2-0.1,0.2c0,0-0.1,0-0.1,0.1h-0.2v-0.1c-0.1-0.1-0.1-0.1,0-0.1v-0.2
	c0-0.1-0.1-0.1-0.1-0.1c-0.1,0-0.1-0.2-0.1-0.3c0-0.1,0-0.1,0-0.2c-0.1-0.1-0.1-0.2-0.2-0.2l-0.1-0.1c-0.1-0.1-0.1-0.1-0.2-0.1
	c-0.1,0.1-0.1,0.1-0.1,0v-0.1c0.1-0.1,0.2-0.2,0.2-0.3c0,0,0.1,0,0.1-0.1s0.1-0.1,0.1-0.1c0-0.1,0.1-0.2,0.2-0.3c0,0,0-0.1,0.1-0.2
	c0,0,0.1,0,0.1,0s0.1,0,0.1-0.1c0.1,0,0.1-0.1,0.1-0.1c0.1-0.1,0.2-0.1,0.2-0.1c0,0,0.1,0,0.1-0.1c0.1,0,0.1-0.1,0-0.1
	c0-0.1-0.1-0.1-0.1-0.1c0-0.1-0.1-0.1-0.1-0.1c-0.1-0.1-0.2-0.2-0.3-0.3c-0.1,0-0.1-0.1-0.1-0.1l-0.1-0.1C14.6,16,14.5,16,14.4,16
	h-0.1v0.1c-0.1,0-0.1-0.1-0.1-0.2h-0.1c0,0-0.1,0-0.1-0.1c-0.1-0.1-0.1-0.1-0.2-0.1h-0.1c-0.1-0.1-0.3-0.2-0.5-0.2c0,0,0,0,0,0.1
	v0.1c0,0,0,0.1-0.1,0.1c0,0-0.1,0-0.1-0.1v-0.1c0-0.1,0-0.1-0.1-0.1c0,0,0,0.1-0.1,0.1l-0.1,0.1c0,0-0.1,0-0.1,0.1
	c0,0-0.1,0-0.1-0.1l-0.1,0.1h-0.1c-0.1,0.1-0.1,0.1-0.2,0.1c0,0.1-0.1,0.1-0.1,0.1c0,0-0.1,0.1-0.2,0.1c0,0-0.1,0.1-0.1,0h-0.1
	C12.3,16,12.3,16,12.2,16c0,0,0,0.1-0.1,0.1c0,0-0.1,0-0.1,0c-0.1-0.1-0.1,0-0.1,0v0.1h-0.1c-0.1,0-0.1,0-0.2,0
	c-0.1,0-0.2,0.1-0.3,0.1c-0.1,0-0.1,0.1-0.1,0.1c0,0,0-0.1-0.1-0.1c0,0.1,0,0.1-0.1,0.1l-0.1,0.1c0,0.1-0.1,0.1-0.2,0.1
	c-0.1,0-0.1,0.1-0.1,0h-0.1c-0.1,0.1-0.1,0-0.2,0c0-0.1,0.1-0.1,0.1-0.1c0.1-0.1,0.2-0.1,0.3-0.1c0.1-0.1,0.2-0.1,0.3-0.2
	c0.1,0,0.1-0.1,0.1-0.1c0,0,0,0.1,0.1,0.1c0.1-0.1,0.1-0.2,0.1-0.2c0,0,0.1,0,0.1-0.1c0.1-0.1,0.1-0.1,0.1-0.2c0,0,0.1,0,0.1-0.1
	c0.1,0,0.1-0.1,0.2-0.1c0.1,0,0.1,0,0.1-0.1l0.1-0.1c0.1-0.1,0.1-0.1,0.2-0.2c0.1-0.1,0.1-0.1,0.2-0.1c0,0,0.1-0.1,0.1-0.1
	c0.1-0.1,0.1-0.1,0.2-0.1c0.1-0.1,0.2-0.2,0.3-0.2c0.1-0.1,0.2-0.1,0.3-0.1h0.3c0.1,0,0.2-0.1,0.2-0.1c0.1,0,0.2,0,0.2-0.1h0.1
	c0.1-0.1,0.3-0.1,0.4-0.1h0.2c0,0,0.1,0,0.1-0.1c0.1,0,0.1-0.1,0.1-0.1h0.7c0.2,0,0.3,0,0.4-0.1c0,0,0.1,0,0.1-0.1
	c0,0,0.1-0.1,0.1,0h0.1c0.1,0,0.1-0.1,0.1-0.1v-0.1c0-0.1,0-0.1,0-0.2c0-0.1,0-0.2-0.1-0.2V14c0-0.1-0.1-0.2-0.2-0.3
	c-0.1-0.1-0.1-0.1-0.2-0.2c0-0.1-0.1-0.1-0.2-0.2c-0.1-0.1-0.1-0.1-0.1-0.1c0-0.1-0.1-0.2-0.2-0.2c-0.1,0-0.1-0.1-0.1-0.1l0.1,0
	h-0.3c-0.1,0-0.1,0-0.2,0c-0.1,0-0.2,0-0.3,0c-0.1,0-0.1,0.1-0.2,0.1c-0.1,0-0.3,0-0.4,0.1h-0.1c-0.1,0.1-0.2,0.1-0.3,0.1h-0.1
	c0,0-0.1,0-0.1-0.1c0,0,0-0.1-0.1,0v0.1h-0.2c-0.1,0-0.2,0.1-0.3,0.1c0,0-0.1,0-0.1,0.1l-0.1-0.1c-0.1,0.1-0.1,0.1-0.2,0.1
	c-0.1,0.1-0.2,0.1-0.3,0.1h-0.1c-0.1,0-0.2,0-0.3,0.1c-0.1,0-0.1,0-0.1,0.1l0.1,0.1l-0.1,0.1c-0.2,0.1-0.3,0.1-0.4,0.2h-0.1
	c0,0,0,0.1-0.1,0.1c-0.1,0-0.2,0.1-0.2,0.1h-0.1c0,0.1,0,0.1-0.1,0.1h-0.1c-0.2,0.1-0.3,0.2-0.5,0.3c-0.1,0.1-0.2,0.1-0.2,0.2
	c-0.1,0.1-0.3,0.2-0.4,0.2c-0.1,0.1-0.2,0.1-0.2,0.2c-0.1,0.1-0.2,0.1-0.3,0.2c-0.1,0.1-0.1,0.1-0.2,0.1C9.3,15,9.2,15,9.2,15
	c-0.1,0-0.1,0.1-0.1,0.1c-0.1,0.1-0.2,0.1-0.3,0.2c-0.1,0.1-0.2,0.1-0.2,0.1H8.5c-0.1,0-0.2,0.1-0.2,0.2c0,0.1-0.1,0.1-0.1,0.1H8.3
	c0,0.1-0.1,0.2-0.1,0.2c0,0.1-0.1,0.1,0,0.2v0.1c0,0.1,0,0.1,0.1,0.2c0.1,0.1,0,0.2,0.1,0.2v0.3c0,0.1,0.1,0.2,0.1,0.3V17
	c0,0.1,0.1,0.2,0.2,0.3c0,0.1,0.1,0.1,0.1,0.1c0.1,0.1,0.1,0.2,0.2,0.3c0,0,0.1,0,0.1,0.1c0.1,0.1,0.1,0.2,0.2,0.2
	c0.1,0,0.1,0,0.2,0h0.1c0.1,0,0.1,0,0.1-0.1c0.1-0.1,0.1-0.1,0.2-0.1c0.1,0,0.1,0.1,0.1,0.1V18c0,0,0,0.1,0,0.1
	c0,0.1-0.1,0.1-0.1,0.2c0,0.1-0.1,0.1-0.1,0.1v0.3c0,0,0.1,0,0.1,0.1v0.2C9.4,19,9.3,19,9.3,19c0,0,0,0.1-0.1,0.1V19H9.2V19
	c-0.1,0-0.1,0-0.1-0.1L9,18.8c-0.1-0.1-0.2-0.2-0.3-0.2c-0.1,0-0.2,0-0.2-0.1c0,0-0.1,0-0.1-0.1c-0.1,0-0.1-0.1-0.1-0.1H8.3
	c-0.1,0-0.2,0-0.2,0H7.8c-0.1-0.1-0.1,0-0.2,0c-0.1,0-0.1,0-0.2,0.1c-0.1,0-0.2,0.2-0.2,0.3v0c0,0.1-0.1,0.2-0.1,0.2
	c-0.1,0.1,0,0.1,0.1,0.2c0.1,0.1,0.1,0.2,0.2,0.2v0.1c-0.1,0-0.1-0.1-0.1,0c0,0,0.1,0.1,0.1,0.2H7.4c0,0.1-0.1,0.2,0,0.2l0.1-0.1
	v-0.1h0.1V20c0,0.1,0,0.1-0.1,0.2c-0.1,0.1-0.1,0.2-0.1,0.3c0,0-0.1,0.1-0.1,0.2c-0.1,0.1-0.1,0.2-0.1,0.3c-0.1,0.1-0.1,0.2-0.1,0.3
	c-0.1,0.1-0.1,0.2-0.1,0.3C7,21.4,7,21.5,7,21.7v0c0,0.1-0.1,0.2-0.1,0.2v0.3c0,0.1-0.1,0.2-0.1,0.2c0,0.1-0.1,0.1-0.1,0.2
	c0,0.1-0.1,0.3-0.1,0.4v0.3c0,0.1,0,0.1,0.1,0.2c0.1,0.1,0,0.1,0,0.1v0.5c0,0,0.1,0,0.1,0.1v0.2c0,0,0,0.1,0.1,0.1
	C7,24.2,7,24.2,7,24.3c0,0.1,0,0.2,0.1,0.3v0.1c0.1,0,0.1,0.1,0.1,0.2v0.1c0,0,0.1,0.1,0,0.2v0l0.1,0l0.2,0.2
	c0.1,0.2,0.1,0.3,0.1,0.4c0,0,0.1,0.1,0.1,0.1c0,0.1,0.1,0.2,0.1,0.2C7.7,25.9,7.7,26,7.7,26c0,0,0,0.1,0.1,0.1
	c0,0.1,0.1,0.2,0.2,0.3c0,0,0,0.1,0.1,0.1c0.1,0,0.2,0.1,0.2,0.2l-0.1,0.1h0.1c0,0,0.1,0,0.1,0.1l0.2,0.2C8.6,26.9,8.6,27,8.7,27
	c0.1,0.1,0.2,0.1,0.3,0.2c0.1,0.1,0.1,0.1,0.2,0.1v0.1c0.1,0.1,0-0.1,0.1-0.1c0,0,0.1,0.1,0.1,0.1h0.1c0.1,0,0.1,0,0.2,0.1h0.1
	c0.1,0,0.2,0,0.2,0H10c0.1,0,0.1,0,0.2,0c0.1,0,0.1-0.1,0.2-0.1c0.1-0.1,0.2-0.1,0.3-0.1c0.1,0,0.1-0.1,0.1-0.1
	c0.1-0.1,0.2-0.1,0.3-0.1c0.1,0,0.2-0.1,0.3-0.1c0.1-0.1,0.2-0.1,0.3-0.1c0.1,0,0.1-0.1,0.2-0.1l0.1-0.1c0-0.1,0.1-0.1,0.1-0.1
	c0.1,0,0.1-0.1,0.1-0.1l0.1-0.1c0,0,0.1,0,0.1,0c0.1-0.1,0-0.1,0-0.1l0.1,0c0.1-0.1,0.2-0.1,0.2-0.1c0.2,0,0.3-0.1,0.4-0.2
	c0,0,0.2,0,0.2-0.1c0.1,0,0.1-0.1,0.1,0c0-0.1,0.1-0.1,0.1-0.1h0.1c0.1-0.1,0.1-0.1,0.2-0.1c0.1,0,0.1,0,0.1,0
	c0.1,0,0.1-0.1,0.1-0.1h0.1c0,0,0.1,0,0.1-0.1c0.1-0.1,0.1-0.1,0.2-0.1h0.1c0.1,0,0.1,0,0.1,0h0.1c0-0.1,0.1-0.1,0.1-0.1
	c0-0.1,0.1-0.1,0.1-0.1c0-0.1,0.1-0.1,0.1-0.1c0.1,0,0.1-0.1,0.2-0.1c0.1,0,0.1-0.1,0.2-0.1c0.1-0.1,0.1-0.1,0.2-0.1
	c0-0.1,0.1-0.1,0.2-0.1c0.1-0.1,0.1-0.1,0.2-0.1c0,0,0-0.1,0.1-0.1c0,0,0,0.1,0.1,0.1c0.1,0,0.1-0.1,0.1-0.1c0-0.1,0.1-0.1,0.1-0.2
	c0.1,0,0.1,0,0.1,0c0-0.1-0.1-0.2-0.1-0.3c0,0,0.1,0,0.1-0.1c0-0.1,0.1-0.1,0.1-0.1c0.1-0.1,0.1-0.1,0.1-0.2c0-0.1,0.1-0.1,0.1-0.2
	c0-0.1,0-0.1,0.1-0.1c0,0,0,0-0.1,0c0,0-0.1,0-0.1,0h0v0l0-0.1l0.1-0.1c0.1-0.1,0.1-0.2,0.2-0.2v-0.4c0,0,0-0.1,0.1-0.1
	c0.1,0,0.1-0.1,0.2-0.2c0-0.1,0-0.1-0.1-0.1c0,0,0-0.1,0-0.1c-0.1,0-0.1,0-0.1,0v-0.4c0,0,0-0.2-0.1-0.2v-0.1c0-0.1,0.1-0.1,0.1-0.1
	c0-0.1,0.1-0.1,0.1-0.1v-0.7c0-0.1,0.1-0.2,0-0.2v-0.1c0-0.1,0-0.1,0.1-0.2c-0.1-0.1-0.1-0.2,0-0.2c0.1,0,0.1,0,0.1,0
	c0.1-0.1,0.2-0.2,0.3-0.3c0.1-0.1,0.1-0.2,0.2-0.2c0.1,0.1,0.2,0.1,0.3,0.1c0.1,0,0.2,0.1,0.3,0.1v0.1c0.1,0.1,0.3,0.3,0.4,0.3
	c0.1,0.1,0.1,0.1,0.2,0c0,0,0.1,0.1,0.1,0.1c0,0,0,0.1-0.1,0.1c-0.1,0.1-0.1,0.1-0.1,0.2c0.1,0.1,0.1,0.2,0,0.3c0,0,0,0.1,0.1,0.2
	l0.1,0.1c0.1,0.1,0.1,0.2,0.1,0.2c0,0-0.1,0.1-0.1,0.1c0,0.1-0.1,0.1-0.1,0.1h0c0.1,0,0.1,0.1,0.1,0.2c0,0.1-0.1,0.2-0.1,0.3
	l-0.1,0.1v0.1c0,0.1,0,0.1-0.1,0.2v0c-0.1,0.1-0.1,0.2-0.1,0.3c0,0.1-0.1,0.1-0.1,0.1c0,0.1-0.1,0.1-0.1,0.1
	C17,22.9,17,23,16.9,23.1c-0.1,0.1-0.1,0.1-0.1,0.2c0,0.1-0.1,0.1-0.1,0.2c0,0.1-0.2,0.2-0.2,0.4c0,0-0.1,0-0.1,0.1h-0.1v0.1
	c0.1,0,0.1,0,0,0c0,0.1,0,0.1-0.1,0.1c0,0,0,0-0.1,0c0,0,0,0.1,0,0.1c-0.1,0-0.1,0-0.1,0.1c0,0.1-0.1,0.2-0.2,0.2c0,0,0,0.1,0,0.1
	v0.1C16,24.7,16,24.7,16,24.8c0,0.1-0.1,0.1-0.1,0.1l-0.1,0.1c0,0.1-0.1,0.1-0.1,0.1c0,0,0,0.1-0.1,0.1l-0.1,0.1
	c-0.1,0.1-0.1,0.2-0.2,0.2c-0.1,0.1-0.1,0.1-0.1,0.2c-0.1,0.1-0.1,0.2-0.2,0.2c-0.1,0-0.1,0-0.1,0C15.1,25.8,15,25.9,15,26
	c-0.1,0.1-0.1,0.2-0.2,0.2c0,0.1-0.1,0.1-0.1,0.1c-0.1,0.1-0.2,0.2-0.2,0.3l-0.2,0.2c-0.1,0-0.1,0-0.2,0.1c-0.1,0-0.1,0.1-0.2,0.1
	c-0.1,0-0.2,0-0.2,0.1c-0.1,0-0.1,0-0.2,0c-0.1,0-0.1,0.1-0.2,0.1l-0.1,0c-0.1,0-0.2,0.1-0.3,0.1H13c-0.1,0-0.1,0.1-0.2,0.1
	c-0.1,0-0.1,0-0.2,0c-0.1,0-0.1,0.1-0.1,0.1v-0.1h0c0,0,0,0.1-0.1,0.1h-0.2v0.1h0.1c0.1,0,0.1,0,0.1,0c0,0-0.1,0.1-0.1,0.1
	c-0.1-0.1-0.2-0.1-0.2-0.1h-0.1c-0.1,0-0.1,0.1-0.2,0.1v0.1c0,0,0.1,0.1,0.1,0.1c0,0,0,0.1-0.1,0.1c0,0-0.1,0-0.1,0.1v0.1
	c0,0.1,0,0.2,0.1,0.2S12,28,12.1,28c0.1,0.1,0.1,0.1,0.2,0.1c0.1,0,0.1,0,0.1,0.1c0.1,0.1,0.2,0.1,0.2,0.2c0.1,0,0.2,0.1,0.2,0.1
	c0.1,0.1,0.1,0.1,0.2,0.1h0.1c0,0,0.1,0,0.1,0c0.1,0,0.1,0.1,0.2,0.1c0.1,0,0.2,0,0.2,0.1c0.2,0,0.3,0,0.5,0c0.1,0,0.2,0,0.2,0.1
	h0.1c0.1,0.1,0.1,0.1,0.2,0.1h0.2c0.1,0,0.1-0.1,0.2-0.1c0.1,0,0.2-0.1,0.3-0.1c0.1,0,0.2,0,0.3-0.1c0.1,0,0.1-0.1,0.1-0.1
	c0.1-0.1,0.1-0.1,0.2-0.1h0.1c0,0,0-0.1,0.1-0.2c0,0,0.1,0,0.1-0.1c0,0,0.1-0.1,0.1-0.1c0-0.1,0.1-0.1,0.1-0.1c0.1,0.1,0.1,0,0.1,0
	l0.1-0.1l0.1-0.1c0.1-0.1,0.1-0.1,0.2-0.2l0.2-0.2c0,0,0.1-0.1,0.1-0.1c0,0,0.1-0.1,0.1-0.1v-0.1c0.1-0.1,0.1-0.1,0.1-0.2
	c0,0,0,0,0.1,0l0.2-0.2v0l0.2-0.3c0,0,0-0.1,0.1-0.1c0-0.1,0.1-0.1,0.1-0.2c0-0.1,0-0.2,0.1-0.2c0-0.1,0.1-0.1,0.1-0.1
	c0,0,0.1-0.1,0-0.1c0,0,0.1-0.1,0.1-0.2h0.1c0,0,0.1,0,0.1-0.1v-0.1l0.1,0.1c0.1-0.1,0.2-0.2,0.2-0.4h0.1v-0.1c0,0,0.1,0,0.1-0.1v0
	c0,0,0-0.1,0-0.1v-0.1c0-0.1,0-0.1,0-0.2c0-0.1,0.1-0.2,0.1-0.2c0.1-0.2,0.2-0.3,0.3-0.4c0.1-0.1,0.1-0.2,0.2-0.3h0.1v-0.1
	c0.1-0.1,0.1-0.2,0.1-0.3c0-0.1,0.1-0.1,0.1-0.1c0-0.1,0.1-0.1,0.1-0.1l0,0c0.1,0,0.1-0.1,0.2,0v0.1h0.1v0.1c0,0,0,0.1,0.1,0.2
	c0,0,0.1,0.1,0.1,0.2c0,0,0,0,0.1,0.1c0.1,0.1,0.1,0.1,0.1,0.1l0.1,0.1c0.1,0.1,0.1,0.1,0.2,0.2v0.1c0,0.1-0.1,0.1,0,0.1v0.1
	c0,0,0,0.1,0.1,0.1l0,0c0,0.1,0.1,0.2,0.1,0.2c0,0,0,0,0.1,0v0.1c0,0.1,0,0.1,0,0.1h0.1l0.1,0.1h0.1c0.1,0.1,0,0.1,0.1,0.1
	c0,0.1,0,0.1,0.1,0.1c0.1,0.1,0.1,0.1,0.2,0.2l0.1,0.1l0,0.1v0.1c0.1,0,0.2,0.1,0.3,0.1c0.1,0.1,0.1,0.1,0.2,0.1
	c0.1,0,0.1,0.1,0.1,0.1c0.1,0.1,0.2,0.2,0.4,0.2c0.1,0.1,0.2,0.1,0.2,0.1c0.1,0,0.1,0.1,0.1,0.1c0.1,0,0.1,0.1,0.1,0.1
	c0.1,0,0,0,0.1,0.1c0,0,0,0.1,0.1,0.1v-0.1c0.1,0.1,0.2,0.1,0.2,0.2c0,0,0,0.1,0,0.1c0.1,0,0.2,0.1,0.3,0.2c0,0.1,0.1,0.1,0.2,0.1
	c0.1,0,0.1,0.1,0.1,0.1c0.1,0.1,0.2,0.1,0.2,0.2c0,0,0.1,0,0.1,0.1c0.1,0.1,0.2,0.1,0.3,0.2c0,0.1,0.1,0.1,0.1,0.1
	c0,0.1,0.1,0.1,0.2,0.1l0.1,0.1c0.1,0,0.1,0,0.2,0.1l0.3,0.2c0,0,0.2,0.1,0.2,0.1c0,0,0.1,0,0.1,0c0,0.1,0.1,0.1,0.1,0.1
	c0,0,0.1-0.1,0.1-0.1h0c0.1,0,0.1,0.1,0.1,0.1l0.1,0c0,0.1,0.1,0.1,0.2,0.1h0.1v0h0.3c0.1,0,0.1,0,0.2,0c0,0,0.1,0,0.1-0.1v-0.2
	C24.8,27.9,24.8,27.8,24.8,27.8L24.8,27.8z M12.1,14.2C12.1,14.3,12.1,14.3,12.1,14.2C12.1,14.3,12.1,14.3,12.1,14.2z M7.7,19.5
	C7.7,19.5,7.7,19.5,7.7,19.5C7.7,19.5,7.7,19.5,7.7,19.5C7.7,19.5,7.7,19.5,7.7,19.5z M7,24C7,24,7,24,7,24L7,24z M7,23.7
	C7,23.8,7,23.8,7,23.9C7,23.8,6.9,23.8,7,23.7z M14,19.5C14,19.6,14.1,19.6,14,19.5C14,19.6,14,19.6,14,19.5z M12.3,19.7
	c0.1,0,0.1-0.1,0.1-0.1v-0.1h0.1c0,0,0,0.1,0.1,0.1C12.5,19.7,12.4,19.8,12.3,19.7c0,0.1-0.1,0.1-0.1,0.1v0.1
	c-0.1,0.1-0.1,0.1-0.2,0.1c-0.1,0-0.1,0-0.1-0.1v-0.1c0.1-0.1,0.2-0.2,0.3-0.2C12.3,19.7,12.3,19.7,12.3,19.7z M11.5,18.1
	C11.5,18.1,11.6,18.1,11.5,18.1l0.2-0.1c0.1-0.1,0.1-0.1,0.2-0.1c0.1,0,0.1,0,0.1-0.1c0,0,0.1,0,0.1-0.1c0.1-0.1,0.1-0.1,0.2,0
	c0,0.1,0,0.1,0,0.2v0.2c0,0.1,0,0.1-0.1,0.1c-0.1,0-0.1,0.1-0.1,0.1c0,0,0,0.1-0.1,0.1c-0.1,0.1-0.1,0.1-0.2,0.1
	c-0.1,0-0.1,0-0.2,0.1c-0.1,0-0.1,0-0.1-0.1c0,0,0-0.1,0-0.2C11.5,18.3,11.5,18.2,11.5,18.1C11.5,18.1,11.5,18.1,11.5,18.1
	L11.5,18.1z M11.5,21.5L11.5,21.5c0-0.1,0-0.2,0-0.2c0.1-0.1,0.1-0.2,0.1-0.2c0.1-0.1,0.1-0.2,0.2-0.3l0.1-0.1c0,0,0.1-0.1,0.1-0.1
	c0,0,0.1-0.1,0.1-0.1c0,0,0.1,0,0.1,0c0.1-0.1,0.1-0.2,0.2-0.2l0.1-0.1c0,0,0.1-0.1,0.1-0.1h0.1l0.1-0.1c0.1-0.1,0.2-0.1,0.3-0.1
	c0.1-0.1,0.2-0.1,0.2-0.1H13c0,0,0.1,0,0.2-0.1h0.1v0.1h0.1c0,0,0-0.1,0.1-0.1h0.1c0,0,0.1,0,0.1,0.1c0,0.1,0.1,0.2,0.2,0.2
	c0,0,0.1,0.1,0.1,0.1v0.5c0,0.1,0,0.3-0.1,0.4c-0.1,0.2-0.2,0.3-0.4,0.4c0,0-0.1,0-0.1,0.1c-0.1,0.1-0.1,0.1-0.2,0.1h-0.1
	c-0.2,0.1-0.3,0.1-0.4,0.2c-0.1,0-0.2,0.1-0.3,0.1c-0.1-0.1-0.2,0-0.3,0c-0.1,0-0.1,0-0.1-0.1c-0.1,0-0.1-0.1-0.1-0.1
	c-0.1,0-0.1-0.1-0.2-0.1v0C11.4,21.7,11.4,21.6,11.5,21.5L11.5,21.5z M10.9,25.1c-0.1,0-0.1,0-0.2,0h-0.1c-0.1,0.1-0.2,0.1-0.3,0.1
	h-0.1c-0.1,0-0.2,0-0.3,0.1c0,0-0.1,0-0.1,0c-0.1,0.1-0.1,0.1-0.2,0.1c-0.1,0-0.1,0-0.2,0l-0.1,0c-0.1-0.1-0.2-0.1-0.2,0
	c-0.2,0.1-0.3,0.1-0.5,0.1c-0.1,0-0.1-0.1-0.1-0.1c-0.1-0.1-0.1-0.1-0.1-0.2c0,0-0.1,0-0.1-0.1s-0.1-0.1-0.1-0.1
	c0-0.1-0.1-0.1-0.1-0.1c-0.1-0.1-0.2-0.2-0.3-0.4c-0.1-0.1-0.1-0.2-0.2-0.4c0-0.1-0.1-0.2-0.1-0.3V24c0.1-0.1,0.1-0.2,0.1-0.3
	c0-0.1,0.1-0.2,0-0.2v-0.1c0.1-0.2,0.1-0.3,0.1-0.4c0-0.2,0.1-0.4,0.1-0.6c0,0,0.1-0.2,0.1-0.2c0-0.1,0-0.1,0.1-0.1
	c0.1-0.1,0.1-0.3,0.2-0.4c0.1-0.1,0.1-0.2,0.1-0.3c0.1-0.1,0.1-0.2,0.1-0.2l0.2-0.2c0,0,0.1,0,0.1-0.1h0.1c0.1,0.1,0.1,0.1,0.2,0.1
	c0.1,0.1,0.1,0.1,0.1,0.1c0.1,0,0.1,0.1,0.1,0.2v0.1c-0.1,0.1-0.1,0.2-0.1,0.3v0.3c0,0.1,0.1,0.2,0.1,0.3c0.1,0.1,0.1,0.2,0.2,0.4
	v0.6c0,0.1,0.1,0.2,0.1,0.3c0.1,0.2,0.2,0.4,0.3,0.5c0.1,0.1,0.1,0.1,0.1,0.1c0,0,0,0.1,0.1,0.1c0,0.1,0.1,0.1,0.1,0.2l0.1,0.1
	c0.1,0.1,0.1,0.1,0.1,0.1c0.1,0.1,0.2,0.2,0.2,0.3c0.1,0,0.1,0.1,0.1,0.2H11c0,0,0.1,0,0.1,0C11,25.1,11,25.1,10.9,25.1L10.9,25.1z
	 M9.1,21.2C9.1,21.2,9.1,21.2,9.1,21.2C9.1,21.2,9.1,21.2,9.1,21.2z M11.2,20.1L11.2,20.1l-0.1-0.1c-0.1,0-0.1,0.1-0.1,0.1
	c0,0.1,0,0.1-0.1,0.1l-0.1,0.1l-0.2,0.2c-0.1,0.1-0.2,0.1-0.3,0.2c-0.1,0.1-0.2,0.2-0.3,0.2c-0.1,0-0.1,0.1-0.1,0.1
	c0,0,0,0.1-0.1,0.1c0,0-0.1,0-0.1,0C10,21,10,21,9.9,21H9.8l-0.1-0.1l-0.3-0.2c-0.1-0.1-0.2-0.1-0.3-0.2c0,0,0-0.1-0.1-0.1
	c0-0.1-0.1-0.1-0.1-0.2c0.1-0.1,0.1-0.1,0.1-0.1c0-0.1,0.1-0.1,0.1-0.1c0.1,0,0.1,0,0.2-0.1c0,0-0.1,0-0.1-0.1c0.1,0,0.1-0.1,0.1,0
	h0.1l0.1,0.1H9.5l-0.1,0.1h0.2c0.1-0.1,0.2-0.1,0.3-0.1c0-0.1,0.1-0.1,0.1-0.2l0.1-0.1c0,0,0-0.1,0.1-0.1l0.1-0.1
	c0-0.1,0.1-0.1,0.1-0.1h0.1c0.1,0,0.2,0,0.3,0c0,0,0.1,0,0.1,0.1c0.1,0.1,0.2,0.1,0.2,0.2h0.1c0.1,0,0.2,0.1,0.2,0.1
	c0.1,0,0.1,0,0.1-0.1c0,0,0.1,0,0.1,0.1c0.1,0,0.1,0.1,0.1,0.1c0.1,0,0.1,0,0.1,0.1C11.2,20.1,11.2,20.1,11.2,20.1L11.2,20.1z
	 M14.1,23.4c0,0,0,0.1-0.1,0.1H14c-0.1,0.1-0.2,0.1-0.2,0.2c-0.1,0-0.1,0-0.1,0.1c-0.1,0.1-0.1,0.2-0.2,0.2c-0.1,0-0.1,0-0.1,0
	c-0.1,0.1-0.2,0.1-0.2,0.2c-0.1,0.1-0.1,0.1-0.2,0.1c-0.1,0.1-0.2,0.1-0.3,0.2c-0.1,0.1-0.2,0.2-0.3,0.2c-0.1,0-0.1,0.1-0.2,0.1
	c-0.1,0-0.1,0-0.2,0.1c0,0-0.1,0.1-0.1,0.1c-0.1,0-0.1,0-0.2-0.1c-0.1-0.1-0.1-0.1-0.1,0c0,0.1-0.1,0.1-0.2,0l-0.1-0.1
	c-0.1-0.1-0.1-0.2-0.1-0.3V24l-0.2-0.3c-0.1-0.1-0.1-0.2-0.1-0.3c-0.1-0.1-0.1-0.2-0.1-0.3c0,0-0.1-0.1,0-0.2c0,0,0-0.1,0.1-0.1
	l0.1,0c0,0,0.1,0,0.1-0.1c0,0,0.1,0,0.1,0.1c0,0-0.1,0-0.1,0c0,0,0,0.1,0.1,0.1l0.1-0.1c0,0.1,0.1,0.1,0.1,0.1c0.1,0,0.1,0,0.2,0.1
	c0,0,0.2,0,0.2,0c0.1,0,0.2,0,0.2,0.1h0.1c0.1,0,0.1,0,0.2,0.1h0.2c0.1,0,0.2,0,0.2,0.1h0.1c0.1,0,0.2,0,0.3,0.1c0,0,0.1,0,0.1,0.1
	c0.1,0,0.2,0,0.3,0h0.1c0,0,0.1,0,0.1,0l0.1,0c0.1,0,0.2,0,0.3-0.1C14,23.4,14,23.3,14.1,23.4c0-0.1,0-0.1,0.1-0.1
	C14.2,23.3,14.1,23.3,14.1,23.4L14.1,23.4z M14.3,19.5C14.3,19.5,14.3,19.5,14.3,19.5c0,0.1,0,0.2,0,0.2c0,0,0,0.1,0,0.1
	c0,0.1,0,0.1-0.1,0.1h-0.1c0,0.1-0.1,0-0.2-0.1l-0.1-0.1c-0.1-0.1-0.1-0.1,0-0.1H14c0,0,0.1,0,0.1-0.1c0.1-0.1,0.2-0.1,0.2-0.2
	C14.3,19.4,14.3,19.5,14.3,19.5z M15.4,20.6L15.4,20.6C15.3,20.6,15.4,20.6,15.4,20.6z M14.7,24.3C14.7,24.2,14.7,24.2,14.7,24.3
	c0.1-0.1,0.1,0,0.1,0.1C14.8,24.3,14.7,24.3,14.7,24.3z M15.1,23.6C15,23.6,15,23.6,15.1,23.6C15,23.6,15,23.6,15.1,23.6L15,23.5
	h0.1C15.1,23.5,15.1,23.5,15.1,23.6C15.1,23.6,15.1,23.6,15.1,23.6z M15.6,20.6c0,0-0.1,0-0.1,0.1c0,0,0,0.1,0,0.1v0.1
	c-0.1,0-0.1,0.1-0.1,0.2v0.2c0,0.1-0.1,0.2-0.1,0.3c0,0-0.1,0-0.1,0.1c0,0.1-0.1,0.1-0.1,0.2c0,0,0,0,0,0c0,0.1-0.1,0.1-0.1,0.1V22
	L15.1,22c-0.1,0,0-0.1,0-0.1v-0.1c0,0-0.1,0-0.1,0c0-0.1-0.1-0.2-0.1-0.3c-0.1-0.1-0.1-0.3-0.2-0.4c-0.1-0.1-0.1-0.2-0.1-0.3
	l-0.2-0.3v-0.2c0,0,0-0.1,0.1-0.1s0.1,0,0.1,0.1l0.2,0.2c0,0,0.1,0,0.1,0h0.2c0.1,0,0.1,0,0.2,0.1c0,0,0.1,0,0.1,0
	c0.1,0,0.1,0.1,0.1,0.2V21h0.1c0.1-0.1,0.1-0.2,0-0.2c0-0.1,0-0.1,0.1-0.1h0.1V20.6L15.6,20.6z M15.8,17.8c0-0.1,0.1-0.2,0.1-0.2
	C15.9,17.7,15.8,17.8,15.8,17.8z M15.9,17.6c0-0.1,0-0.2,0-0.2C15.9,17.5,15.9,17.5,15.9,17.6z M16.2,17c0,0,0-0.1,0.1-0.1
	C16.2,16.9,16.2,16.9,16.2,17z M12.2,27.7c0,0-0.1,0.1-0.1,0l-0.1-0.1v-0.1h0.1C12.2,27.6,12.2,27.6,12.2,27.7
	C12.3,27.7,12.2,27.7,12.2,27.7z M20.4,19.2C20.5,19.3,20.5,19.3,20.4,19.2L20.4,19.2z M19,20.8c-0.1,0-0.1,0.1-0.2,0.1
	c0,0-0.1,0-0.1-0.1h-0.1l-0.2-0.2l-0.2-0.2l-0.1,0v-0.1c0,0-0.1,0-0.1,0.1c0,0,0,0,0-0.1c0-0.1,0-0.1,0.1-0.1c0-0.1,0.1-0.2,0.2-0.3
	c0-0.1,0.1-0.1,0.2-0.1c0.1-0.1,0.1-0.1,0.2-0.1c0,0,0.1,0,0.1-0.1l0.1-0.1c0.1,0,0.1,0,0.2,0c0.1,0,0.1-0.1,0.1-0.1
	c0.1-0.1,0.2-0.1,0.2-0.1c0.1-0.1,0.2-0.1,0.2-0.1c0,0,0.1,0,0.2,0c0,0,0,0.1,0,0.1c0,0,0,0,0-0.1c0,0.1,0.1,0.1,0.1,0.1v0
	c0,0,0,0.1,0,0.1c0,0,0.1,0,0.1-0.1c0,0,0.1,0,0.1-0.1v-0.1c0,0,0-0.1,0-0.1c0,0,0.1,0,0.1,0v0c0,0,0,0.1,0.1,0.1h0
	c0,0,0,0.1,0.1,0.1c-0.1,0.1-0.1,0.2-0.2,0.2c0,0.1-0.1,0.1-0.1,0.1c0,0,0,0.1,0,0.1C20,19.8,20,19.9,19.9,20L19.9,20
	c0,0.1-0.1,0.1-0.1,0.1c0,0.1-0.1,0.1-0.1,0.1h-0.1v0.1l-0.1,0.1c0,0-0.1,0-0.1,0.1l-0.1,0.1l-0.2,0.2l-0.1,0
	C19.2,20.7,19.1,20.7,19,20.8z M22.9,24.8L22.9,24.8l0-0.1c0-0.1,0-0.1,0-0.1c0,0,0.1,0,0.1,0.1C23,24.7,23,24.8,22.9,24.8z
	 M34.4,35.7c0,0,0.1,0,0.1-0.1c-0.1-0.1-0.1-0.1-0.1-0.2c0,0,0-0.1,0-0.1c0.1-0.1,0.1-0.1,0-0.1l0-0.1c-0.1-0.1-0.2-0.1-0.3-0.1
	c-0.1,0-0.2,0-0.3-0.1c-0.1-0.1-0.2-0.1-0.4-0.2c-0.1,0-0.1-0.1-0.1-0.1h-0.2c-0.1,0-0.2,0.1-0.3,0h-0.9c-0.1,0-0.1,0-0.2,0.1
	c-0.1,0.1-0.1,0.1-0.2,0c-0.1,0-0.1,0-0.1,0.1c0,0-0.1,0-0.2,0h-0.3c-0.1,0.1-0.1,0-0.1,0.1c0,0,0-0.1,0-0.1l0-0.1
	c0,0,0.1,0,0.1-0.1c0-0.1,0.1-0.1,0.1-0.2v-0.1c0-0.1-0.1-0.1-0.1-0.1c-0.1-0.1,0-0.1,0-0.2c0,0,0-0.1,0.1-0.1c0,0.1,0,0.1,0,0.1
	c0,0,0,0.1,0.1,0.1v-0.3c0,0,0-0.1-0.1-0.1c0,0,0,0.1,0,0.1c0,0-0.1,0.1-0.1,0c0,0,0,0-0.1,0v-0.1c0,0,0-0.1,0.1-0.1
	c0.1-0.1,0.1-0.2,0.2-0.3l0.1-0.1c0.1-0.1,0.1-0.2,0.1-0.2c0.1-0.1,0.1-0.2,0.1-0.4v-0.2c0.1,0,0.1-0.2,0.1-0.2
	c0.1-0.1,0.1-0.3,0.1-0.4v0c0-0.1,0-0.1,0.1-0.1c0.1-0.1,0.1-0.2,0-0.3c-0.1-0.2-0.2-0.3-0.3-0.4l-0.1,0c0-0.1,0-0.1-0.1-0.1
	l-0.2-0.2c-0.1-0.1-0.2-0.2-0.4-0.3c-0.1-0.1-0.2-0.1-0.3-0.2l0,0c-0.1-0.1-0.1-0.1-0.2-0.1c0,0-0.1,0-0.1-0.1c-0.1,0-0.1,0-0.2-0.1
	c-0.1,0-0.1-0.1-0.1-0.1c0,0-0.1,0-0.2-0.1c-0.1-0.1-0.2-0.1-0.2-0.1c-0.1,0-0.1,0-0.1,0c0,0-0.1,0-0.1-0.1c-0.1,0-0.1-0.1-0.1-0.1
	l-0.1-0.1c-0.1,0-0.2,0-0.2-0.1h-0.4c-0.1,0-0.1,0.1-0.2,0h-0.1c0,0-0.1,0-0.1,0.1c-0.1-0.1,0-0.1,0.1-0.1c0.1-0.1,0.1,0,0.2,0
	C29.1,30,29,30,28.9,30c0.1,0,0.1-0.1,0.2-0.1c0.1,0,0.1-0.1,0.1-0.1h0.1c-0.1,0.1-0.2,0.1-0.2,0.2c0,0,0,0.1,0.1,0.1
	c0.1,0,0.1,0,0.2,0c0.1,0,0.2,0,0.2,0.1h0.1c0-0.1,0.1-0.1,0.1-0.1c0-0.1,0-0.1,0-0.1v-0.1c0,0,0-0.1,0-0.1v-0.1h0.2
	c0-0.1,0.2-0.1,0.3-0.1h0.4c0.1,0,0.2,0,0.2,0.1h0c0.1,0.1,0.2,0.1,0.3,0.1h0.6c0.1,0,0.1,0.1,0.1,0.1c0.1,0.1,0.1,0.1,0.1,0.2
	c0,0,0,0.2,0.1,0.2l0.2,0.2l0.1,0.1c0.1,0,0.2,0.2,0.3,0.2l0.1,0.1c0,0,0,0,0,0c0,0,0.1,0,0.1,0.1c0,0.1,0.1,0.1,0.1,0.2
	c0,0.1,0,0.1,0,0.1c0,0.1,0,0.1,0.1,0.1c0.1,0,0.1,0,0.1,0.1h0.1c0,0-0.1,0-0.1-0.1h0.2c0,0,0.1,0.1,0.2,0.1H33c0,0.1,0.1,0,0.1-0.1
	v-0.1c0-0.1,0.1-0.1,0-0.1V31c0-0.1,0.1-0.1,0.1-0.1l0,0c0-0.1,0.1-0.1,0.1-0.1c0,0,0-0.1,0.1-0.1c0,0,0-0.1,0-0.1v-0.2
	c0-0.1,0.1-0.2,0-0.3v-0.1c0.1-0.1,0-0.1,0-0.2v-0.2h0v-0.1c0,0,0-0.1,0-0.1c0-0.1-0.1-0.2-0.1-0.3c0,0,0-0.1,0-0.2
	c0-0.1-0.1-0.1-0.1-0.2c0,0-0.1-0.1-0.1-0.1c0,0,0-0.1,0-0.1c0,0,0-0.1-0.1-0.1v-0.1c-0.1-0.1-0.1-0.2-0.2-0.3l-0.1-0.1
	c-0.1-0.1-0.1-0.2-0.2-0.3l-0.2-0.2c-0.1-0.1-0.2-0.2-0.3-0.3c0-0.1-0.1-0.1-0.2-0.1c-0.1,0-0.2,0-0.2,0.1c-0.1,0-0.1,0.1-0.2,0.1
	V28c-0.1,0.1-0.1,0.1-0.1,0.2v0.5c0,0,0,0.1,0.1,0.1c0,0,0,0.1,0.1,0.1c0,0,0,0.1-0.1,0.1c0,0.1-0.1,0.1-0.1,0v-0.1
	c-0.1-0.1-0.1-0.1-0.1-0.1h-0.1c-0.1-0.1-0.1-0.1-0.2-0.1l-0.1-0.1L31,28.5c-0.1,0-0.2,0-0.3-0.1h-0.6c-0.1,0-0.1,0.1-0.2,0.1
	s-0.1,0-0.1,0v0.1h-0.1c0,0-0.1-0.1,0-0.1l0.1,0l0,0.1h-0.1c0.1,0,0-0.1-0.1,0c0,0,0,0.1,0,0c0,0,0,0.1,0,0.1h-0.1l0,0
	c-0.1,0-0.1-0.1-0.1-0.1c0,0-0.1,0-0.1,0v-0.1c0.1,0,0.1,0.1,0.1,0l-0.1-0.1c0,0-0.1-0.1-0.1-0.1c0-0.1,0.1-0.1,0.1-0.1
	c-0.2,0-0.2,0-0.1,0c0,0,0.1,0,0.1,0c0,0,0.1,0,0.1,0v-0.1L29.5,28c0.1-0.1,0.1-0.1,0.1,0c0.1-0.1,0.1-0.2,0.1-0.2v-0.1
	c-0.1-0.1-0.1-0.1-0.1-0.2c0-0.2-0.2-0.3-0.3-0.4L29.2,27c0,0-0.1-0.1-0.1-0.1c-0.1,0-0.2-0.1-0.3-0.2l-0.2-0.2
	c-0.1,0-0.2-0.2-0.3-0.2c-0.1-0.1-0.2-0.1-0.2-0.2l-0.2-0.2c0,0-0.1-0.1-0.1-0.1c0,0-0.1,0-0.1,0c-0.1-0.1-0.1-0.1-0.2,0
	c-0.1,0-0.2,0-0.2,0h-0.1c-0.1,0.1-0.2,0.1-0.3,0.2c-0.1,0-0.1,0-0.1,0c0,0-0.1,0-0.1,0.1s-0.1,0.1-0.1,0.2l-0.1,0.1h0.1
	c0.1-0.1,0.1-0.1,0.2-0.1h0.1c0.1-0.1,0.2-0.1,0.3-0.1c0.1,0,0.1,0,0.1,0c0.1,0,0.2,0,0.2,0c0.1,0.1,0.1,0.1,0.2,0.1h0.1
	c0.1,0,0.1,0.2,0.2,0.3V27C28,27,28,27.1,28,27.1H28c0,0.1-0.1,0.1,0,0.2v0.4c0,0.1-0.1,0.1-0.1,0.2c0,0.1,0,0.1-0.1,0.2V28
	c0,0.1,0,0.1,0,0.2v0.1c0,0.1,0,0.1,0,0.2v0.2c0,0.1,0,0.2,0,0.2c-0.1,0.1,0,0.1,0,0.2c0,0,0,0.1-0.1,0.1S27.8,29,27.7,29
	c0,0-0.1,0-0.1,0.1c-0.1,0.1-0.2,0.1-0.3,0.2c0,0-0.2,0.1-0.2,0.1c-0.1,0-0.1,0.1-0.2,0.1c-0.1,0-0.1,0-0.1,0.1
	c-0.1,0.1-0.2,0.1-0.3,0.2c-0.1,0.1-0.1,0.1-0.2,0.1c-0.1,0.1-0.2,0.1-0.2,0.2l-0.1,0.1c-0.1,0.1-0.2,0.2-0.3,0.2c0,0,0-0.1,0.1-0.1
	C26,29.9,26,29.8,26,29.8c0.1-0.1,0.1-0.2,0.1-0.3v-0.2c-0.1,0-0.1-0.1,0-0.2v0c0-0.1,0-0.2,0-0.2c0-0.1,0.1-0.1,0.1-0.1v-0.1
	c0-0.1,0-0.1,0.1-0.2v-0.2c0-0.1,0-0.1,0-0.2c0.1-0.2,0.1-0.3,0.2-0.5v-0.1c0.1-0.1,0.1-0.1,0-0.2c0-0.1,0-0.1,0.1-0.1h0
	c0,0,0.1,0,0.1,0c-0.1-0.1-0.1-0.1-0.2-0.1c0-0.1,0.1-0.1,0.1-0.2v-0.1c0,0-0.1,0-0.1,0.1v0c0,0.1,0,0.1-0.1,0.2v0.1h0.1
	c-0.1,0-0.1,0.1-0.1,0.2v0.1c0,0.1-0.1,0.2-0.1,0.2h-0.1c0,0,0,0.1,0,0.1c0,0.1,0,0.1,0,0.1c-0.1,0.1-0.2,0.2-0.2,0.2
	c0.1,0.1,0.1,0,0.1,0c0,0,0,0.1-0.1,0.1s-0.1,0.1-0.1,0.1c0,0.1,0,0.2,0,0.3v0.1c-0.1,0.1-0.1,0.3-0.2,0.4c-0.1,0.1-0.1,0.3-0.1,0.4
	c0,0.1,0,0.1-0.1,0.2v0.1c0,0.1-0.1,0.1-0.1,0.2s-0.1,0.2-0.1,0.3c0,0-0.1,0.1-0.1,0.1h-0.1c-0.2,0.1-0.3,0.2-0.4,0.3l-0.1,0.1
	c0,0,0,0.1-0.1,0.1c-0.1,0-0.1,0-0.1,0c-0.1,0-0.1,0.1-0.1,0.1c-0.2,0.1-0.3,0.2-0.4,0.4V31l0.1,0.1v0.2c0,0,0,0-0.1,0
	c-0.1,0-0.1,0.1-0.1,0.1c-0.1,0-0.1,0.2-0.2,0.1h-0.1v-0.1l0.1,0c0-0.1,0.1-0.1,0.1-0.1c0,0,0.1,0,0.1,0c0-0.1,0.1-0.1,0.1-0.1
	l0.1-0.1c0,0,0.1,0,0,0h-0.1c-0.1,0-0.1,0-0.1,0.1c-0.1,0.1-0.2,0.2-0.3,0.3c-0.1,0.1-0.2,0.2-0.2,0.2c-0.1,0.1-0.1,0.1-0.1,0.2v0.1
	c-0.1,0-0.1-0.1-0.1-0.1c-0.1-0.1-0.2-0.2-0.3-0.3c-0.1-0.1-0.1-0.1-0.2-0.2c-0.1-0.1-0.1-0.1-0.2-0.2H23c-0.1,0-0.2,0-0.2,0
	c0,0-0.1,0-0.2,0.1c0,0.1-0.2,0.1-0.2,0.1h-0.1c0,0,0-0.1-0.1-0.2h-0.1c0,0,0,0,0,0v-0.2c0-0.1,0-0.2,0-0.3v-0.1
	c0-0.1,0-0.2,0.1-0.4v-0.1c0-0.1,0-0.2,0.1-0.2V30c0-0.1,0-0.1,0-0.2c0-0.1,0-0.1,0-0.1c0,0,0.1,0,0.1-0.1l0.1-0.1
	c0.1-0.1,0.2-0.1,0.2-0.2l0.1-0.1c0,0,0-0.1,0-0.1V29c0,0,0-0.1-0.1-0.1c-0.1-0.2-0.3-0.3-0.4-0.4c-0.1-0.1-0.2-0.2-0.3-0.3v-0.1
	c0-0.1,0-0.1-0.1-0.2L21.9,28c0-0.1-0.1-0.2-0.2-0.2c-0.1,0-0.2-0.1-0.2-0.3c-0.3,0.3-0.3,0.2-0.4,0.1l-0.1,0
	c-0.1-0.1-0.2-0.1-0.2-0.1c0,0,0,0,0,0.1c-0.1,0.1-0.2,0.2-0.2,0.3c0,0.1,0,0.1,0,0.1c0,0.1,0,0.1-0.1,0.1c0,0.1-0.1,0.2,0,0.2
	c0,0,0,0.1,0.1,0.1v0.4c0,0.1-0.1,0.2-0.1,0.2v0.5c-0.1,0.1-0.1,0.1-0.1,0.2v0.3c-0.1,0.1-0.1,0.2-0.1,0.4c0,0.1-0.1,0.2-0.1,0.2
	v0.2c0,0.1,0,0.2-0.1,0.3c0,0.1,0,0.2-0.1,0.4c-0.1,0.1-0.1,0.3-0.1,0.4c0,0.2,0,0.3-0.1,0.4c0,0.1,0,0.3-0.1,0.4v0.7c0,0,0,0-0.1,0
	c0,0-0.1,0-0.1,0.1c0,0,0,0.1-0.1,0.1s-0.1,0-0.1,0c-0.1,0.1-0.2,0.1-0.2,0.1s-0.1,0-0.1,0c-0.1,0.1-0.2,0.1-0.2,0.2h-0.1
	c0,0-0.1,0-0.1,0.1c0,0.1-0.1,0.1-0.2,0.1h-0.1c-0.1,0-0.1,0-0.2-0.1l-0.1-0.1c0,0.1,0.1,0.2,0.2,0.2c-0.1,0-0.2,0.1-0.2,0.1
	c-0.1,0.1-0.2,0.1-0.3,0.1c-0.1,0-0.1-0.1,0-0.1c0,0,0,0,0.1-0.1c0,0,0.1,0,0.1,0c-0.1-0.1-0.1,0-0.1,0c-0.1-0.1-0.1-0.2,0-0.3
	c0-0.1,0-0.2,0-0.3h-0.1c0,0,0,0,0,0.1v0c0,0,0,0.1-0.1,0.1c0,0,0,0.1-0.1,0.1l-0.2,0.2l-0.2,0.2c0,0,0,0.1-0.1,0.1s-0.1,0-0.1,0.1
	c0,0,0,0,0,0c0,0.1,0,0.1,0,0.1c0,0.1-0.1,0.1-0.1,0.1c0,0,0,0-0.1,0c-0.1,0-0.1,0.1-0.2,0.1v0.1c0,0,0,0.1,0.1,0.2
	c0,0,0.1,0,0.1,0.1v0.2c0,0,0.1,0.1,0,0.1v0.2c0,0-0.1,0-0.1,0.1s0.1,0.1,0.1,0.2L17.3,35v0.1h0.1c0,0,0,0.1,0,0.1c0,0,0,0.1,0,0.1
	h0.1c0,0,0.1,0.1,0.1,0.2h-0.1c0,0,0.1,0,0.1,0c0,0,0,0.1,0,0.1v0.2c0,0,0,0,0,0.1c0,0,0,0,0.1,0s0.1,0.1,0.1,0.1
	c0.1,0,0.1,0.1,0.1,0.1l0,0.1H18c0,0,0-0.1,0-0.1c0,0.1,0.1,0,0.2,0c0,0,0-0.1,0-0.1c0,0-0.1-0.1-0.1-0.1c0.1,0,0.2,0,0.2,0h0.1
	c0,0,0.1,0,0.1-0.1l0,0.1c0.1,0,0.1,0,0.1,0c0-0.1,0.1-0.1,0.1-0.1c0,0,0.1,0,0.1-0.1c0,0,0,0,0.1,0c0,0,0.1,0,0.1,0
	c0.1,0,0.1,0,0.2-0.1c0,0.1,0.1,0.1,0.1,0.2h0.2L19,35.7v-0.1H19c0.1,0,0.1,0,0.2,0c0,0,0.1,0,0.1-0.1h0.1c0,0,0,0.1,0.1,0.1h0
	c0-0.1,0.1-0.1,0.1-0.1c0.1,0,0.2-0.1,0.2-0.1h0.1v0.1c0,0,0.1,0,0.1-0.1c0,0,0,0-0.1-0.1h0c0,0-0.1,0-0.1-0.1h0.1c0,0,0.1,0,0.1,0
	c0,0,0.1-0.1,0.1,0c0,0,0,0,0,0v0.1c0,0.1,0,0.2-0.1,0.2v0.3c0,0.1,0.1,0.1,0.1,0.1c0,0-0.1,0-0.1,0c0,0.1,0.1,0.1,0.1,0.1
	c0,0,0,0,0,0.1c0,0.1,0,0.1-0.1,0.1c-0.1,0.1,0,0.2,0,0.2v-0.2c0.1,0,0.1,0.1,0.1,0.1v0.1c0,0,0,0-0.1,0c-0.1,0-0.1,0-0.1,0
	c0,0,0,0.1,0,0.1c0.1,0.1,0.1,0.1,0.1,0.2c0,0.1-0.1,0.1-0.1,0.1h0v0h0v0.1c0,0.1,0,0.2,0,0.3v0.4c0,0.2-0.1,0.3,0,0.5v0.8
	c0,0.2,0,0.3,0.1,0.4v0.6c-0.1,0.1-0.1,0.2-0.2,0.3c0,0,0,0-0.1,0c0,0.1,0,0.2,0,0.2v0.2h-0.1v0c0.1,0,0.1,0.1,0.1,0.1
	c0,0,0,0.1,0,0.2c0.1,0.1,0,0.2,0,0.3v0.2c0,0,0,0.1,0,0.1c0,0,0,0.1,0,0.1c0.1,0,0.1,0.1,0.1,0.1c0.1,0.1,0.1,0.1,0.1,0.1
	c0.1,0.1,0.1,0.1,0.1,0.2v0.1c0.1,0,0.2,0.1,0.2,0.2c0.1,0,0.1,0.1,0.1,0.1v0.1c0.1,0,0.1,0,0.2,0.1l0.1,0.1
	c0.1,0.1,0.1,0.1,0.2,0.1c0.1,0.1,0.1,0.1,0.1,0.1h0.1c0,0,0,0,0.1,0c0,0,0,0.1,0.1,0.1c0,0,0,0,0.1,0c0.1,0.1,0.1,0.1,0.2,0.1
	c0,0,0.1,0,0.2,0c0.1,0,0.2-0.1,0.2-0.2v-0.1c0,0,0,0.1,0,0v-0.1c0,0,0,0,0-0.1c0-0.1-0.1-0.1-0.1-0.1c0-0.1-0.1-0.2-0.1-0.3v-0.1
	c0,0,0-0.1,0-0.1v-0.1c0,0-0.1,0-0.1-0.1c0,0,0.1,0,0.1-0.1c-0.1-0.1-0.1-0.2-0.1-0.3v0.1c0,0,0,0.1,0,0.1h0.1v-0.2
	c0-0.1,0-0.1-0.1-0.1s-0.1-0.1-0.1-0.1l0.1,0.1c0,0,0.1,0.1,0.1,0v-0.1L21.1,41c0,0-0.1-0.1,0-0.1h0.1v-0.2c0-0.1-0.1-0.1-0.1-0.1
	v-0.8c0-0.1,0-0.2,0.1-0.3v-0.1c0,0,0-0.1,0-0.1c0,0,0-0.1,0-0.1c0-0.1,0-0.1,0-0.1c0,0,0,0,0.1,0c0,0,0.1,0.1,0.1,0
	c0,0-0.1-0.1-0.1-0.2c0-0.1,0-0.1,0.1-0.1c0,0,0,0,0-0.1c-0.1,0-0.1-0.1,0-0.2c0,0,0,0.1,0.1,0.1c0.1,0,0.1,0.1,0,0.1v0.1
	c0-0.1,0.1-0.1,0.1-0.2v-0.2c0-0.1,0.1-0.1,0.1-0.1c0-0.1,0.1-0.1,0-0.1c0,0,0.1,0,0.1,0c0.1,0,0.1-0.1,0.1-0.1c0,0-0.1-0.1-0.1-0.2
	v-0.2l0.1,0l0.1-0.1c0,0-0.1,0-0.1-0.1c0,0-0.1,0-0.1,0c0-0.1,0-0.2,0.1-0.2h0.1c0,0,0.1,0,0.1,0.1l-0.1,0h0.1c0.1,0,0.1-0.1,0-0.2
	h-0.1l-0.1-0.1v-0.1c0.1,0,0.1-0.1,0.1-0.1h0.1c0.1,0,0.1,0.1,0.1,0v-0.1c0,0,0,0.1,0.1,0.1l0.1-0.1c0-0.1,0-0.1-0.1-0.1L22,37.2
	c0.1,0.1,0.1-0.1,0.2-0.1c0.1,0,0.1,0,0-0.2c0,0,0,0,0,0.1h-0.1V37c-0.1,0,0-0.1,0-0.1h0.1V37c0.1,0,0.1-0.1,0.1-0.2
	c0-0.1,0-0.1,0-0.2l0.1-0.1h0.1v-0.1c-0.1,0-0.2,0-0.2,0c-0.1,0-0.1,0.1-0.1,0.1c0,0,0,0.1,0.1,0.1v0.1c-0.1,0-0.1-0.1-0.1-0.1
	l-0.1,0.1c0,0-0.1,0-0.1,0.1v-0.1l0.2-0.3c0-0.1,0.1-0.1,0.1-0.2c0-0.1,0.1-0.1,0.1-0.1c0.1,0,0.1,0,0.1-0.1c0,0,0,0,0-0.1
	c0.1,0,0.1,0,0-0.1c0,0,0,0.1-0.1,0.1c0-0.1-0.1-0.1-0.1-0.1l0.1,0v-0.1c0-0.1,0.1-0.1,0.1-0.1v-0.1c0,0-0.1,0-0.1-0.1
	c0,0.1-0.1,0.1-0.1,0.2c0,0,0,0,0,0.1c0,0.1,0,0.1-0.1,0.1v0.1c0,0-0.1,0-0.1,0c0,0.1,0,0.1,0,0.1v0.1c-0.1,0.1-0.1,0.1-0.1,0.2
	c0,0,0,0,0,0v-0.1c0-0.1,0.1-0.2,0.1-0.3c0-0.1,0.1-0.2,0.1-0.2c0.1-0.2,0.1-0.4,0.2-0.5c0,0,0.1,0,0.1-0.1c0-0.1,0-0.1,0-0.2v0
	c0,0,0-0.1,0-0.2c-0.1,0-0.1,0.1-0.1,0.2c0,0,0,0,0,0.1c-0.1,0-0.1,0-0.1,0.1c0,0,0.1,0,0.1,0.1c0,0,0,0.1-0.1,0.2l0,0
	c0,0.1,0,0.1-0.1,0.1s-0.1,0-0.1,0c0,0.1,0,0.1,0,0.1c0,0.1-0.1,0.1-0.1,0.1c0,0.1-0.1,0.1-0.1,0.1c-0.1-0.1,0-0.1,0-0.1L21.8,36
	c0,0.1,0.1,0.1,0.1,0.1c0,0.1-0.1,0.1-0.1,0.1c-0.1,0.1-0.2,0.3-0.2,0.4c-0.1,0.1-0.1,0.2-0.2,0.3c-0.1,0.1-0.1,0.2-0.2,0.3v0.1
	c0,0.1,0,0.2-0.1,0.2s-0.1,0.1-0.1,0.2v0.1c0,0.1,0,0.1-0.1,0.2v-0.3c0-0.1-0.1-0.2,0.1-0.3h0v0c0,0,0-0.1,0-0.1H21
	c-0.1,0-0.1-0.1-0.1-0.1v-0.3c0-0.1,0-0.3,0-0.4c0-0.1,0-0.2,0-0.3v-0.7c0-0.1,0-0.2,0.1-0.3v-0.8c0-0.1,0.1-0.2,0.1-0.3
	c0,0,0.1,0,0.1,0h-0.1c0,0,0-0.1,0-0.1c0,0,0-0.1,0-0.1h0.1c0,0,0,0.1,0,0.1s-0.1,0.1,0,0.1c0-0.1,0-0.1,0.1-0.2c0,0,0-0.1,0.1-0.1
	h-0.1c0,0,0,0-0.1,0c0.1,0,0.1-0.1,0.1-0.1c0.1,0,0.2-0.1,0.3-0.2c0.1,0,0.1-0.1,0.2-0.1l0.3-0.2c0,0,0-0.1,0.1,0l0.1-0.1
	c0,0,0.2-0.1,0.3-0.1c0,0,0.1,0,0.1,0v0.1c0,0,0.1-0.1,0.1-0.2c0.1-0.1,0.2-0.2,0.3-0.2c0.1,0,0.2,0,0.2-0.1
	c0.1-0.1,0.3-0.2,0.4-0.2h0.1v0.1c-0.1,0-0.1,0.1-0.1,0.1c0,0,0,0,0,0v0.1h0c0.1,0,0.1-0.1,0.1-0.1c0,0,0,0,0.1-0.1v-0.2
	c0,0,0-0.1,0.1-0.1c0-0.1,0-0.1,0-0.1c0-0.1,0-0.1,0-0.2c0,0-0.1-0.1-0.1-0.1c0-0.1,0.1-0.1,0.1-0.1c0-0.1,0-0.1,0.1,0
	c0,0,0.1,0.1,0.1,0.1c0,0,0,0.1,0.1,0.1c0-0.1,0.1-0.1,0.1-0.2c-0.1,0-0.1-0.1-0.1-0.1c0-0.1,0-0.1,0.1-0.1c0,0,0.1,0,0.1-0.1
	l0.2-0.2l0.1-0.1l0.2-0.2c0.1-0.1,0.2-0.2,0.3-0.2c0.1-0.1,0.1-0.1,0.2-0.2c0,0,0.1,0,0.1-0.1c0.1,0,0.1-0.1,0.1-0.1
	c0,0,0.1-0.1,0.2-0.1c0.1,0,0.1-0.1,0.1-0.1c0.1,0,0.1,0,0.1,0.1v1c-0.1,0.1-0.1,0.1-0.1,0.2c-0.1,0.1-0.1,0.2-0.1,0.2
	c0,0.1-0.1,0.1-0.1,0.1c0,0.1,0,0.2-0.1,0.3v0.1c0,0.1-0.1,0.2-0.1,0.2c0,0.1,0,0.1,0,0.1c0,0.1-0.1,0.1-0.1,0.2
	c-0.1,0.1-0.1,0.2-0.1,0.4c0,0.1-0.1,0.2-0.1,0.3c0,0,0,0.1-0.1,0.2c0,0,0,0.1,0,0.2V34c0,0-0.1,0.1-0.1,0.1c0,0.1-0.1,0.1-0.1,0.1
	c-0.1,0-0.1,0.1-0.2,0.1c0,0-0.1,0.1-0.1,0.2c0,0,0,0,0.1,0.1l0.1,0c0,0,0-0.1-0.1-0.2l0.1-0.1H24v0.1c-0.1,0,0,0.1,0,0.2v0.1
	c0,0.1,0.1,0.2,0.2,0.2v0c0,0,0,0.1,0,0.1c0,0,0,0,0.1,0.1h0.1c0,0-0.1,0-0.1,0.1c0.1,0,0.1,0,0.2,0.1c0.1,0,0.1,0,0.1,0.1
	c0,0.1,0,0.2,0.1,0.3c0,0.1,0.1,0.1,0.1,0.1c0,0.1,0,0.1,0,0.1c0.1,0.1,0.1,0.2,0.1,0.3v0.1c0.1,0.1,0.1,0.2,0,0.2
	c0.1,0,0.1,0.1,0.1,0.1c0,0,0.1,0.1,0.2,0.1c0,0,0.1,0.1,0.1,0.1v0.1c0,0,0,0.1-0.1,0.1c-0.1,0-0.2,0-0.2,0.1h-0.1
	c0,0-0.1,0-0.1,0.1l-0.1,0c0,0-0.1,0.1-0.2,0.1C24.2,37,24.1,37,24,37.1c-0.1,0-0.1,0.1-0.2,0c0,0,0,0.1-0.1,0.1c0,0,0,0.1,0,0
	c0,0-0.1,0-0.1,0.1l0,0c-0.1,0-0.1,0.1-0.1,0.1h0c-0.1,0.1-0.2,0.1-0.2,0.1c0,0-0.1,0-0.1,0l0.1-0.1c0,0,0.1,0,0.1-0.1
	c0-0.1,0.1-0.1,0.1-0.1l0.2-0.2c0-0.1,0-0.1,0-0.1c0.1-0.1,0.1-0.2,0.2-0.3c0,0,0.1,0,0,0c0,0-0.1,0-0.1,0.1
	c-0.1,0.1-0.2,0.1-0.2,0.2c0,0-0.2,0.1-0.2,0.2c-0.1,0-0.1,0-0.1,0c-0.1,0-0.1,0.1-0.2,0.1l-0.2,0.2c0,0-0.1,0.1-0.1,0.2
	c0,0.1,0,0.1-0.1,0.1c0,0-0.1,0-0.1-0.1h-0.2c0,0.1,0,0.1-0.1,0.1l-0.1,0l0,0.1c-0.1,0.1-0.1,0.1-0.1,0.1c0,0.1,0,0.1-0.1,0.1
	c0,0,0,0.1,0,0.1c0,0,0.1,0.2,0.2,0.2c0,0,0,0.1,0.1,0.1c0,0.1,0.1,0.2,0.2,0.2c0,0,0.1,0,0.1,0.1c0,0,0,0,0.1,0.1l0.1,0.1l0.1,0.1
	h0c0,0,0.1,0,0.1,0H23c0.1,0,0.2,0,0.2,0c0.1,0,0.1,0,0.2-0.1l0-0.1v0.1l0,0.1v0h0c0.1,0,0.1,0,0.1,0c0,0,0,0,0.1,0s0.1-0.1,0.2-0.1
	h0.1c0-0.1,0.1-0.1,0.2-0.1c0,0,0.1-0.1,0.2-0.1v0.1l-0.1,0c-0.1,0.1-0.1,0.1-0.2,0.1h-0.1c0,0-0.1,0-0.2,0.1v0.1c0.1,0,0.1,0,0.1,0
	c0,0,0-0.1,0.1-0.1s0.1-0.1,0.2-0.1l0.1,0c0,0,0.1,0,0.1-0.1v-0.1c0,0,0.1,0,0.1,0c0,0,0.1-0.1,0.1-0.1c-0.1,0-0.1,0.1-0.1-0.1
	l0.1,0c0,0,0.1-0.1,0.1-0.1c0,0,0.1,0,0.1,0l0.2-0.2l0.2-0.2c0-0.1,0.1-0.1,0.1-0.1c0,0,0.1,0,0.1-0.1v0c0.1,0,0.1,0,0.1,0
	c0,0-0.1,0.1-0.1,0.1s-0.1,0-0.1,0.1l0.1,0l0.1,0.1c0,0.1,0,0.1-0.1,0.1h-0.2c-0.1,0-0.2,0.1-0.2,0.2c0,0.1-0.1,0.2-0.1,0.3
	c-0.1,0.1-0.1,0.2,0,0.2c0,0.1,0.1,0.2,0.1,0.3c0-0.1-0.1-0.1-0.1-0.2c0-0.1,0-0.2-0.1-0.3c0,0,0-0.1-0.1-0.1h-0.1
	c-0.1,0-0.1,0.1-0.1,0.1v0.1c0,0,0.1,0.1,0.1,0.1v0.1c0.1,0,0.1,0,0.1,0c0,0.1,0,0.1,0.1,0.2v0.1h-0.1v0.1c0,0,0,0.1,0.1,0.1
	c0,0.1,0,0.2,0.1,0.2c0,0.1,0.1,0.1,0.1,0.2v0c0.1,0,0.1,0,0.1,0c0.1,0.1,0.1,0.2,0.2,0.2c0,0.1,0,0.2,0.1,0.3
	c0.1,0.1,0.1,0.2,0.1,0.3c0,0,0,0.1,0.1,0.1c0.1,0.1,0.1,0.1,0.1,0.2v0.1c0,0.1,0.1,0.1,0.1,0.1c0,0,0.1,0.1,0.1,0.1
	c0,0.1,0,0.1,0.1,0.2v-0.1c0,0,0,0.1,0,0.1c0,0,0,0.1,0.1,0.1c0.1,0.1,0.1,0.1,0.2,0.1c0,0,0.1,0,0.1,0.1c0,0.1,0,0.1,0.1,0.1v0.1
	h-0.1c0,0.1,0.1,0.1,0.1,0.1h0.2c0.1,0.1,0.1,0.1,0.2,0.1c0.1,0.1,0.2,0.2,0.3,0.2c0.1,0.1,0.2,0.2,0.3,0.2l0.1,0.1
	c0.1,0,0.1,0,0.1,0c0.1,0.1,0.1,0.1,0.2,0.1c0.1,0,0.1,0.1,0.1,0.1H27l0.2,0.2h0.1c0.1,0,0.1,0,0.1,0c0.1,0,0.2,0,0.2,0.1
	c0,0.1,0,0.1,0.1,0.1c0.1,0,0.1,0,0.1,0c0.1,0,0.1,0.1,0.1,0.1h0.2c0,0,0.1,0,0.1,0.1c0,0,0-0.1,0-0.1c0.1,0.1,0.2,0.1,0.3,0.1
	c0,0,0.1,0,0.1,0h0.1c0,0,0.2,0,0.2,0c0.1,0,0.1,0,0.2,0.1c0.1,0,0.1,0,0.1-0.1c0.1,0,0.2,0,0.2,0.1L29,43h0.2c0,0,0.1,0,0.2,0h0.9
	c0.1,0,0.1-0.1,0.2-0.1h0.2c0,0-0.1,0.1-0.1,0.1c0.1,0,0.1,0,0.2,0c0-0.1,0.1-0.1,0.1-0.1c0-0.1,0-0.1-0.1-0.1h-0.1
	c0,0-0.1,0.1-0.1,0.1c0,0-0.1,0-0.1-0.1c0,0,0.1,0,0.1,0c0.1,0,0.1,0,0.2-0.1c0.1,0,0.1-0.1,0.1,0h0l0.1-0.1c0,0,0.1,0,0.1,0v-0.4
	c-0.1-0.1,0-0.2,0-0.3c0,0,0-0.1,0-0.1h0v-0.3c0,0,0,0,0,0.1v-0.1c0,0,0-0.1,0-0.1c0,0.1,0,0.1-0.1,0.1v-0.2c0-0.1,0,0.1,0.1,0v0.2
	h-0.1v-1c0,0,0-0.1,0.1-0.1v-0.1c0,0,0-0.1-0.1-0.1c0,0,0-0.1-0.1-0.1h0c0-0.1,0-0.2,0-0.2c0,0,0,0,0.1,0s0.1,0.1,0.1,0.1
	c0,0.1,0,0.2,0,0.3c0,0,0,0,0.1,0v-0.3c0-0.1-0.1-0.2,0-0.2v-0.1c-0.1,0-0.1,0.1-0.1,0h-0.1c0,0-0.1,0-0.1-0.1c0,0,0,0-0.1-0.1
	c0.1,0,0.1-0.1,0.1,0c0.1,0,0.1,0.1,0.1,0.1l-0.1-0.1c0,0-0.1,0.1-0.1,0v0c0.1-0.1,0.1-0.1,0.1-0.2v-0.1c-0.1,0-0.1-0.1-0.1-0.2
	c0-0.1,0-0.1,0.1-0.2v-0.2c0,0,0,0,0-0.1c0,0,0-0.1,0-0.2c-0.1,0-0.1-0.1-0.1-0.2v-0.3c0-0.1,0.1-0.1,0-0.2v-0.6c0,0,0-0.1,0.1-0.1
	c0,0,0-0.1,0-0.1v-0.2c0-0.1,0.1-0.1,0-0.2l0.2-0.3v-0.1c0.1,0,0.1-0.1,0.2-0.1v-0.1h0.1c0.1,0,0.2,0,0.2-0.1c0.1,0,0.1-0.1,0-0.1
	c0,0-0.1,0-0.1-0.1l0.1-0.1c0,0,0-0.1,0-0.1c0-0.1-0.1-0.1-0.1-0.1v-0.1c0-0.1-0.1-0.3-0.2-0.4c0-0.1,0-0.1-0.1-0.2
	c-0.1-0.1-0.1-0.1-0.1-0.1c0.4,1.1,0.4,1.1,0.4,1c0,0-0.1-0.2-0.2-0.2c-0.1-0.1-0.1-0.1-0.2-0.2c-0.1,0-0.1-0.1-0.1-0.1
	c0.1-0.1,0.2-0.1,0.3-0.1c0,0,0.1,0,0.1-0.1v0c0.2-0.1,0.3-0.2,0.4-0.1c0,0,0.1,0,0.1,0.1h0.1c0,0,0.1,0.1,0.2,0c0,0,0-0.1,0.1-0.1
	h0.2c0.2,0,0.3,0,0.4,0h0.2c0,0,0.1,0,0.1,0h0.1c0,0,0.1,0,0.2,0h0.3c0.1,0,0.2,0,0.3,0h0.1c0,0,0.1,0,0.1,0.1h0.1v-0.1
	c0.1,0,0.1,0,0.2,0c0.1,0,0.1-0.1,0.2,0C34.2,35.8,34.2,35.8,34.4,35.7C34.3,35.8,34.3,35.8,34.4,35.7L34.4,35.7z M29.3,29.9
	c0.1,0,0.2-0.1,0.3-0.1c0,0.1,0,0.1-0.1,0.1c0.1,0.1,0.1,0.1,0,0.1h-0.1C29.4,30,29.4,30,29.3,29.9C29.3,29.9,29.3,29.9,29.3,29.9z
	 M29.2,28.6C29.2,28.6,29.2,28.6,29.2,28.6L29.2,28.6z M29.1,28.5C29.1,28.6,29.1,28.6,29.1,28.5L29.1,28.5z M27.3,26.3
	c0,0,0.1,0,0.1,0H27.3z M27.9,26.3C27.9,26.3,27.9,26.3,27.9,26.3C27.9,26.3,27.9,26.3,27.9,26.3z M26,28C26,28,26,28,26,28L26,28z
	 M19.6,35.5L19.6,35.5l-0.2,0.1c0,0-0.1,0-0.2,0c0,0,0.1,0,0.1,0C19.4,35.5,19.4,35.5,19.6,35.5C19.5,35.4,19.6,35.4,19.6,35.5z
	 M21.3,41.9C21.3,41.9,21.3,41.9,21.3,41.9L21.3,41.9z M22.3,35.7v-0.1c0.1,0,0.1-0.1,0.1-0.1c0,0,0.1,0,0.1,0c0,0,0,0.1-0.1,0.1
	C22.4,35.7,22.4,35.7,22.3,35.7z M22,37.2L22,37.2c0,0.1,0,0.1-0.1,0.1C22,37.2,22,37.2,22,37.2z M22,37.6C22,37.6,22,37.5,22,37.6
	c0.1,0,0.1,0.1,0,0.2c0,0-0.1-0.1-0.1-0.1C22,37.7,22,37.6,22,37.6z M21.5,39.1c0-0.1,0-0.1,0-0.2c0,0,0-0.1,0.1-0.1
	s0.1,0.1,0.1,0.1C21.6,39,21.6,39,21.5,39.1z M21.6,38.7h0.1C21.7,38.8,21.7,38.8,21.6,38.7z M21.8,37.6v0.1
	C21.8,37.7,21.8,37.6,21.8,37.6z M21.7,38.1C21.8,38.1,21.8,38.1,21.7,38.1C21.7,38.1,21.7,38.1,21.7,38.1z M21.6,38.3
	c0,0,0,0,0,0.1l-0.1,0.1C21.6,38.4,21.6,38.4,21.6,38.3z M21.7,38.6c0,0-0.1,0.1-0.1,0.1C21.6,38.6,21.6,38.6,21.7,38.6z M21.6,38.7
	C21.6,38.7,21.5,38.7,21.6,38.7C21.6,38.8,21.6,38.7,21.6,38.7c0.1,0.1,0,0.1,0,0.1C21.5,38.8,21.5,38.7,21.6,38.7L21.6,38.7z
	 M21.8,32L21.8,32C21.8,32,21.8,32,21.8,32z M22,31.8c0,0.1-0.1,0.1-0.2,0.2v-0.1H22c0,0,0,0,0,0c0,0,0,0,0-0.1
	C21.9,31.8,22,31.8,22,31.8L22,31.8C22,31.8,22.1,31.8,22,31.8l0.1,0.1C22.1,31.8,22.1,31.8,22,31.8z M23.5,32.2
	C23.5,32.1,23.5,32.1,23.5,32.2C23.5,32.1,23.6,32.1,23.5,32.2z M24,31.7L23.7,32c0,0-0.1,0-0.1,0c0,0,0-0.1,0-0.1l0.1-0.1
	c0.1,0,0.2-0.1,0.2-0.1C23.9,31.7,23.9,31.7,24,31.7L24,31.7z M24.3,35.1C24.3,35,24.3,35,24.3,35.1C24.3,35.1,24.3,35.1,24.3,35.1z
	 M23.4,38.3L23.4,38.3l0.1-0.1C23.5,38.3,23.4,38.3,23.4,38.3z M24.8,40.2c-0.1,0-0.1-0.2-0.1-0.3c0,0.1,0.1,0.1,0.1,0.1
	C24.8,40.1,24.8,40.1,24.8,40.2L24.8,40.2z M28.7,31.9v0.2c-0.1,0-0.1-0.1-0.1-0.1C28.6,32,28.6,31.9,28.7,31.9z M28.6,34.2
	C28.7,34.2,28.7,34.2,28.6,34.2l0.1-0.2c0,0,0-0.1,0-0.1h0.1c0,0,0,0.1,0,0v0h0c0-0.1,0.2-0.2,0.3-0.1h0.1c0,0,0,0,0,0
	c0.1-0.1,0.2-0.1,0.2-0.1c0,0,0,0,0.1,0c0.1,0,0.1,0,0.1-0.1c0,0,0,0.1,0.1,0.1c0,0,0.1,0,0.1,0c0,0.1-0.1,0.1-0.1,0.1
	c0,0,0,0.1-0.1,0.2c0,0-0.1,0-0.1,0c0.1,0.1,0.1,0.1,0,0.2c-0.1,0.1-0.1,0.1-0.2,0.1c0,0,0,0.1-0.1,0.1c0,0-0.1,0-0.1,0
	c0,0.1-0.1,0.1-0.2,0.1h0c0,0-0.1,0-0.1,0c0,0.1-0.1,0.1-0.1,0.1h-0.1c0,0,0-0.1-0.1-0.1c0,0,0,0,0-0.1v0h0.1l-0.2-0.2
	C28.7,34.4,28.6,34.3,28.6,34.2z M29.6,33.6C29.6,33.5,29.6,33.5,29.6,33.6C29.6,33.6,29.6,33.5,29.6,33.6z M28.8,34.6
	C28.8,34.6,28.8,34.7,28.8,34.6L28.8,34.6z M28.5,34.5c0-0.1,0.1-0.1,0.1,0h0.1v0c0,0,0,0.1-0.1,0.1h0.1c0,0.1-0.1,0.1-0.1,0.2
	c0,0-0.1,0-0.1,0c0,0,0,0,0-0.1C28.5,34.6,28.5,34.5,28.5,34.5z M27.1,30.6C27.1,30.6,27.1,30.6,27.1,30.6l0.1-0.1
	c0,0,0.1-0.1,0.1-0.1c0.1,0,0.1-0.1,0.1-0.1h0.1v0.1c0,0-0.1,0-0.1,0.1h-0.1v0.1h0.1c0.1-0.1,0.1-0.1,0.2-0.2c0,0,0,0.1,0.1,0.1
	c-0.1,0.1-0.1,0.1-0.1,0.2v0.2c0,0.1-0.1,0.2-0.1,0.3l-0.1,0.1l-0.1,0c-0.1,0.1-0.1,0.1-0.2,0.1c-0.1,0-0.1,0-0.2,0.1
	c0,0.1-0.1,0.2-0.2,0.2l-0.1,0.1c0,0-0.1,0-0.1,0c-0.1,0-0.1,0-0.1,0.1v0.1c-0.1,0.1-0.1,0.2-0.2,0.2c0,0-0.1,0-0.1,0.1l-0.1,0
	c0,0-0.1,0-0.1,0c0.1,0,0.1-0.1,0.1-0.1v-0.1c0-0.1,0.1-0.1,0.1-0.1c0.1-0.1,0.1-0.1,0.1-0.2l0,0l0.1-0.1c0,0,0-0.1,0.1-0.1
	c0-0.1,0.1-0.1,0.1-0.1l0-0.1v-0.1l0,0c0,0,0-0.1-0.1-0.1V31c0,0,0-0.1,0.1-0.1c0,0,0-0.1,0.1-0.2C27,30.7,27,30.6,27.1,30.6z
	 M27.3,34.8c-0.1-0.1-0.2-0.1-0.2-0.1v0.1c0.1,0,0.1,0.1,0.2,0.1c0,0-0.1,0.1-0.1,0.1c-0.1,0-0.1-0.1-0.1-0.1c0-0.1-0.1-0.1-0.1-0.1
	c0-0.1-0.1-0.1-0.1-0.1l-0.1,0c0,0,0-0.1-0.1-0.1c0,0,0,0,0-0.1v-0.2c0,0,0,0,0-0.1l-0.1,0.1c0,0,0-0.1,0-0.2c0,0,0,0,0,0h0.1
	c0,0,0,0,0,0c0,0.1,0.1,0.1,0.1,0.1c0-0.1,0-0.1,0.1-0.1H27c0,0,0.1,0,0.1,0c0,0,0.1,0,0.1,0.1c0,0,0.2,0,0.2,0.1c0,0,0.1,0,0.1,0
	v0.3c0,0,0,0.1-0.1,0.2v0.1c0,0.1,0,0.1-0.1,0.2C27.4,34.9,27.3,34.9,27.3,34.8z M27.5,33c-0.1,0-0.1,0-0.2,0.1
	c-0.1,0.1-0.1,0.1-0.2,0.1c-0.1,0-0.1,0.1-0.2,0.1c0-0.1,0-0.1,0.1-0.1H27c-0.1,0-0.1,0-0.1,0.1v0h-0.1c-0.1,0-0.1,0-0.1,0.1
	c0,0-0.1,0-0.1-0.1c0-0.1,0.1-0.1,0.1-0.2h0.1v-0.1c0-0.1,0.1-0.1,0.1-0.2c0,0,0.1-0.1,0.1-0.2l0,0c0-0.1,0.1-0.1,0.1-0.1
	c0.1,0,0.1,0.1,0.1,0.1c0,0.1-0.1,0.1-0.1,0.1v0h0.1c0.1,0,0.1-0.1,0.2-0.2c0.1,0,0.1,0,0.1,0v-0.1c0,0.1,0,0.1-0.1,0.1v0.1
	c0,0,0,0-0.1,0c0.1,0,0.1,0.1,0.1,0.1C27.5,33,27.5,33,27.5,33z M27.4,32.6v0.1V32.6C27.3,32.6,27.3,32.6,27.4,32.6z M26.6,30.7
	C26.6,30.7,26.6,30.7,26.6,30.7C26.6,30.7,26.6,30.7,26.6,30.7z M26,31.2c0,0,0-0.1,0.1-0.2c0.1,0,0.1-0.1,0.1-0.1
	c0,0,0.1,0,0.1-0.1c0.1,0,0.1,0,0.1,0c0.1-0.1,0.1-0.1,0.2-0.1l0.1-0.1c0,0,0.1,0,0.1,0h0c0.1,0,0.1,0,0.2-0.1v-0.1
	c0.1,0,0.2,0,0.2,0c0,0,0,0-0.1,0c-0.1,0.1-0.2,0.1-0.3,0.2l-0.1,0.1l-0.2,0.2c-0.1,0-0.1,0.1-0.2,0.1c-0.1,0-0.1,0-0.1,0
	c0,0,0,0.1,0,0.1l-0.1,0.1c-0.1,0.1-0.1,0.1-0.2,0.2h-0.1v-0.1C26,31.4,26,31.3,26,31.2L26,31.2z M25.8,36.6
	c0.1-0.1,0.1-0.2,0.1-0.3v-0.2c0,0,0,0,0.1,0c0,0,0,0,0,0.1v0.1c0,0,0,0.1,0,0.1c0.1,0,0.1-0.1,0.1-0.1c0-0.1,0.1-0.2,0.1-0.3
	c0,0-0.1-0.1-0.1-0.1c0,0,0-0.1-0.1-0.1c0,0,0,0.1,0,0.2c0,0,0,0.1-0.1,0.2v-0.3c0-0.1,0.1-0.1,0.1-0.2c0-0.1,0-0.2,0-0.2
	c0-0.1,0.1-0.1,0.1-0.2h0.1c0.1,0,0.1,0.1,0.1,0.2c0,0,0,0,0,0s0.1,0,0.1,0.1l0.2,0.3c0,0,0,0,0,0c0,0.1,0.1,0.1,0.2,0.2v0.1h0.1
	v0.1h0.1c-0.1,0.1,0,0.1,0.1,0.2l0.1,0.1c0,0,0.1,0,0.1,0c0,0,0.1,0,0.1,0.1c0,0,0,0.1-0.1,0.1h-0.1c-0.2,0-0.3,0.2-0.4,0.2
	c-0.1,0.1-0.2,0.1-0.2,0.1L26,37h-0.3c0,0,0-0.1,0.1-0.2c0,0,0,0.1,0.1,0.1c0.1,0,0.2-0.1,0.3-0.1c-0.1-0.1-0.1,0-0.2,0l-0.1,0
	c0,0,0.1,0,0.1-0.1v-0.1c0,0,0,0-0.1,0L25.8,36.6C25.8,36.6,25.8,36.6,25.8,36.6l0,0.1C25.7,36.7,25.7,36.6,25.8,36.6L25.8,36.6z
	 M25.2,38.7C25.1,38.7,25.1,38.6,25.2,38.7l0-0.1c0.1,0,0.1-0.1,0.1-0.1c0,0,0,0,0.1,0h0.1l-0.1,0c0,0-0.1,0.1-0.1,0.2v0.1
	c0,0.1,0,0.1-0.1,0.1C25.2,38.7,25.2,38.7,25.2,38.7z M27.8,42.2c0.1-0.1,0.1-0.1,0.1-0.1C27.9,42.2,27.9,42.2,27.8,42.2z M29.6,44
	L29.6,44C29.5,44,29.6,44,29.6,44L29.6,44z M29.9,37.9v0.4l0.1,0c0,0-0.1,0-0.1,0.1l0,0c0,0,0,0.1,0,0.1v0.7c0,0.2,0,0.1,0,0.2
	c0,0,0,0,0,0.1c0,0,0,0.1,0,0.1v0.8c0,0.1,0,0.1,0,0.2v0.1c0,0.1,0,0.1,0,0.2v0.1c-0.1,0.1,0,0.2-0.1,0.3v0.5c0,0,0,0.1-0.1,0.1
	c0,0.1,0.1,0.1,0,0.1c0,0-0.1,0-0.1,0.1h0.1c0,0.1-0.1,0.2-0.2,0.1c0,0,0.1,0.1,0.1,0.2v0c0,0-0.1,0.1-0.1,0.1c0,0-0.1,0.1-0.1,0.1
	h-0.1c-0.1,0.1-0.1,0.1-0.2,0.1h-0.1c-0.1,0-0.2,0-0.3,0v0.1c-0.1,0-0.2,0-0.3,0.1h-0.4c0,0-0.1,0-0.1-0.1H28c0.1,0,0.1,0,0.1,0
	l-0.2-0.2h-0.1c-0.1-0.1-0.2-0.1-0.3-0.1h-0.2c0.1,0,0.1,0,0.2,0c0.1,0,0.1,0.1,0.2,0.1c0,0,0,0.1,0,0.1v-0.1
	c-0.1,0.1-0.1,0.1-0.2-0.1c-0.1,0-0.1,0-0.2,0h-0.1c0,0-0.1-0.1-0.1-0.1h-0.1c-0.1,0-0.1-0.1-0.2-0.1c0,0-0.1,0-0.1-0.1
	c0-0.1-0.1-0.1-0.2-0.1h0c-0.1,0-0.2,0-0.2-0.1c0,0,0-0.1-0.1-0.1c0,0,0,0.1-0.1,0.1c-0.1,0-0.1,0-0.1-0.1v-0.1
	c-0.1-0.1-0.1-0.1-0.2-0.2c0-0.1-0.1-0.1-0.1-0.1c-0.1,0-0.1-0.1-0.1-0.1c0-0.1,0-0.1,0-0.1c-0.1-0.1-0.1-0.2-0.2-0.2
	c0,0-0.1-0.1-0.1-0.1c0,0,0-0.1,0-0.2l0,0c0,0-0.1-0.1-0.1-0.1v0c-0.1-0.1-0.1-0.1-0.1-0.2c0-0.1,0-0.1-0.1-0.1v-0.1
	c-0.1,0-0.1-0.1-0.1-0.2c0,0,0-0.1,0,0c0.1,0,0,0.1,0,0.1c0,0,0.1,0.1,0.1,0.1v-0.1c0,0-0.1,0,0-0.1v-0.2c0-0.1,0-0.2,0-0.2
	c0,0,0-0.1,0.1-0.1v-0.1c0,0,0-0.1,0.1-0.1c-0.1,0-0.1,0.1-0.1,0.1v-0.1h0c0,0.1,0,0.2-0.1,0.3v0.1c0,0,0,0-0.1,0l0,0
	c0-0.1-0.1-0.1-0.1-0.2c0-0.1,0-0.1,0.1-0.1c0-0.1,0-0.1,0-0.2c0,0,0-0.1,0.1-0.1c0-0.1,0.1-0.1,0.1-0.1c0,0,0,0,0,0
	c0.1,0,0,0,0,0.1c0.1,0.1,0.1,0,0.1-0.1h0.1v0L25.8,39c0,0,0,0,0-0.1l0.1-0.1h0.2c0,0,0.1,0,0.1-0.1h-0.1c0-0.1,0.1-0.1,0.1-0.2
	c0.1-0.1,0.1-0.1,0.2-0.1c0.1,0.1,0.2,0.1,0.2,0.1c0-0.1-0.1-0.1-0.1-0.2h0.5c0,0,0.1,0,0.1-0.1l0.1,0.1h-0.3l-0.1,0.1
	c-0.1,0.1,0,0.1,0.1,0.1h0.1c0,0,0,0.1-0.1,0.1c0.1-0.1,0.2,0,0.3,0.1c0,0.1-0.1,0.1,0,0.1c0,0,0,0,0.1,0h0.2c0.1,0,0.1,0,0.1,0
	c0.1,0.1,0.2,0.1,0.2,0.2c0,0.1,0.2,0.2,0.2,0.2c0.1,0,0.1,0.1,0.2,0.2c0.1,0,0,0,0,0.1c0.1,0.1,0.1,0.1,0.2,0.1l0.1,0.1l0.1,0
	c0,0.1,0.1,0.1,0.1,0.1c0.1,0,0.1,0,0.1,0.1h0.1c0,0.1-0.1,0.1-0.1,0.1s0.1,0,0.1,0v0c0-0.1,0.1-0.1,0.1-0.1h0.4
	c0.1,0,0.1-0.1,0.2-0.1v0c0,0,0-0.1,0.1-0.1c0,0,0.1,0,0.1-0.1H29c0,0,0,0,0-0.1c0-0.1,0-0.1,0.1-0.1c0-0.1,0.1-0.2,0.1-0.2
	c0,0-0.1-0.1-0.1-0.1v-0.1C29,39.2,29,39.2,29,39v-0.1c0-0.1,0-0.2,0-0.2c0-0.1-0.1-0.1-0.1-0.2v-0.1c0-0.1-0.1-0.2-0.2-0.2
	c-0.1,0-0.1-0.1-0.1-0.1s0,0-0.1,0c-0.1-0.1-0.2-0.2-0.3-0.3c-0.1,0-0.2-0.1-0.3-0.2c-0.1,0-0.2,0-0.2-0.1c-0.1,0-0.1,0-0.1,0
	c0,0-0.1,0-0.2,0c-0.1-0.1-0.2-0.1-0.3-0.1h-0.6c0.1,0,0.1,0,0.2-0.1h0.3c0,0,0.1,0,0.1,0c0-0.1,0-0.1-0.1-0.1h-0.3
	c0,0-0.1,0-0.2,0.1c-0.1,0-0.2,0-0.3,0.1h0c-0.1,0.1-0.2,0.1-0.2,0.2c-0.1,0-0.2,0-0.2,0c-0.1,0-0.2,0-0.3,0.1c0,0-0.1,0.1-0.1,0
	c-0.1,0-0.1-0.1-0.1,0h-0.1l0.1-0.1h0.1c0.1-0.1,0.2-0.1,0.3-0.1l0.3-0.2c0.1,0,0.1-0.1,0.1-0.1c0,0.1-0.1,0.1-0.1,0.2
	c0.1,0.1,0.1,0,0.2,0c0.1,0,0.1-0.1,0.1-0.1h-0.1c0,0-0.1,0-0.1-0.1c0.1-0.1,0.1-0.1,0.2-0.1c0,0,0.1-0.1,0.2-0.1
	c0.1-0.1,0.2-0.1,0.3-0.1h0.1c0,0,0.1-0.1,0.1-0.1c0.1,0,0.1,0,0.1-0.1c0-0.1,0.1-0.1,0.1-0.1c0.1,0,0.1-0.1,0.1-0.1l0-0.1
	c0.1,0,0.1-0.1,0.1-0.1c0.1,0,0.1,0.1,0.1,0c0,0,0.1,0,0.1,0.1l0.1-0.1c0-0.1,0.1-0.1,0.1-0.1c0.1-0.1,0.3-0.1,0.4-0.2
	c0.1-0.1,0.2-0.1,0.2-0.1c0.1,0,0.1,0,0.2-0.1c0.1,0,0.1-0.1,0.2-0.1c0.1,0,0.1,0,0.2-0.1h0c0.1,0,0.1-0.1,0.2-0.1
	c0.1,0,0.1,0,0.1,0.1c0,0,0.1,0,0.1-0.1l0.1,0c0,0,0.1-0.1,0.2-0.1c0,0.1-0.1,0.1-0.1,0.1h0.1v0c0,0,0,0.1,0.1,0v0h0.1
	c0,0,0,0.1,0,0.2c0,0,0,0,0,0h-0.1c0,0,0,0.1,0.1,0.1h0.1v0.1c0,0,0.1,0.2,0.1,0.2c0,0,0,0.1,0,0.1v0.1c0,0.1,0,0.1,0.1,0.2v0.2
	c-0.1,0-0.1,0.1-0.1,0.1v0.1c0,0,0.1,0,0.1-0.1c0,0,0.1,0,0.1,0L30,37.2C29.9,37.8,29.9,37.9,29.9,37.9L29.9,37.9z M25.8,39
	c0,0,0.1-0.1,0.2-0.2C25.9,38.9,25.9,39,25.8,39z M26.6,38.1C26.6,38.1,26.6,38.1,26.6,38.1C26.6,38.1,26.6,38.1,26.6,38.1z
	 M28.4,40.5C28.4,40.5,28.4,40.5,28.4,40.5c0,0,0.1,0,0.1,0h0.2l-0.1,0H28.4z M30.1,32.1H30c-0.1-0.1-0.2-0.1-0.3-0.1h-0.1
	c-0.1,0-0.2,0-0.3,0h-0.1c-0.1,0-0.2,0-0.2,0c-0.1,0-0.2,0.1-0.3,0.1c-0.1,0-0.1,0-0.1,0.1l-0.2,0.2h-0.1c0.1-0.1,0.1-0.1,0-0.1
	c0,0,0-0.1,0.1-0.1c0.1-0.1,0.2-0.1,0.3-0.1c0,0,0,0,0-0.1c0,0,0,0,0,0c-0.1,0-0.1-0.1-0.2-0.1l0,0c0,0,0.1-0.1,0.1-0.1
	c0,0,0-0.1,0.1-0.1c-0.1,0-0.1,0-0.2,0.1l-0.1,0.1c0,0,0,0.1-0.1,0.1s-0.1,0-0.1-0.1c0,0,0-0.1,0.1,0c0,0,0.1,0,0.1-0.1
	c0-0.1,0-0.1,0-0.2c0-0.1,0.1-0.1,0.1-0.1c0,0,0,0,0-0.1c0.1-0.1,0.2-0.1,0.3-0.2h0.1c0.1,0,0.2,0,0.2-0.1h0.3c0,0,0.1,0,0.1-0.1
	c0,0,0.1-0.1,0.2,0H30c0,0,0.1,0.1,0.1,0.2v0.1c0,0.1,0,0.2,0,0.3L30.1,32.1L30.1,32.1L30.1,32.1z M30.5,30.8
	C30.5,30.9,30.5,30.8,30.5,30.8C30.5,30.8,30.5,30.8,30.5,30.8z M31.2,40c0,0,0.1,0.1,0.1,0.1C31.2,40.1,31.2,40.1,31.2,40z
	 M31.6,37.7h0.1v0.1c0,0-0.1,0-0.1,0.1V37.7z M30.9,43.6C30.9,43.6,30.9,43.6,30.9,43.6L30.9,43.6z M31,43.3c-0.1,0.1-0.1,0-0.2,0
	C30.9,43.3,31,43.3,31,43.3z M30.8,36.1L30.8,36.1L30.8,36.1C30.8,36.1,30.9,36.1,30.8,36.1C30.9,36.1,30.9,36.1,30.8,36.1z
	 M10.9,48.3c-0.1-0.1-0.3-0.1-0.4-0.1c-0.3,0-0.6,0-0.9,0.1c-0.1,0.3,0.1,0.5,0.3,0.5c0.4,0.1,0.7,0.1,1.1,0c0.1,0,0.2-0.1,0.2-0.2
	C11.1,48.5,11,48.3,10.9,48.3L10.9,48.3z M27.5,49.5c-0.1,0-0.1-0.1-0.2,0c-0.1,0-0.2,0.1-0.4,0.2h0.5
	C27.5,49.6,27.6,49.5,27.5,49.5z M28.2,48.9c0,0-0.1,0.1-0.1,0.2c0.1,0.1,0.1,0.2,0.2,0.2c0.1,0.1,0.2,0,0.3,0c0-0.1,0-0.2-0.1-0.2
	C28.4,48.9,28.3,48.9,28.2,48.9z M7.1,13.5v0.2c0.1-0.1,0.1-0.1,0.1-0.1C7.2,13.6,7.2,13.6,7.1,13.5z M40.7,21.1
	c-0.1,0.2-0.1,0.3-0.2,0.4v0.2C40.6,21.5,40.6,21.3,40.7,21.1z M44.8,22.4c-0.1-0.1-0.3-0.1-0.4-0.1l0.1,0.1H44.8L44.8,22.4z
	 M50.7,18.9v-0.2c0,0,0-0.1,0-0.2c-0.4-0.7-1.1-1.1-1.5-1.1c-0.5,0-1-0.1-1.4-0.1c-0.4,0-0.7,0.2-0.8,0.6c-0.1,0.3-0.3,0.7-0.3,1
	c0,0.1,0,0.1-0.1,0.1l-0.2,0.5c-0.1,0.1-0.2,0.2-0.3,0.3c-0.3,0.2-0.5,0.3-0.8,0.3c-0.2,0.1-0.4,0-0.5-0.2c-0.2-0.5-0.6-0.7-1.1-0.8
	c-0.4-0.1-0.6-0.5-0.9-0.8c-0.1-0.1-0.1-0.3-0.1-0.4c-0.1-0.3-0.1-0.7-0.1-1c0-0.2-0.1-0.3-0.2-0.4c-0.3-0.3-0.4-0.7-0.5-1.1
	c-0.1-0.3-0.2-0.5-0.3-0.7c-0.3-0.5-0.1-0.9,0-1.4c0.6-0.3,0.4-0.8,0.4-1.2c0-0.8,0.2-1.4,0.6-2.1C43.1,10,43.1,9.5,43,9
	c-0.1-0.3-0.1-0.6-0.2-0.9c-0.1-0.4,0-0.7,0.2-1.1c0.2-0.3,0.3-0.6,0.4-1c-0.2,0.1-0.3,0.1-0.3,0.2l-0.2,0.3c-0.4,0.7-0.4,0.8-1.2,1
	c0,0.3,0,0.6,0.1,0.9c0,0.6,0,1.1-0.1,1.7c0,0.1-0.1,0.1-0.1,0.1c-0.1,0-0.2,0-0.3-0.1c-0.1-0.2-0.2-0.4-0.3-0.7
	c0,0.1-0.1,0.2-0.1,0.3v0.7c0,0.2,0,0.3-0.2,0.4c-0.1,0.1-0.2,0.2-0.1,0.3c0,0.6,0,1.1,0.3,1.6l0.1,0.1L41,13.1
	c-0.3-0.4-0.7-0.7-1.1-0.9c0-0.1,0.1-0.2,0.1-0.2c0.1-0.2,0.1-0.4,0-0.6c0-0.3-0.2-0.5-0.3-0.8c0.1-0.5,0.2-1.2,0.2-1.4
	c0,0,0-0.1-0.1-0.1V9.1c-0.2-0.5-1-2.1-1.2-2.6c0.2-0.2,0.5-0.6,0.7-0.7c-0.1-0.1-0.3-0.1-0.4-0.2L38.5,6c-0.2-0.7-0.5-2.3-0.7-3
	v0.8c-0.1,0.5-0.3,1-0.6,1.4c0.2,0.2,0.4,0.3,0.6,0.4v0.5c0,0.2,0.1,0.5,0.2,0.9v0.3c0,0.4-0.1,0.9,0,1.3v0.2l-0.1,0.6
	c-0.3,0.6-0.3,1.1-0.3,1.3v0.1l-0.9-1.4V9.2c0.2,0.2,0.4,0.3,0.4,0.3s0.4-0.3,0.3-0.9C37.3,8.2,37,7.7,37,7.7
	c0.2,0.5-0.1,0.8-0.4,0.9c0-0.1,0-0.1-0.1-0.2c-0.1-0.1-0.1-0.2-0.2-0.3c0.1-0.2,0.3-0.5,0.2-1.1C36.4,6.7,35.9,6,36,6.1
	c0.3,0.6-0.1,1.1-0.5,1.2c-0.1,0-0.2-0.1-0.2,0l-0.1,0.1C35.2,7.2,35.1,7,35,6.8l-0.2-0.2C34.9,6.5,35,6.2,35,5.9
	c0-0.4-0.4-1-0.4-0.9c0.2,0.6-0.4,1.1-0.8,1.2c0-0.1-0.2-0.1-0.2-0.1C33.5,6,33.5,6,33.4,6c0-0.2,0-0.6-0.3-0.9
	c-0.3-0.4-1-0.8-0.9-0.7c0.5,0.4,0.4,0.9,0.1,1.3c0,0,0-0.1-0.1-0.1c-0.3-0.5-0.4-1.1-0.5-1.7c0-0.2,0-0.4-0.1-0.5
	c-0.2-0.5-0.5-1-0.8-1.3c0,0.2,0.1,0.4,0.2,0.6c0.1,0.1-0.1,0.3-0.2,0.2c-0.1-0.1-0.2-0.2-0.2-0.3c-0.1,0-0.1,0-0.2-0.1
	c-0.1-0.2-0.3-0.4-0.4-0.6V1.8c0-0.1-0.1-0.1-0.1-0.1V1.6c0,0,0-0.1-0.1-0.1c-0.3-0.2-0.5-0.5-0.7-0.7c-0.2,0.2-0.2,0.5-0.4,0.6
	c-0.2,0.1-0.3-0.1-0.4-0.2c-0.2-0.2-0.4-0.4-0.7-0.4c-0.2,0.3,0.1,0.7-0.2,1c0.3,0.1,0.4,0.1,0.6,0.1c0.1,0.2,0.2,0.4,0.3,0.5
	c0,0-0.1,0-0.1,0.1c-0.3,0.2-0.5,0.2-0.6-0.1c-0.4-0.5-0.9-0.7-1.4-1.1c0,0.2,0,0.3,0.1,0.3C27,2,27.4,2.3,27.8,2.7
	C27.9,2.8,28,2.9,28,3.1c-0.1,0.1-0.2,0.1-0.2,0.2c-0.2,0.2-0.3,0.5-0.1,0.6C27.8,4,27.9,4.1,28,4.3c0.1,0.2,0.2,0.3,0.1,0.5
	c-0.3-0.2-0.5-0.3-0.8-0.4c-0.2,0.1-0.1,0.1-0.1,0.1S27.4,4,27,3.6c-0.3-0.3-0.9-0.5-0.8-0.4c0.6,0.4,0.4,0.9,0,1.1
	c-0.2,0-0.4-0.1-0.6-0.1c0-0.2-0.1-0.4-0.5-0.8c-0.4-0.3-1.2-0.6-1.1-0.6c0.7,0.4,0.6,1,0.3,1.4h-0.1V4.3c-0.1,0-0.1-0.1-0.2,0
	c-0.1,0.1-0.2,0.3-0.3,0.4c-0.1,0.1-0.1,0.2-0.2,0.2c-0.1,0.1-0.2,0.1-0.3,0.1c-0.1,0-0.2-0.2-0.2-0.3c0-0.1,0.1-0.1,0.1-0.2
	c0.1-0.4,0.2-0.7,0.3-1c0.1-0.2-0.1-0.4-0.1-0.5c-0.1-0.1-0.2-0.2-0.2-0.3c-0.1-0.1-0.3,0.1-0.4,0.2c-0.2,0.3-0.4,0.6-0.4,1
	c0.3-0.1,0.3-0.5,0.5-0.5c0.1,0.1,0.1,0.1,0.1,0.1c0,0.3,0,0.6-0.1,0.9c-0.1,0.1-0.1,0.3-0.2,0.4c-0.2-0.2-0.3-0.2-0.9-0.4h-0.1
	c-0.1-0.2-0.2-0.5-0.6-0.7c-0.4-0.3-1.1-0.3-1-0.3c0.4,0.1,0.6,0.5,0.6,0.8c-0.4,0.1-0.7,0.1-1,0.2c0-0.2-0.2-0.4-0.5-0.5
	c-0.3-0.2-0.9-0.2-0.8-0.2c0.4,0.1,0.5,0.5,0.5,0.8c-0.2,0.1-0.6,0.2-0.9,0.3l-0.3-0.3c-0.1-0.1-0.3-0.2-0.4-0.3l-0.3,0.3
	c-0.2,0.1-0.3,0.1-0.4-0.1c-0.1-0.3-0.2-0.5-0.4-0.7c0-0.1-0.3-0.2-0.4-0.3c-0.9-0.1-1.7-0.1-2.6,0.4c1-0.1,1.7-0.1,2.4,0
	c0.3,0.3,0,0.4-0.1,0.5c-0.1,0.4-0.2,0.8-0.2,1.1c-0.1-0.2-0.4-0.4-0.8-0.5C14.3,4.9,13.5,5,13.6,5c0.6,0,0.9,0.4,0.9,0.8
	C14.3,6.1,14,6.2,13.7,6c-0.3-0.2-0.5-0.2-0.8-0.1c-0.6,0.2-1.2,0.4-1.7,0.6c-0.2,0.1-0.4,0.3-0.6,0.4C9.8,7.5,8.9,8.3,8,9
	c-0.5,0.4-1,0.7-1.4,1.2c-0.2,0.2-0.5,0.3-0.6,0.6c0.1,0.1,0.1,0.2,0.1,0.2c0.1,0.2,0.1,0.3,0,0.4c-0.1,0.1-0.2,0.3-0.3,0.4
	c-0.4,0.6-0.9,1.1-1.3,1.7C4.4,13.7,4.2,14,4,14.4c-0.2,0.5-0.5,1-0.8,1.4c0,0.1,0,0.2,0.1,0.2c0.1,0,0.1,0,0.2,0
	c0.1-0.1,0.2-0.1,0.2-0.2c0.1-0.1,0.2-0.2,0.2-0.3l0.9-1.7c0.2-0.3,0.3-0.5,0.5-0.8c0.2-0.2,0.3-0.5,0.5-0.7
	c0.3-0.3,0.6-0.6,0.9-0.8c0.2-0.2,0.5-0.2,0.7-0.1c0.1,0,0.1,0.1,0.1,0.2c-0.2,0.3-0.2,0.7-0.5,0.9c-0.2,0.1-0.3,0.2-0.4,0.4
	c-0.5,0.7-1.1,1.1-1.6,1.7C4.8,14.7,5,14.9,5,15c-0.4,0.6-0.8,1.1-1.5,1.4c-0.2,0.1-0.3,0.2-0.3,0.3c-0.4,0.5-0.6,1-0.8,1.6
	c-0.2,0.8-0.5,1.6-0.8,2.3c-0.4,0.9-0.7,1.8-1,2.7c-0.1,0.2-0.1,0.3-0.1,0.5c0.1,0.6-0.2,1.1-0.3,1.7c-0.1,0.5-0.3,0.9-0.2,1.3
	c0.1,0.4-0.3,0.6-0.2,1c0.1,0.3,0.1,0.7,0.1,1c0,0.4,0.1,0.8-0.1,1.2c0,0.1,0,0.3,0.1,0.4c0,0.1,0.1,0.2,0.1,0.3
	c-0.1,0.8,0.3,1.5,0.4,2.3c0.2,1,0.6,1.8,0.9,2.7c0.3,0.9,0.6,1.6,1,2.4c0.4,0.7,0.7,1.4,1,2.1c0.3,0.6,0.5,1.2,1,1.7
	c0.3,0.6,0.8,1,0.9,1.5c0.1,0.2,0.2,0.3,0.3,0.4c0.9,0.9,1.7,1.7,2.7,2.5c0.6,0.5,1.2,1,1.7,1.6c0.2,0.2,0.5,0.3,0.7,0.4
	c0.5,0.1,0.9,0.2,1.3,0.5c0.1,0,0.2,0.1,0.4,0.1c0.3,0,0.5,0.1,0.8,0.2c0.2,0.2,0.5,0.2,0.7,0.2c0.3,0,0.5-0.1,0.7,0
	c0.2,0.1,0.2-0.1,0.3-0.2c0.1-0.1,0.3-0.1,0.3,0.1v0.2c-0.1,0.3,0.1,0.4,0.3,0.5c0.4,0.2,0.9,0.5,1.3,0.7c0.1,0.1,0.3,0.1,0.4,0.1
	h0.9c-0.2-0.1-0.2-0.2-0.3-0.2c-0.8,0-1.4-0.4-2-0.9c-0.1,0-0.1-0.1-0.1-0.2c0,0-0.1-0.2,0-0.2c0.1,0,0.2-0.2,0.2-0.2
	c0.5,0.1,1,0.2,1.4,0.4c0.2,0.1,0.3,0.3,0.4,0.4c0.1,0,0.3,0,0.4,0c0.3-0.1,0.5-0.1,0.8,0.1c0.1,0,0.2,0,0.3,0.1
	c0.3,0.2,0.5,0.1,0.8,0c0.1-0.1,0.2-0.2,0.3-0.2c0.4-0.2,0.7,0,1,0.2c0.2,0.1,0.4,0.1,0.5-0.1c0.1-0.1,0.2-0.2,0.3-0.2h1
	c0.4,0,0.8,0.1,1.2,0.1c0.4-0.1,0.8-0.1,1.2-0.1c0.3,0.1,0.5,0,0.8-0.1c-0.2-0.3-0.5-0.1-0.6-0.3c0-0.2,0.1-0.2,0.3-0.2
	c0.7,0,1.3-0.5,1.9-0.4c0.1,0,0.2-0.1,0.3-0.1c0.8-0.3,1.5-0.5,2.3-0.8c0.1-0.1,0.3-0.1,0.3-0.2c0.4-0.3,0.9-0.4,1.3-0.6
	c0.1-0.1,0.3-0.1,0.3-0.2c0.1-0.3,0.4-0.4,0.6-0.6c0.3-0.2,0.7-0.5,1-0.7c0.1-0.1,0.2-0.2,0.3-0.2c0.3-0.3,0.5-0.5,0.8-0.8
	c-0.1-0.1-0.2-0.1-0.3-0.1c-0.5,0.2-1,0.4-1.5,0.5c-0.2,0.1-0.4,0.1-0.6,0.3c-0.7,0.6-1.5,0.7-2.3,1.1c-0.1,0.1-0.3,0.1-0.3,0.2
	c-0.4,0.4-0.8,0.5-1.3,0.6c-0.5,0.2-1,0.4-1.5,0.6c-0.5,0.2-1,0.3-1.6,0.4c-0.7,0.1-1.3,0.3-1.9,0.4c-0.5,0.2-0.7,0.2-0.9,0.2
	c-0.6,0-1.3-0.1-1.9,0c-0.5,0.1-1,0-1.5-0.2c-0.5-0.2-0.9-0.2-1.4,0c-0.3-0.1-0.6-0.2-0.9-0.3c-0.3-0.1-0.5-0.2-0.8-0.2
	c-0.4,0.1-0.7,0-1-0.3c-0.1,0-0.2-0.1-0.4-0.1c-0.3-0.1-0.5-0.1-0.7-0.3c-0.3-0.2-0.5-0.3-0.8-0.4c-0.1,0-0.2-0.1-0.4-0.2
	c-0.6-0.3-1-0.6-1.6-0.8c-0.6-0.2-1.1-0.5-1.6-0.8c-0.2-0.1-0.4-0.3-0.6-0.4c-0.1-0.1-0.1-0.2-0.2-0.2c0.2,0,0.4-0.1,0.6-0.2
	c-0.3-0.1-0.5-0.1-0.7-0.2c-0.2-0.1-0.3-0.3-0.4-0.4c-0.4-0.4-0.8-0.7-1.3-0.8c-0.2-0.1-0.3-0.2-0.4-0.3C6.2,41.7,6,41.4,5.3,41
	c-0.2-0.2-0.4-0.3-0.5-0.5c-0.1-0.4-0.4-0.6-0.5-0.9c0-0.1-0.1-0.3-0.2-0.3c-0.4-0.3-0.6-0.6-0.7-1c-0.2-0.5-0.5-0.9-0.9-1.2
	c0-0.6-0.1-1.1-0.4-1.5C2,35.4,2,35.2,2,35c-0.1-0.6-0.2-1-0.6-1.3c-0.1-0.8-0.3-1.6-0.4-2.4C1,31,1,30.7,1,30.4c0-0.4,0-0.7-0.2-1
	c-0.1-0.1-0.1-0.1-0.1-0.2c0-1.1-0.1-2.2,0.2-3.2c0.1-0.5,0.1-1,0.2-1.4c0.2-1.1,0.4-2.2,0.9-3.2c0.1-0.2,0.2-0.3,0.2-0.4
	c0.2-0.8,0.6-1.4,0.9-2.1c0.1-0.3,0.3-0.5,0.4-0.7c0.2-0.3,0.4-0.6,0.6-0.9c0.4-0.1,0.7-0.2,0.9-0.6H4.6c-0.1,0-0.2-0.1-0.2-0.2
	c0.1-0.2,0.1-0.3,0.3-0.4c0.2-0.2,0.4-0.2,0.5-0.4c0.2-0.2,0.4-0.3,0.4-0.6c0-0.1,0.1-0.2,0.2-0.3c0.3-0.3,0.6-0.6,0.9-0.9
	c0.2-0.2,0.3-0.3,0.4-0.5C7,13.9,7,13.8,7,13.8c0-0.3,0.1-0.3,0.2-0.3c0.1-0.1,0.2-0.2,0.3-0.3c0.3-0.2,0.5-0.3,0.8-0.2
	c0.1,0,0.2-0.1,0.3-0.1c0.2,0.1,0.3,0.2,0.5,0.2c0.2,0,0.3-0.7,0.5-0.7c0.2,0.4,1.1-1,0.9-1.1c-0.3-0.1-0.3-0.3-0.1-0.5
	c0.3-0.3,0.6-0.5,1-0.7c0.5-0.2,1-0.5,1.4-0.8c0.1-0.1,0.2-0.1,0.2-0.2c0.2,0,0.3,0.1,0.4,0.1c0.1-0.1,0.2-0.1,0.2-0.1
	c0.3-0.4,0.7-0.6,1.2-0.7h0.1c0.1-0.6,1-0.8,1.6-0.9c0-0.1,0.1-0.1,0.1-0.1h0.2V7.8c0.1-0.1,0.2-0.3,0.3-0.3
	c0.2-0.2,0.4-0.3,0.5-0.4c0.1-0.1,0.2,0.1,0.1,0.2c-0.2,0.1-0.3,0.2-0.4,0.3c0,0.1,0.1,0.1,0,0.2C17,7.9,16.8,8,16.7,8.1
	c-0.1,0.1-0.1,0.1-0.2,0c-0.3,0.1-0.7,0.1-1,0.2c0,0,0,0.1-0.1,0.1l-0.2,0.2c0,0.1,0,0.1-0.1,0.1c0,0-0.1,0-0.1,0.1h0.9
	c0.6-0.2,1.1-0.3,1.7-0.3c0-0.1-0.2-0.2-0.2-0.3h0.1c0-0.1,0.1-0.1,0.1-0.2c0.1,0.1,0.3,0.1,0.5,0.1c0.5,0.1,0.3,0.3,0.6,0.3
	c0.3-0.1,0.5-0.2,0.8-0.4c0.1,0,0.1,0.1,0.1,0.1h0c0.3,0,0.7-0.1,1-0.1c0.1-0.1,0.1-0.2,0.1-0.4c0.3-0.1,0.5-0.1,0.8-0.2
	c0.1,0,0.3-0.1,0.4-0.1v0.1c0.2,0.2,0.3,0.5,0.6,0.6c0.4,0.2,0.8,0.4,1.2,0.3c0.4-0.1,0.6,0.2,0.7,0.5c0.1,0.3,0,0.4,0.2,0.7
	c0.2,0,0.3,0.3,0.4,0.6c0.1,0.2,0.5,0.2,0.9,0.2c0,0,0.2-0.8,0.2-0.7c0.3-0.1,0.5,0.2,0.6,0.3c0.1-0.2,0.3-0.3,0.6-0.3h0.1
	c0,0,0,0,0-0.1h0.2c0.3-0.1,0.5-0.3,0.7-0.4c0-0.1,0.1-0.1,0.1-0.1h0.3c0.1,0,0.1,0,0.1,0.1h0.1c0.4-0.2,0.9-0.3,1.3,0
	C30,9.2,30,9.3,30,9.3c0.2,0.1,0.4,0.2,0.5,0.3c0-0.1,0.1-0.1,0.1-0.1c0.3,0.1,0.6,0.2,0.8,0.3c0,0,0,0.1,0,0.1v0.2h0.1
	c0-0.1,0.1-0.1,0.1-0.1c0.1,0,0.1,0.1,0.1,0.1c0.1,0,0.2,0,0.3,0c0.1,0,0.1,0.1,0.1,0.1v0.1c0,0.1,0.1,0.1,0.2,0.1
	c0,0.1,0,0.1,0,0.2c-0.1,0.2-0.1,0.4-0.3,0.2l-0.3-0.3c0,0-0.1,0-0.1-0.1c-0.1,0.1-0.1,0.1-0.2,0.1c-0.2-0.1-0.4-0.3-0.6-0.4
	c-0.7-0.3-1.3-0.6-2-0.7c-0.1,0-0.1,0.1-0.2,0.1c0,0-0.1,0-0.1,0c-0.5,0.2-1,0.4-1.4,0.6c-0.1,0.1-0.2,0.2-0.3,0.3
	c0,0.1-0.2,0.2-0.2,0.3c0.1,0.5-0.5,0.6-0.8,0.8c-0.3,0.2,0,0.4,0.2,0.4s0.4,0,0.5,0.1C27,12,27,12.2,27,12.4
	c-0.2,0.2-0.3-0.1-0.6,0.1c-0.1,0.1-0.3,0.2-0.5,0.3c-0.2,0.1-0.4,0.2-0.6,0.3c-0.2,0.1-0.4,0.1-0.5-0.1c-0.2-0.2-0.4-0.3-0.6-0.5
	c-0.1-0.4,0-0.7,0.3-0.9c0.3-0.2,0.5-0.4,0.8-0.4c0.2,0,0.4-0.1,0.5-0.3c-0.8-0.1-1.3,0.1-1.7,0.6c0,0.1-0.1,0.2-0.2,0.2
	c-0.2,0.3-0.3,0.9-0.3,1.1c-0.3,0-0.6-0.1-0.8-0.3c-0.3-0.3,0.6-1.3-0.1-0.7c-0.7,0.6-0.5,0.7-0.4,1.2c0.1,0.4,0.7,0.4,1.2,0.5
	c0.1,0.1,0.2,0.1,0.3,0.2c0.3,0.1,0.5-0.1,0.8-0.1c0.4,0,0.6,0,0.7,0.4V14c-0.2,0.3-0.4,0.5-0.6,0.5c-0.4,0.1-0.8-1.2-0.7-0.3
	c0.2,0.9,0.4,0.8,0.8,0.9c0.4,0.1,0.8-0.6,1.1-1c0.3,0.1,0.4,0.3,0.8,0.3c0.1,0,0.5-0.2,0.6-0.3c0.1-0.1,0.2-0.4,0.4-0.4
	c0.1,0,0.3-0.3,0.5-0.3l0.1-0.3c0,0,0.1-0.4,0.5-0.8c0-0.1,0-0.1,0.1-0.2c0.1-0.1,0.2-0.1,0.3-0.1c0.2-0.2,0.1-0.3,0.4-0.3
	c0.1-0.1,0.2-0.3,0.3-0.3c0.1,0,0.6,0.4,0.7,0.4c-0.1-0.2,0.7-0.3,1.1-0.2c0.1,0,0.1,0.1,0.1,0.1v0.1c0,0.1-0.1,0.2-0.1,0.3
	c0,0,0,0.1,0.1,0.1c0,0,0.1,0,0.1,0.1c0,0,0.1,0.1,0.1,0l0.4,0.3c-0.1,0.1-0.1,0.3-0.2,0.3c-0.3,0,0.2,0.3,0,0.4
	c0,0,0.5,0.2,0.5,0.3c0.1,0.1,0.3,0.8,0.4,0.8c0.1,0,0.6-0.4,0.7-0.5c0.3-0.1,0.3-0.4,0.6-0.4c0.4,0,0.4-0.2,0.6,0.2
	c0,0,0.2,0.2,0.2,0.2c-0.1,0.1-0.3,0.2-0.3,0.2c-0.2-0.1-0.3-0.1-0.5-0.2c-0.1,0.3,0,0.4-0.3,0.5l-0.2,0.1l-0.1,0.2
	c0,0.2,0,0.2-0.1,0.4c-0.2,0,0.2,0.1,0.2,0.3c0,0.3,0.3,0.4,0.5,0.3c0.5-0.4,0.9-0.3,1.4,0c-0.1,0.2,1.1,0.2,0.9,0.3
	c-0.3,0.1-0.4,0.4-0.4,0.6c0,0.4,0.2,0.7,0.5,0.9c0.2,0.3,0.4,0.5,0.6,0.8h-0.1c-0.4-0.1-0.5-0.2-0.8-0.6c0,0-0.2,0.5,0.4,1.1
	c0.3,0.4,0.7,0.6,1,0.7c0.1,0.2,0.2,0.3,0.4,0.5c0.2,0.2,0.2,0.4,0.3,0.5C38,20,37.9,20,37.8,19.9c-0.4-0.3-0.5-0.4-0.8-0.8
	c0,0,0,0.5,0.5,1.1c0.3,0.3,0.6,0.6,0.9,0.7c0,0.1-0.1,0.2-0.1,0.3c0.2,0.1,0.4,0.2,0.4,0.4c0.1,0.2,0.1,0.3,0.2,0.4
	c-0.2,0-0.4-0.1-0.5-0.2c-0.3-0.3-0.5-0.4-0.7-0.8c0,0-0.1,0.6,0.3,1.2c0.3,0.4,0.7,0.6,1,0.8c-0.4,0.3-0.7,0.6-0.9,0.9
	c-0.2,0.2-0.3,0.5-0.3,0.8c0,0.4,0.4,0.7,0.8,0.5c0.1,0,0.2-0.2,0.3-0.4c-0.2-0.1-0.3,0.1-0.4,0.1c-0.2,0-0.4-0.2-0.3-0.3
	c0.1-0.2,0.1-0.3,0.2-0.4c0.1-0.2,0.3-0.3,0.4-0.5c0.2-0.2,0.4-0.4,0.6-0.6l0.1-0.1c0.2,0.2,0.3,0.3,0.5,0.3
	c0.2,0.1,0.3,0.1,0.4,0.2c0.2,0.1,0.3,0.2,0.5,0.2l0.5,0.1c0.1,0.1,0.1,0.1,0.1,0.2c0,0,0.1,0,0.2,0c0,0,0,0,0.1,0l0.1-0.2
	c0,0,0,0,0-0.1c0.1-0.1,0.2-0.2,0.2-0.3h0.1v-0.1c0-0.1,0.1-0.1,0.1-0.2C42,23,42,23,42,23c0-0.2,0-0.4,0.1-0.5H42
	c-0.1,0.1-0.1,0.2-0.2,0.3c-0.2,0.2-0.5,0.1-0.6-0.1c-0.1,0-0.2-0.1-0.3-0.2l-0.2-0.2c-0.1,0.1-0.1,0.1-0.1,0.1l-0.1-0.1
	c-0.1-0.2,0-0.8,0.1-1.1c0.1-0.2,0.1-0.3,0-0.4h0.1c0-0.1-0.1-0.1-0.1-0.1l0-0.1c-0.1-0.1-0.1-0.1-0.1-0.1c0,0,0-0.1,0-0.1
	c0-0.1-0.1-0.1-0.1-0.1c0-0.1-0.1-0.1-0.1-0.1c0,0,0-0.1,0-0.2V20c0.2-0.4,0.6-0.5,0.9-0.3c0.3,0.2,0.5,0.5,0.7,0.7
	c0.1,0.3-0.2,0.5,0.3,0.6c0.3,0.1,0.3,0.2,0.2,0.4c0.1,0.1,0.1,0.1,0.1,0.2c0.2,0.6-0.7,0.9-0.3,0.8c0.2-0.1,0.3-0.2,0.5-0.3
	l0.2,0.3l0.5,0.2c0.2,0,0.3,0,0.4,0.1c0.3,0.1,0.5,0.1,0.8,0.2c0.3,0.1,0.5,0.2,0.7,0.2c0.3,0.1,0.5-0.3,0.4-0.5L45.2,22
	c-0.3-0.4-0.3-0.7-0.3-1.1c0-0.2,0.1-0.3,0.3-0.3c0,0,0.1,0,0.2,0c0.7,0,1.2-0.4,1.4-1.1l-0.1,0.1c0.1-0.2,0.2-0.4,0.2-0.4
	c0-0.1,0-0.1,0-0.2l0.2-0.2c0.1-0.2,0.2-0.4,0.3-0.6c0.2-0.4,0.5-0.6,0.9-0.6s0.8,0,1.2,0.1c0.2,0.1,0.8,0.3,1.3,1c0,0,0,0.1,0,0.1
	l0.1,0.1l-0.1,0.8c-0.2,0.2-0.4,0.5-0.6,0.7c0.5,0,0.6-0.2,0.7-0.8v-0.1C50.8,19.3,50.8,19.1,50.7,18.9L50.7,18.9z M8.4,12.9
	L8.4,12.9l-0.1-0.1C8.4,12.9,8.5,12.9,8.4,12.9C8.5,13,8.5,13,8.5,13.1C8.5,13,8.5,12.9,8.4,12.9z M11.5,9.4
	c-0.3,0.1-0.5,0.3-0.7,0.4c-0.1,0.1-0.2,0.3-0.3,0.3c-0.4,0.3-0.8,0.5-1.3,0.2l0.2-0.6C9.1,9.7,8.9,9.8,8.7,9.9
	C8.6,10,8.4,10,8.3,10c-0.1,0-0.2-0.1-0.2-0.2c0-0.1,0.1-0.2,0.1-0.2C8.6,9.6,9,9.2,9.3,8.9c0.4-0.3,0.7-0.7,1.1-1
	c0.2-0.1,0.3-0.2,0.5-0.3c0.5-0.1,1-0.1,1.5,0.3c0.2,0.2,0.3,0.3,0.5,0.4c0.1,0.1,0.3,0.1,0.2,0.3C12.5,9,12.1,9.3,11.5,9.4
	L11.5,9.4z M14.4,8.2c-0.1,0-0.1-0.1-0.1-0.1c0-0.1,0.1-0.1,0.1-0.1c0.2-0.1,0.4-0.1,0.5,0.1C14.8,8.3,14.6,8.3,14.4,8.2z M22.4,7.4
	c0.1,0,0.1,0,0.2-0.1C22.4,7.4,22.4,7.4,22.4,7.4z M25.1,5.1c-0.4,0.2-0.8,0.9-0.9,0.7c0-0.3-0.6-0.3-0.6-0.3
	C24.2,5.2,25.5,5,25.1,5.1z M28.6,3.9c0,0.1-0.1,0.2-0.2,0.2C28.3,4.1,28.1,4,28,3.8c-0.1-0.1-0.1-0.2-0.1-0.3V3.2
	c0.2,0.1,0.4,0.2,0.6,0.3C28.6,3.6,28.7,3.7,28.6,3.9L28.6,3.9z M31.1,7.8l-0.7-0.2c-0.1-0.1-0.1-0.2-0.2-0.3c0,0.1-0.1,0.1-0.1,0.1
	c-0.1-0.1-0.2-0.1-0.3-0.1c-0.1,0-0.2,0.1-0.2,0.2c0,0,0,0.1,0.1,0.1c0.1,0.1-0.1,0.3-0.2,0.1c0,0-0.2-0.1-0.2-0.1V7.3
	c-0.1-0.2-0.2-0.4-0.2-0.5c0-0.1,0-0.1,0.1-0.1c0.1-0.1,0.2-0.1,0.2-0.1c0,0,0.1,0,0.1-0.1c0,0,0-0.1,0-0.1c0.1-0.1,0.1-0.1,0.1-0.1
	c0,0,0.2,0.1,0.2,0.1c0.5,0.4,1.2,0.5,1.4,1C31.3,7.7,31.2,7.8,31.1,7.8L31.1,7.8z M28.1,12.6c-0.1,0.2-0.3,0.4-0.4,0.6h-0.1
	c0-0.1-0.1-0.1-0.1-0.2c0-0.4,0.1-0.5,0.4-0.9C28.1,12.2,28.1,12.4,28.1,12.6z M29.4,11.8c-0.2,0-0.3-0.1-0.3-0.2
	c0-0.1,0.1-0.1,0.1-0.2c0.2-0.1,0.4,0.1,0.4,0.2C29.5,11.7,29.4,11.8,29.4,11.8z M33.1,7.5c0-0.1,0-0.2,0-0.2h0
	c0.6,0.1,1.5,0.6,2,0.9c0.8,0.6,1.2,1.4,1.7,2.2c0.2,0.3,0.2,0.7-0.2,1h-0.2c-0.1-0.2,0.1-0.5,0-0.7c-0.3-0.1-0.5-0.6-0.7-0.6
	C35.7,10.1,35,9.6,35,9.4c0-0.3,0-0.6-0.2-0.9c-0.3-0.2-0.7-0.3-1-0.4C33.4,8.1,33.2,7.9,33.1,7.5L33.1,7.5z M34.7,11.8
	c-0.1,0-0.1-0.1-0.1-0.1c-0.2-0.2-0.5-0.4-0.7-0.6L33.9,11V11c-0.1-0.4-0.1-1-0.2-1.3c0.2-0.1,0.3-0.2,0.5,0c0,0.1,0.1,0.2,0.1,0.3
	c0.1,0.5,0.3,0.8,0.8,1c0.7,0.3,1.2,0.8,1.8,1.2c0.4,0.3,0.4,0.6,0.2,1c0.2,0.1,0.3,0.2,0.4,0.4l0.2,1.6c-0.2-0.2-0.4-0.4-0.6-0.6
	c-0.2-0.1-0.4-0.3-0.5-0.4l-0.1-0.1c0.1-0.1,0.1-0.1,0.2-0.1c-0.2-0.2-0.4-0.3-0.6-0.4l-0.1-0.1v-0.1c-0.1-0.1-0.1-0.2-0.1-0.2h-0.1
	c-0.1-0.1-0.2-0.3-0.3-0.4c0,0,0-0.1-0.1-0.1v-0.1c0,0,0-0.1,0.1-0.1c0-0.2,0.2-0.4,0.3-0.6c-0.2-0.1-0.3-0.1-0.4-0.1
	c-0.1-0.2-0.3-0.3-0.5-0.3C34.8,11.8,34.7,11.8,34.7,11.8L34.7,11.8z M36.6,16.5c-0.1,0.2,0,0.3-0.1,0.5c0,0.1,0,0.2-0.1,0.3
	c-0.1-0.2-0.1-0.4-0.2-0.6c-0.1-0.3,0.1-0.4,0.5-0.5C36.7,16.3,36.6,16.4,36.6,16.5L36.6,16.5z M37,16.3c-0.3-0.2-0.5-0.4-0.7-0.5
	c-0.5-0.5-1.1-0.7-1.8-0.7c-0.1,0-0.1-0.1-0.2-0.1c0.1-0.1,0.1-0.2,0.1-0.3c0.1-0.1,0.2-0.1,0.3-0.1c0.5-0.1,1,0,1.3,0.4
	c0.4,0.4,0.7,0.8,1,1.1C37.1,16.1,37.1,16.2,37,16.3z M37.6,15.6c-0.1-0.1-0.2-0.3-0.3-0.4c-0.1-0.2-0.2-0.3-0.4-0.5
	c0.1,0.1,0.2,0.1,0.3,0.1C37.4,15.1,37.5,15.4,37.6,15.6L37.6,15.6z M38.7,19.3c0,0.1,0.2,0.1,0.3,0.1c0,0,0,0.1-0.1,0.1
	c0,0.1-0.1,0.3-0.3,0.2c-0.1,0-0.2-0.1-0.3-0.2c-0.2-0.3-0.3-0.6-0.3-0.9c0-0.1,0.1-0.3,0.2-0.3c0.1,0,0.2,0,0.3,0
	c0.2,0.2,0.3,0.3,0.5,0.4C38.8,18.8,38.6,19,38.7,19.3z M41.8,17.2c-0.5-0.2-0.9-0.4-1.3-0.6C40,16.5,40,16.5,40,16
	c0-0.2,0-0.3,0-0.6c0.4,0.3,0.8,0.5,1.1,0.7c0,0.1,0.2,0.1,0.2,0.2c0.3,0.2,0.5,0.4,0.6,0.7V17.2L41.8,17.2z M44.1,20.7
	c-0.2,0.1-0.3,0.1-0.4-0.2c0.2-0.2,0.3-0.4,0.4-0.6c0.1-0.1,0.1-0.1,0.2-0.1c0.1,0,0.1,0.1,0.1,0.1C44.5,20.3,44.3,20.6,44.1,20.7
	L44.1,20.7z M10.7,5.6c0.2-0.2,0.5-0.2,0.6-0.5c-0.3,0.1-0.5,0.2-0.8,0.5C10.6,5.6,10.6,5.6,10.7,5.6z M25,0.9
	c0.1,0.1,0.2,0.3,0.5,0.3l-0.5-0.5c-0.2-0.2-0.1-0.5,0.2-0.6c0.1-0.1,0.2-0.1,0.3-0.1h-0.5c-0.3,0.1-0.5,0.4-0.3,0.6
	C24.9,0.7,24.9,0.8,25,0.9L25,0.9z M18.3,4.1c0,0,0.2-0.1,0.2-0.1c0-0.3-0.1-0.6-0.1-0.9c0-0.1,0.1-0.2,0.2-0.3
	c-0.1-0.1-0.1-0.2-0.2-0.2c-0.3,0.2-0.3,0.5-0.5,0.8C18,3.6,18.1,3.8,18.2,4C18.2,4.1,18.2,4.1,18.3,4.1z M19.9,3
	c0-0.2-0.2-0.4,0.1-0.6c0.2-0.2,0-0.3-0.2-0.4c-0.3,0.1-0.4,0.3-0.5,0.5C19.5,2.7,19.7,2.9,19.9,3z M19.3,3.2c0-0.1,0-0.2,0-0.3
	c-0.3-0.2-0.5-0.3-0.8-0.1C18.7,3,18.8,3.2,19,3.2C19.1,3.3,19.2,3.2,19.3,3.2L19.3,3.2z M25.2,2.2c0.1,0.4,0,0.6,0.1,0.6
	c0.2,0.2,0.3,0.5,0.4,0.7c0.1,0.1,0.2,0.1,0.2,0.1c0.1-0.1,0.2-0.2,0.1-0.2c-0.1-0.2-0.2-0.4-0.3-0.5C25.5,2.7,25.4,2.6,25.2,2.2z"
	/>
</svg>
