<?xml version="1.0" encoding="utf-8"?>
<!-- Generator: Adobe Illustrator 27.9.0, SVG Export Plug-In . SVG Version: 6.00 Build 0)  -->
<svg version="1.1" id="Layer_1" xmlns="http://www.w3.org/2000/svg" xmlns:xlink="http://www.w3.org/1999/xlink" x="0px" y="0px"
	 viewBox="0 0 124 21" style="enable-background:new 0 0 124 21;" xml:space="preserve">
<style type="text/css">
	.st0{fill:#9D9D9D;}
</style>
<path class="st0" d="M12.6,18.4c-1.2-1.3-1.1-2.9-1.1-3l0-0.3l0.3,0.1c0,0,2.9,0.8,4.3-0.5c1.4-1.2,1.9-4.1,0.1-6.9
	c-1.7-2.7-5.7-5.5-6.4-6.1C9,2.3,5,5.1,3.3,7.8c-1.7,2.9-1.2,5.7,0.1,6.9c1.4,1.3,4.2,0.5,4.3,0.5L8,15.2l0,0.3c0,0.1,0.1,1.7-1.1,3
	c-1,1.1-2.5,1.6-4.6,1.6v1c2.4,0,4.2-0.7,5.3-1.9C9,17.6,9,16,8.9,15.4c0-0.6-0.1-1.4-0.1-1.4l-1.4,0.4C6.8,14.5,4.9,14.8,4,14
	c-1.1-1-1.4-3.3,0.1-5.7c1.3-2.2,4.3-4.5,5.6-5.4c1.3,1,4.3,3.2,5.6,5.4c1.5,2.4,1.1,4.7,0.1,5.7c-0.8,0.7-2.8,0.5-3.4,0.3l-1.4-0.4
	c0,0-0.1,0.8-0.1,1.4c0,0.6-0.1,2.2,1.3,3.7c1.2,1.3,3,1.9,5.3,1.9v-1C15.1,20,13.5,19.5,12.6,18.4L12.6,18.4z"/>
<path class="st0" d="M17,15.8c1.8-1.6,2.6-5.2,0.4-8.7c-2-3.3-6.8-6.5-7-6.6L9.7,0L9.1,0.4c-0.2,0.1-5,3.3-7,6.6
	c-2.2,3.6-1.5,7.1,0.4,8.7c1.1,1,2.6,1.1,3.8,1.1c-0.1,0.2-0.2,0.4-0.4,0.6c-0.7,0.7-1.9,1.1-3.5,1.1v1c2,0,3.4-0.5,4.3-1.5
	c0.8-0.8,0.9-1.9,0.9-2.3c-0.8,0.2-3.1,0.5-4.4-0.7C1.5,13.7,1,10.7,2.9,7.6c1.9-3.1,6.5-6.2,6.7-6.3l0.1-0.1l0.1,0.1
	c0.2,0.1,4.8,3.2,6.7,6.3c1.9,3.1,1.3,6.1-0.2,7.5c-1.3,1.2-3.6,0.9-4.4,0.7c0,0.5,0.2,1.5,0.9,2.3c0.9,1,2.3,1.5,4.3,1.5v-1
	c-1.7,0-2.9-0.4-3.5-1.1c-0.2-0.2-0.3-0.4-0.4-0.6C14.4,17,15.9,16.8,17,15.8L17,15.8z"/>
<path class="st0" d="M28.4,10.2c-1-0.7-1.6-1.2-1.9-1.4c-0.2-0.1-0.3-0.4-0.5-0.6c-0.2-0.2-0.3-0.6-0.3-1c0-0.5,0.2-0.9,0.5-1.3
	c0.3-0.3,0.7-0.5,1.3-0.5c1.1,0,1.8,0.7,2,2.1h0.4V5.5c0-0.1,0-0.2-0.1-0.2c-0.2-0.2-1-0.4-2.2-0.4c-0.9,0-1.7,0.2-2.4,0.7
	c-0.7,0.5-1.1,1.2-1.1,2.1c0,0.5,0.1,1,0.4,1.4c0.3,0.4,0.8,0.8,1.6,1.4c1.2,0.8,2,1.5,2.4,1.9c0.4,0.4,0.6,1,0.6,1.5
	c0,0.6-0.2,1.1-0.6,1.5C28,15.8,27.5,16,26.9,16c-0.9,0-1.6-0.4-2.1-1.1c-0.2-0.3-0.3-0.8-0.5-1.5h-0.4v2.3c0,0.2,0.1,0.3,0.2,0.3
	c0.2,0.1,0.6,0.2,1.1,0.3c0.6,0.1,1,0.1,1.5,0.1c1.2,0,2.1-0.3,2.8-0.9c0.7-0.6,1.1-1.3,1.1-2.3c0-0.6-0.2-1.1-0.5-1.6
	C29.9,11.4,29.3,10.9,28.4,10.2L28.4,10.2z"/>
<path class="st0" d="M36.8,8.1c-1.1,0-2.1,0.4-2.8,1.3V8.1c-0.7,0.4-1.6,0.6-2.7,0.7v0.4h0.4c0.3,0,0.6,0,0.7,0.1
	c0.1,0.1,0.2,0.3,0.2,0.6v8.3c0,0.7-0.1,1.1-0.2,1.3c-0.1,0.1-0.5,0.3-1.1,0.3v0.4h4.4V20c-0.8-0.1-1.3-0.2-1.4-0.3
	c-0.1-0.1-0.2-0.6-0.2-1.3v-2.2c0.6,0.2,1.2,0.4,1.8,0.4c1.2,0,2.2-0.4,3-1.3c0.8-0.9,1.2-2,1.2-3.3c0-1.2-0.3-2.1-0.9-2.8
	C38.6,8.5,37.8,8.1,36.8,8.1L36.8,8.1z M37.8,15c-0.5,0.7-1.1,1-1.9,1c-0.6,0-1.2-0.2-1.8-0.8v-2.8c0-0.9,0-1.5,0.1-1.9
	c0.2-1.1,0.9-1.7,1.9-1.7c0.7,0,1.3,0.3,1.8,0.9c0.4,0.6,0.7,1.4,0.7,2.5C38.5,13.5,38.2,14.4,37.8,15L37.8,15z"/>
<path class="st0" d="M47.4,15.5c-0.2,0-0.4-0.1-0.4-0.3c-0.1-0.2-0.1-0.5-0.1-0.9v-3.6c0-0.9-0.2-1.6-0.6-2
	c-0.4-0.4-1.1-0.6-2.1-0.6c-0.8,0-1.4,0.1-2.1,0.4c-0.2,0.1-0.4,0.3-0.4,0.5l-0.2,0.9c0,0.1,0,0.1,0.1,0.2l0.5,0.1c0,0,0.1,0,0.1,0
	c0.1,0,0.2-0.1,0.3-0.4C43,9.1,43.5,8.7,44,8.7c0.9,0,1.4,0.8,1.4,2.3l-1.7,0.7c-0.7,0.3-1.2,0.5-1.5,0.7c-0.8,0.5-1.2,1.1-1.2,2
	c0,0.6,0.2,1.2,0.6,1.6c0.4,0.4,0.9,0.6,1.5,0.6c0.3,0,0.7-0.1,1.2-0.4l1.2-0.8c0,0.5,0.2,0.9,0.4,1.3l2.3-0.7L48,15.4
	C47.7,15.4,47.5,15.5,47.4,15.5L47.4,15.5z M45.4,12.9c0,1.8-0.6,2.7-1.7,2.7c-0.4,0-0.7-0.1-1-0.4c-0.2-0.3-0.4-0.6-0.4-1
	c0-0.9,0.5-1.6,1.6-2c0.4-0.2,0.8-0.3,1.4-0.5L45.4,12.9L45.4,12.9z"/>
<path class="st0" d="M56.7,15.5c-0.4,0-0.6-0.4-0.6-1.2V4.5C55.3,4.9,54.4,5,53.4,5v0.4h0.4c0.3,0,0.5,0,0.7,0.1
	c0.1,0.1,0.2,0.4,0.2,0.8v2c-0.5-0.2-1.1-0.3-1.7-0.3c-1.3,0-2.3,0.4-3.1,1.2c-0.8,0.8-1.2,1.8-1.2,3.1c0,1.2,0.3,2.2,1,3
	c0.7,0.8,1.5,1.2,2.5,1.2c0.4,0,0.9-0.2,1.4-0.5l1.1-0.6v0.1c0,0.4,0.1,0.7,0.4,1l2.3-0.7l-0.1-0.4C57,15.4,56.8,15.5,56.7,15.5
	L56.7,15.5z M54.7,13.6c0,0.6-0.1,1.1-0.3,1.3c-0.2,0.2-0.4,0.4-0.7,0.5c-0.3,0.2-0.6,0.2-0.9,0.2c-0.8,0-1.5-0.4-1.9-1.3
	c-0.4-0.7-0.6-1.5-0.6-2.4c0-0.9,0.2-1.6,0.6-2.2c0.5-0.7,1.1-1,1.9-1c0.8,0,1.5,0.3,1.9,1L54.7,13.6L54.7,13.6z"/>
<path class="st0" d="M64.5,10.2c-0.4-1.4-1.4-2.1-2.8-2.1c-1.1,0-2,0.4-2.6,1.1c-0.7,0.8-1.1,1.8-1.1,2.9s0.4,2.2,1.1,3.1
	c0.7,0.8,1.7,1.2,3.1,1.2h0.4l2.1-1l-0.2-0.5c-0.7,0.4-1.3,0.5-1.9,0.5c-0.6,0-1.1-0.1-1.5-0.4c-1-0.6-1.5-1.7-1.6-3.3h5.2
	C64.7,11.2,64.6,10.6,64.5,10.2L64.5,10.2z M62.3,11.3h-2.8c0-0.5,0.1-0.9,0.2-1.1c0.3-1,0.9-1.6,1.9-1.6c0.5,0,0.9,0.2,1.2,0.5
	c0.3,0.3,0.5,0.7,0.5,1.2C63.3,11,62.9,11.3,62.3,11.3L62.3,11.3z"/>
<path class="st0" d="M73.4,8.3l-0.2-0.2c-0.7,0.2-1.5,0.2-2.3,0.2c-0.1,0-0.3,0-0.4,0c-0.4-0.2-0.9-0.2-1.4-0.2
	c-0.9,0-1.7,0.2-2.3,0.7c-0.6,0.5-0.9,1.2-0.9,2c0,1.2,0.6,2,1.8,2.6l-1.5,1.3v0.1c0,0.1,0,0.1,0,0.1c0,0.5,0.3,0.8,1,1l-1.7,0.9
	c-0.1,0.1-0.2,0.3-0.2,0.6c0,0.7,0.2,1.2,0.5,1.7c0.3,0.4,0.7,0.7,1.3,1c0.6,0.2,1.2,0.4,1.9,0.4c1,0,1.9-0.2,2.6-0.7
	c0.8-0.6,1.3-1.4,1.3-2.3c0-0.9-0.4-1.5-1.3-1.9c-0.4-0.2-1-0.3-1.8-0.4c-0.8-0.1-1.4-0.2-1.7-0.4c-0.2-0.1-0.3-0.2-0.3-0.4
	c0-0.2,0.1-0.4,0.4-0.6h0.6c0.9,0,1.6-0.3,2.2-0.8c0.6-0.5,0.9-1.2,0.9-2c0-0.7-0.2-1.3-0.7-1.9H73L73.4,8.3L73.4,8.3z M68,16
	l1.6,0.3c0.4,0.1,0.7,0.1,1,0.2c0.7,0.2,1.1,0.7,1.1,1.4c0,0.5-0.2,1-0.7,1.4c-0.5,0.4-1.1,0.5-1.8,0.5s-1.3-0.2-1.8-0.6
	c-0.5-0.4-0.7-0.9-0.7-1.5c0-0.4,0.1-0.7,0.3-0.9C67.1,16.7,67.5,16.4,68,16L68,16z M69.2,13.2c-0.5,0-0.9-0.2-1.2-0.7
	c-0.3-0.5-0.5-1.1-0.5-1.8c0-0.6,0.1-1.1,0.4-1.5c0.3-0.4,0.7-0.5,1.2-0.5c0.5,0,0.8,0.2,1.1,0.7c0.3,0.4,0.4,1.1,0.4,1.8
	C70.5,12.5,70.1,13.2,69.2,13.2L69.2,13.2z"/>
<path class="st0" d="M80,15.5c-0.2,0-0.4-0.1-0.4-0.3c-0.1-0.2-0.1-0.5-0.1-0.9v-3.6c0-0.9-0.2-1.6-0.6-2c-0.4-0.4-1.1-0.6-2.1-0.6
	c-0.8,0-1.4,0.1-2.1,0.4c-0.2,0.1-0.4,0.3-0.4,0.5L74,9.9c0,0.1,0,0.1,0.1,0.2l0.5,0.1c0,0,0.1,0,0.1,0c0.1,0,0.2-0.1,0.3-0.4
	c0.4-0.8,0.9-1.2,1.5-1.2c0.9,0,1.4,0.8,1.4,2.3l-1.8,0.7c-0.7,0.3-1.2,0.5-1.5,0.7c-0.8,0.5-1.2,1.1-1.2,2c0,0.6,0.2,1.2,0.6,1.6
	c0.4,0.4,0.9,0.6,1.5,0.6c0.3,0,0.7-0.1,1.2-0.4l1.2-0.8c0,0.5,0.2,0.9,0.4,1.3l2.3-0.7l-0.1-0.4C80.3,15.4,80.1,15.5,80,15.5
	L80,15.5z M78,12.9c0,1.8-0.6,2.7-1.8,2.7c-0.4,0-0.7-0.1-1-0.4c-0.2-0.3-0.4-0.6-0.4-1c0-0.9,0.5-1.6,1.6-2
	c0.4-0.2,0.8-0.3,1.4-0.5L78,12.9L78,12.9z"/>
<path class="st0" d="M94,14.4V11c0-0.6,0-1-0.1-1.3c-0.2-1-1-1.6-2.2-1.6c-1.1,0-2.1,0.5-2.9,1.4C88.6,9,88.3,8.7,88,8.5
	c-0.3-0.2-0.7-0.3-1.3-0.3c-1.2,0-2.2,0.5-2.9,1.4V8.1c-0.7,0.4-1.6,0.6-2.7,0.7v0.4h0.4c0.4,0,0.6,0.1,0.7,0.2
	c0.1,0.1,0.2,0.3,0.2,0.6v4.3c0,0.7-0.1,1.1-0.2,1.3c-0.1,0.1-0.5,0.2-1.1,0.3v0.4h4v-0.4c-0.6-0.1-1-0.2-1.1-0.3
	c-0.1-0.1-0.2-0.6-0.2-1.3v-1.9c0-1.4,0.2-2.4,0.6-2.8C84.7,9.2,85.2,9,85.9,9c0.6,0,1,0.2,1.2,0.5c0.2,0.4,0.3,1,0.3,1.9v2.9
	c0,0.7-0.1,1.1-0.2,1.3c-0.1,0.1-0.5,0.2-1.1,0.3v0.4h4v-0.4c-0.6-0.1-1-0.2-1.1-0.3c-0.1-0.1-0.2-0.6-0.2-1.3v-1.9
	c0-0.7,0-1.2,0.1-1.4c0.1-0.6,0.2-1,0.5-1.3C89.8,9.3,90.3,9,91,9c0.6,0,1,0.2,1.2,0.5c0.2,0.4,0.4,1,0.4,1.9v2.9
	c0,0.7-0.1,1.1-0.2,1.3c-0.1,0.1-0.5,0.2-1.1,0.3v0.4h4v-0.4c-0.6-0.1-1-0.2-1.1-0.3C94,15.5,94,15.1,94,14.4L94,14.4z"/>
<path class="st0" d="M97.6,7.1c0.3,0,0.5-0.1,0.7-0.3c0.2-0.2,0.3-0.4,0.3-0.7c0-0.3-0.1-0.5-0.3-0.7c-0.2-0.2-0.4-0.3-0.7-0.3
	c-0.3,0-0.5,0.1-0.7,0.3c-0.2,0.2-0.3,0.4-0.3,0.6c0,0.3,0.1,0.5,0.3,0.7C97.1,7,97.4,7.1,97.6,7.1z"/>
<path class="st0" d="M98.7,15.5c-0.1-0.2-0.2-0.6-0.2-1.3V8.1c-0.7,0.4-1.6,0.6-2.7,0.7v0.4h0.4c0.4,0,0.6,0,0.7,0.1
	C97,9.4,97,9.6,97,9.9v4.3c0,0.7-0.1,1.1-0.2,1.3c-0.1,0.1-0.5,0.2-1.1,0.3v0.4h4v-0.4C99.1,15.8,98.8,15.7,98.7,15.5L98.7,15.5z"/>
<path class="st0" d="M108.8,15.5c-0.1-0.1-0.1-0.5-0.1-1.3v-3.4c0-0.7,0-1.2-0.1-1.5c-0.3-0.9-1.1-1.4-2.2-1.4
	c-1.3,0-2.3,0.5-3.2,1.4V8.1c-0.7,0.4-1.6,0.6-2.7,0.7v0.4h0.4c0.3,0,0.6,0,0.7,0.1c0.1,0.1,0.2,0.3,0.2,0.6v4.3
	c0,0.7-0.1,1.1-0.2,1.2c-0.1,0.1-0.5,0.3-1.1,0.3v0.4h4v-0.4c-0.6-0.1-1-0.2-1.1-0.3c-0.1-0.1-0.2-0.6-0.2-1.3v-2
	c0-0.7,0-1.3,0.1-1.7c0.3-1.1,1-1.7,2.2-1.7c0.7,0,1.1,0.2,1.4,0.5c0.3,0.4,0.4,1,0.4,1.8v3c0,0.7,0,1.1-0.1,1.2
	c-0.1,0.2-0.5,0.3-1.2,0.4v0.4h4v-0.4C109.3,15.8,108.9,15.7,108.8,15.5L108.8,15.5z"/>
<path class="st0" d="M118.6,8.3l-0.2-0.2c-0.7,0.2-1.4,0.2-2.3,0.2c-0.1,0-0.3,0-0.4,0c-0.4-0.2-0.9-0.2-1.4-0.2
	c-0.9,0-1.7,0.2-2.3,0.7c-0.6,0.5-0.9,1.2-0.9,2c0,1.2,0.6,2,1.8,2.6l-1.5,1.3v0.1c0,0.1,0,0.1,0,0.1c0,0.5,0.4,0.8,1,1l-1.7,0.9
	c-0.1,0.1-0.2,0.3-0.2,0.6c0,0.7,0.2,1.2,0.5,1.7c0.3,0.4,0.7,0.7,1.3,1c0.6,0.2,1.2,0.4,1.9,0.4c1,0,1.9-0.2,2.6-0.7
	c0.8-0.6,1.3-1.4,1.3-2.3c0-0.9-0.4-1.5-1.3-1.9c-0.4-0.2-1-0.3-1.8-0.4c-0.8-0.1-1.4-0.2-1.7-0.4c-0.2-0.1-0.3-0.2-0.3-0.4
	c0-0.2,0.2-0.4,0.5-0.6h0.6c0.9,0,1.7-0.3,2.2-0.8c0.6-0.5,0.9-1.2,0.9-2c0-0.7-0.2-1.3-0.7-1.9h1.7L118.6,8.3L118.6,8.3z M113.1,16
	l1.6,0.3c0.4,0.1,0.7,0.1,1,0.2c0.7,0.2,1.1,0.7,1.1,1.4c0,0.5-0.2,1-0.7,1.4c-0.5,0.4-1,0.5-1.8,0.5s-1.3-0.2-1.8-0.6
	c-0.5-0.4-0.7-0.9-0.7-1.5c0-0.4,0.1-0.7,0.3-0.9C112.3,16.6,112.6,16.3,113.1,16L113.1,16z M114.3,13.1c-0.5,0-0.9-0.2-1.2-0.7
	c-0.3-0.5-0.5-1.1-0.5-1.8c0-0.6,0.1-1.1,0.4-1.5c0.3-0.4,0.7-0.5,1.2-0.5c0.5,0,0.8,0.2,1.1,0.7c0.3,0.4,0.4,1.1,0.4,1.8
	C115.7,12.4,115.2,13.1,114.3,13.1L114.3,13.1z"/>
<path class="st0" d="M17,15.8c1.8-1.6,2.6-5.2,0.4-8.7c-2-3.3-6.8-6.5-7-6.6L9.7,0L9.1,0.5c-0.2,0.1-5,3.3-7,6.6
	c-2.2,3.6-1.5,7.1,0.4,8.7c1.1,1,2.6,1.1,3.8,1.1c-0.1,0.2-0.2,0.4-0.4,0.6c-0.7,0.7-1.9,1.1-3.5,1.1v1c2,0,3.4-0.5,4.3-1.5
	c0.8-0.8,0.9-1.9,0.9-2.3c-0.8,0.2-3.1,0.5-4.4-0.7C1.5,13.7,1,10.7,2.9,7.6c1.9-3.1,6.5-6.2,6.7-6.3l0.1-0.1l0.1,0.1
	c0.2,0.1,4.8,3.2,6.7,6.3c1.9,3.1,1.3,6.1-0.2,7.5c-1.3,1.2-3.6,0.9-4.4,0.7c0,0.5,0.2,1.5,0.9,2.3c0.9,1,2.3,1.5,4.3,1.5v-1
	c-1.7,0-2.9-0.4-3.5-1.1c-0.2-0.2-0.3-0.4-0.4-0.6C14.4,17,15.9,16.8,17,15.8z"/>
</svg>
