<?xml version="1.0" encoding="utf-8"?>
<!-- Generator: Adobe Illustrator 27.9.0, SVG Export Plug-In . SVG Version: 6.00 Build 0)  -->
<svg version="1.1" id="Layer_1" xmlns="http://www.w3.org/2000/svg" xmlns:xlink="http://www.w3.org/1999/xlink" x="0px" y="0px"
	 viewBox="0 0 80 72" style="enable-background:new 0 0 80 72;" xml:space="preserve">
<style type="text/css">
	.st0{fill:#9D9D9D;}
</style>
<g>
	<g>
		<path class="st0" d="M43.6,30.9c-1.8-3-4.2-4.8-7.4-5.6c-6.5-1.5-13,3.3-13.7,10c-0.6,6.7,4.8,12.9,12.2,12.4
			c5.7-0.4,10.3-5.3,10.2-11.1c0-4.6,1.6-8.5,4.9-11.6c2.8-2.7,6.1-4.1,10.1-4.3c4.9-0.3,8.9,1.4,12.3,4.8c1.8,1.9,3.1,4.1,3.8,6.8
			c-0.3,0-0.5,0.1-0.7,0.1c-0.9,0-1.8,0-2.7,0c-0.9,0-1.4-0.3-1.8-1c-1.6-3.2-4.2-5.2-7.8-6c-6-1.3-12.2,2.8-13.3,8.9
			c-0.2,1.4-0.2,2.8-0.3,4.2c-0.6,5.3-3.3,9.3-7.8,11.9c-9.7,5.7-22-0.4-23.6-11.5c-1-7.2,2.9-14.2,9.6-17c6.1-2.5,13-1.1,17.6,3.7
			c0.6,0.6,0.8,1.2,0.3,2C44.8,28.5,44.2,29.6,43.6,30.9L43.6,30.9z"/>
		<path class="st0" d="M50.7,41.8c4.6,7.8,14.2,7.3,18.3,2.1h-4.6c0-1.4,0-2.7,0-4c0-0.3,0.5-0.8,0.8-0.8c3.6-0.1,7.3,0,11,0
			c-0.1,0.5-0.1,0.9-0.2,1.3c-1.7,5.9-5.4,9.9-11.3,11.5c-5.9,1.6-11.1,0-15.5-4.2c-1.1-1.1-1.1-1.2-0.4-2.6
			C49.5,44,50.1,42.9,50.7,41.8L50.7,41.8z"/>
		<path class="st0" d="M16,37.3c-0.7-0.5-1.4-0.8-1.9-1.2c-0.9-0.7-1.7-1.5-2.6-2.2C9,31.9,6.7,32,4.3,34c-0.6,0.5-1.1,1-1.6,1.4
			c1-3.8,4.4-6,7.7-5c0-2.3,0.2-4.6-1.1-6.6c-1-1.6-2.8-2-4.6-1.7c-1.1,0.1-2.2,0.3-3.3,0.5c0.7-1,3.3-2.4,5-2.7
			c0.8-0.1,1.6-0.2,2.3-0.1c2.4,0.3,3.6,1.8,3.8,4.4c0.1,1.6,0.2,3.3,0.5,4.9c0.3,1.8,1.2,3.3,2.7,4.5c0.2,0.2,0.3,0.5,0.3,0.8
			C16.1,35.3,16,36.2,16,37.3L16,37.3z"/>
		<path class="st0" d="M13,48.6c-1.4-1.5-2.9-2.7-4.7-3.5c-1.6-0.7-3.7-0.1-5,1.4c-0.8,1-1.6,2.1-2.4,3.2c-0.1-2.1,1-5.1,2.4-6.5
			c1.7-1.8,3.8-2.2,5.9-0.8c0.8,0.5,1.5,1.1,2.2,1.7c2.2,1.9,4.6,3.5,7.7,3c0.1,0,0.4,0.1,0.5,0.2c0.6,0.7,1.2,1.4,1.9,2.2
			c-0.7,0.1-1.4,0.3-2,0.4c-1.2,0.1-2.4,0.1-3.6,0.3c-2.8,0.5-4.4,2.2-4.6,5.1c-0.1,0.7,0,1.4,0,2.2C9.2,55,9.7,50,13,48.6L13,48.6z
			"/>
		<path class="st0" d="M20.6,24.3c-0.1-1-0.2-1.8-0.3-2.7c-0.1-1,0-2-0.2-3c-0.5-2.9-2.3-4.5-5.2-4.6c-0.6,0-1.2,0-2,0
			c2.9-1.9,7.5-1.3,9,1.9c1.7-1.5,3.4-3.1,4-5.3c0.5-1.7-0.3-3.1-1.6-4.2c-0.9-0.8-1.9-1.5-2.8-2.4c0.6,0.1,1.2,0.1,1.8,0.4
			c1.4,0.6,2.8,1,4,1.9c2.3,1.6,2.6,4.1,0.9,6.4c-0.6,0.8-1.4,1.5-2.1,2.3c-1.8,1.9-3.1,4-3,6.7c0,0.2-0.2,0.5-0.3,0.6
			C22.2,22.9,21.5,23.5,20.6,24.3L20.6,24.3z"/>
		<path class="st0" d="M33.3,18.4c0.6-0.7,1.1-1.3,1.6-1.9c0.6-0.8,1.3-1.5,1.9-2.3c1.4-2,1.4-3.8,0-5.8c-0.5-0.8-1.3-1.5-1.9-2.2
			c2.9,0.3,6.2,4.1,4.9,7.5c2.3,0.1,4.6,0,6.6-1.1c1.3-0.7,1.8-2.1,1.8-3.6c0-1.5-0.3-2.9-0.5-4.5c1.7,2.2,3.1,4.5,2.8,7.4
			c-0.2,1.9-1.3,3.1-3.3,3.5c-1.5,0.3-3,0.4-4.5,0.5c-2.2,0.2-4.1,0.9-5.7,2.4c-0.2,0.2-0.4,0.3-0.6,0.3
			C35.5,18.6,34.5,18.5,33.3,18.4L33.3,18.4z"/>
		<path class="st0" d="M19.3,68c-1.4-1.8-2.5-3.6-2.8-5.8c-0.3-2.9,1.3-5,4.1-5.3c1.5-0.2,3-0.2,4.5-0.3c1.8-0.2,3.5-0.9,4.8-2.2
			c0.2-0.2,0.5-0.3,0.7-0.3c1,0.1,2,0.2,3.2,0.3c-0.5,0.6-1,1.1-1.4,1.6c-0.7,0.8-1.4,1.5-2,2.3c-1.5,2.1-1.5,4,0,6.1
			c0.5,0.7,1.1,1.3,1.7,2c-3.4-0.7-6-4.5-4.9-7.4c0,0-0.1-0.1-0.1-0.1c-2.1-0.2-4.2,0-6.2,0.8c-1.4,0.6-2.4,2.7-2.2,4.3
			C18.9,65.4,19.1,66.6,19.3,68L19.3,68z"/>
		<path class="st0" d="M17.7,44.4c-1.6,0.1-2.9-0.5-4.1-1.4c-1.6-1.2-3.2-2.4-4.9-3.5c-2-1.3-4-0.9-5.6,0.8
			c-0.2,0.2-0.4,0.4-0.6,0.7c0.4-2.6,2.3-4.7,4.5-5.1c1.5-0.3,2.8,0.1,4,1c1.7,1.3,3.5,2.6,5.2,3.8c0.1,0.1,0.3,0.2,0.3,0.4
			C16.9,42.2,17.3,43.3,17.7,44.4L17.7,44.4z"/>
		<path class="st0" d="M8.5,17.5c1.4-0.3,2.7-0.7,4.1-0.9c2.3-0.4,4.7,1.8,4.9,4.6c0.1,2,0.5,3.9,0.7,5.9c0,0.2,0,0.4,0,0.6
			c-0.5,1-0.9,2.1-1.5,3.3c-0.4-0.8-1-1.4-1.2-2.1c-0.4-1.4-0.6-2.9-0.8-4.4c-0.2-1-0.2-2-0.4-3c-0.5-2.8-2.8-4.1-5.6-3.7
			C8.6,17.7,8.6,17.6,8.5,17.5L8.5,17.5z"/>
		<path class="st0" d="M27.3,53.2c-1.3,1.1-2.8,1.3-4.4,1.6c-1.5,0.2-3.1,0.4-4.6,0.7c-3,0.6-4.3,2.7-3.8,6
			c-0.8-1.9-1.6-3.5-1.2-5.4c0.4-2.1,2.3-3.6,4.4-3.8c2-0.2,3.9-0.5,5.9-0.7c0.2,0,0.5,0,0.6,0.1C25.2,52.1,26.2,52.7,27.3,53.2
			L27.3,53.2z"/>
		<path class="st0" d="M30.3,5.8c1,0.6,2.2,1.2,3.1,2c1.9,1.6,2.1,4.4,0.6,6.3c-1.2,1.5-2.5,3-3.8,4.5c-0.2,0.2-0.4,0.3-0.6,0.4
			c-1.2,0.4-2.4,0.8-3.8,1.2c0.3-0.7,0.4-1.4,0.8-1.9c1.1-1.6,2.3-3,3.5-4.6c0.8-1.1,1.7-2.1,1.9-3.6c0.1-1.7-0.6-3-1.9-4.1
			C30.2,6,30.2,5.9,30.3,5.8L30.3,5.8z"/>
		<path class="st0" d="M40,19.5c1.2-0.8,2.4-1,3.7-1.2c1.7-0.2,3.4-0.3,5.1-0.7c2.8-0.6,4.2-2.9,3.6-5.7c0.9,1.5,1.5,3.6,1.3,4.8
			c-0.4,2.5-2.4,4.1-5,4.3c-1.4,0.1-2.9,0.3-4.3,0.3c-0.4,0-0.8-0.1-1.1-0.2C42.1,20.6,41.1,20,40,19.5L40,19.5z"/>
		<path class="st0" d="M37,56.3c0.6,0,1.1,0.2,1.5,0.6c0.4,0.4,0.6,0.8,0.6,1.3c0,0.5-0.2,0.9-0.6,1.3C38.1,59.8,37.6,60,37,60
			s-1.1-0.2-1.5-0.6c-0.4-0.4-0.6-0.8-0.6-1.3s0.2-0.9,0.6-1.3C35.9,56.4,36.4,56.3,37,56.3L37,56.3z M37,59.2
			c0.3,0,0.6-0.1,0.8-0.3c0.2-0.2,0.3-0.5,0.3-0.8c0-0.3-0.1-0.6-0.3-0.8C37.6,57.1,37.4,57,37,57c-0.3,0-0.6,0.1-0.8,0.3
			s-0.3,0.5-0.3,0.8c0,0.3,0.1,0.6,0.3,0.8C36.4,59.1,36.7,59.2,37,59.2z"/>
		<path class="st0" d="M39.7,56.3h1.6c0.3,0,0.6,0.1,0.8,0.3c0.2,0.2,0.3,0.5,0.3,0.7c0,0.4-0.2,0.7-0.6,0.9
			c0.2,0.1,0.3,0.3,0.5,0.7c0.2,0.4,0.3,0.7,0.5,1h-1c-0.1-0.1-0.2-0.3-0.3-0.7c-0.1-0.3-0.3-0.6-0.4-0.7c-0.1-0.1-0.2-0.1-0.3-0.1
			h-0.3V60h-0.9V56.3L39.7,56.3z M40.5,57v0.8H41c0.1,0,0.3,0,0.4-0.1c0.1-0.1,0.1-0.2,0.1-0.3c0-0.3-0.2-0.4-0.5-0.4H40.5z"/>
		<path class="st0" d="M44.1,56.3V60h-0.9v-3.7H44.1z"/>
		<path class="st0" d="M47.5,59.3V60h-2.6v-3.7h2.6V57h-1.7v0.8h1.6v0.7h-1.6v0.9H47.5z"/>
		<path class="st0" d="M51.7,56.3V60H51L49,57.6V60h-0.9v-3.7h0.8l1.9,2.2v-2.2H51.7L51.7,56.3z"/>
		<path class="st0" d="M55.7,56.3V57h-1.3v3h-0.9v-3h-1.3v-0.7H55.7z"/>
		<path class="st0" d="M57.6,56.3l1.6,3.7h-0.9L58,59.2h-1.6L56.1,60h-0.9l1.4-3.7H57.6L57.6,56.3z M57.7,58.6l-0.6-1.4l-0.5,1.4
			H57.7z"/>
		<path class="st0" d="M62.3,59.3V60h-2.7v-3.7h0.9v3H62.3z"/>
		<path class="st0" d="M67.5,56.6v0.8c-0.4-0.2-0.9-0.3-1.3-0.3s-0.7,0.1-1,0.3c-0.2,0.2-0.3,0.5-0.3,0.8c0,0.3,0.1,0.6,0.3,0.8
			c0.2,0.2,0.5,0.3,0.9,0.3c0.2,0,0.4,0,0.6-0.1v-0.4h-0.5V58h1.4v1.5c-0.1,0.1-0.4,0.3-0.6,0.4C66.7,60,66.4,60,66.1,60
			c-0.6,0-1.1-0.2-1.5-0.5c-0.4-0.4-0.6-0.8-0.6-1.3c0-0.5,0.2-1,0.6-1.4c0.4-0.3,0.9-0.5,1.5-0.5C66.7,56.3,67.1,56.4,67.5,56.6
			L67.5,56.6z"/>
		<path class="st0" d="M70.4,56.3L72,60h-0.9l-0.3-0.7h-1.6L68.9,60H68l1.4-3.7H70.4L70.4,56.3z M70.5,58.6l-0.6-1.4l-0.5,1.4H70.5z
			"/>
		<path class="st0" d="M74.3,57.7l1.1-1.4h0.8V60h-0.9v-2.3l-0.9,1.1h-0.1l-0.9-1.1V60h-0.9v-3.7h0.8L74.3,57.7z"/>
		<path class="st0" d="M79.6,59.3V60H77v-3.7h2.6V57h-1.7v0.8h1.6v0.7h-1.6v0.9H79.6z"/>
	</g>
</g>
</svg>
