<?xml version="1.0" encoding="utf-8"?>
<!-- Generator: Adobe Illustrator 27.9.0, SVG Export Plug-In . SVG Version: 6.00 Build 0)  -->
<svg version="1.1" id="Layer_1" xmlns="http://www.w3.org/2000/svg" xmlns:xlink="http://www.w3.org/1999/xlink" x="0px" y="0px"
	 viewBox="0 0 100 72" style="enable-background:new 0 0 100 72;" xml:space="preserve">
<style type="text/css">
	.st0{fill:#9D9D9D;stroke:url(#SVGID_1_);stroke-width:0.5;stroke-miterlimit:10;}
	.st1{fill:#9D9D9D;}
</style>
<g>
	<g>
		
			<linearGradient id="SVGID_1_" gradientUnits="userSpaceOnUse" x1="2.7366" y1="43.3213" x2="97.1736" y2="43.3213" gradientTransform="matrix(1 0 0 -1 0 71.89)">
			<stop  offset="0" style="stop-color:#FFFEA0"/>
			<stop  offset="0.5" style="stop-color:#E6DCA5;stop-opacity:0"/>
			<stop  offset="1" style="stop-color:#FFFEA0"/>
		</linearGradient>
		<path class="st0" d="M23.2,49.2v-9.6h4.2v5.6c1.9,0.4,4.3-0.8,5.3-2.6c1.2-2.2,1.3-4.6,0.4-6.9c-0.8-2-2.5-3.1-4.6-3.3
			c-0.8-0.1-1.6-0.1-2.3-0.1c-5.2,0-10.4,0.1-15.6,0c-3-0.1-5.4-1.5-7-4c-0.2-0.4-0.3-0.9-0.6-1.4c2.6,1.2,5.3,1.3,8,1.4
			c5.1,0.1,10.3,0.1,15.4,0.2c1.6,0,3.2,0.2,4.8,0.3c-1.1-4.9-1.2-9.9-0.8-15c1.2-0.1,2.4-0.1,3.5-0.2c4.5-0.4,8.9-1.3,12.7-3.9
			c1.3-0.9,2.4-1.9,3.3-3.2c0.1-0.1,0.2-0.2,0.3-0.3c0.6,0.7,1.1,1.4,1.7,2c2.2,2.2,5,3.5,8,4.3c3.1,0.9,6.4,1.3,9.6,1.2
			c0.5,0,0.6,0.2,0.6,0.6C70,17.2,70,20.1,69.8,23c-0.1,1.9-0.5,3.8-0.8,5.7c0,0.1,0,0.1,0,0.1c3.2-0.6,6.4-0.3,9.6-0.4
			c4.3-0.1,8.6-0.2,12.9-0.3c0.9,0,1.9-0.1,2.8-0.3c0.9-0.2,1.7-0.5,2.7-0.8c-0.1,0.9-0.6,1.6-1.1,2.2c-1.4,1.6-3.3,2.5-5.4,3.1
			c-0.3,0.1-0.7,0.1-1.1,0.1c-5.4,0-10.8,0-16.1,0c-0.9,0-1.8,0.1-2.6,0.3c-1.9,0.5-3.3,1.7-3.8,3.7c-0.6,2.1-0.5,4.2,0.5,6.1
			c1,1.9,2.7,2.7,4.7,2.8c0.5,0,0.6-0.1,0.6-0.6c0-1.7,0-3.3,0-5.1h4.2v9.6c-1.5,0-3,0-4.5,0c-4.3,0-7.4-2.1-9-6.1
			c-0.1-0.2-0.2-0.3-0.3-0.6c-0.2,0.2-0.4,0.4-0.5,0.6c-1.9,2.5-4.2,4.7-7,6.1c-1.5,0.7-3.1,1.2-4.7,1.7c-1.4,0.4-2.7-0.2-4-0.7
			c-3.9-1.4-7-3.8-9.4-7.2c-0.1-0.1-0.2-0.2-0.3-0.3c-0.1,0.1-0.3,0.3-0.3,0.4c-1,2.8-3,4.7-5.8,5.7c-0.6,0.2-1.3,0.4-2,0.4
			c-1.7,0.1-3.4,0-5.1,0C23.7,49.3,23.5,49.3,23.2,49.2L23.2,49.2z M66.8,17.1c-0.8,0-1.5,0.1-2.2,0c-4.8-0.5-9.2-2.2-13.1-5
			c-1.2-0.9-1.2-0.9-2.4-0.1c-4.4,3.2-9.4,4.5-14.7,5.3c-1,0.1-1,0.1-1,1.1c0,3.5,0.4,6.9,1.3,10.3c0.9,3.6,2.3,7.1,4.1,10.3
			c0.3,0.5,0.5,0.5,1,0.3c0.9-0.5,1.8-0.9,2.8-1.2c3.1-1.2,6.2-2.3,9.4-3.5c1-0.4,1.9-0.9,2.5-1.8c0.8-1,0.9-2.1,0.8-3.4
			c-0.2-1.9-1.5-3.2-3.4-3.2c-0.3,0-0.7,0.1-1,0.3c-0.1,0.1,0.1,0.6,0.2,0.9c-0.4,0.3-1.1,0.5-1.3,0.9c-0.2,0.4,0,1.1,0,1.7
			c-0.5,0-1.2,0-1.8,0c-0.2,0-0.3,0.1-0.5,0.1c-0.2,0.1-0.5,0.2-0.7,0.3c-0.9,0.2-1.8,0.2-2.7,0.5c-0.7,0.2-1,0.9-0.9,1.8
			c0.1,0.6,0.5,1.1,1.2,1.3c0.2,0.1,0.4,0.1,0.6,0.2c-0.2,0.2-0.4,0.3-0.6,0.3c-1.7,0.2-3.3-0.1-4.6-1.3c-0.4-0.4-0.8-0.7-1.3-0.5
			c-0.4-1.6,0.3-4,1-4.4c0.3,0.3,0.6,0.7,0.8,0.6c0.3-0.1,0.7-0.4,0.9-0.7c0.5-0.7,0.9-1.5,1.3-2.3c0.1-0.2,0.1-0.4,0.2-0.6
			c-0.4,0-0.7-0.1-1-0.1c0-0.1,0-0.1,0-0.2c0.3-0.2,0.6-0.3,0.8-0.5c0,0,0-0.1,0-0.1c-1-0.1-2-0.2-3-0.3c0-0.1,0-0.2,0-0.2
			c1.2-0.1,2.5-0.2,3.7-0.3c0.8,0,0.9-0.2,0.7-1c-0.2-0.7-0.3-1.4-0.2-2.1c0.3-1.5,1.5-2.3,2.8-2.8c1.9-0.8,3.9-0.8,5.9-0.8
			c0.2,0,0.3,0.1,0.5,0.1c-1,0.1-1.9,0.2-2.8,0.4c-1.1,0.2-2.3,0.3-3.3,1c-0.6,0.4-1.1,1.4-1,1.9c0.4-0.4,0.9-0.7,1.4-1.2
			c0.1,0.4,0.2,0.6,0.2,0.9c0.4-0.4,0.8-0.7,1.2-1c0.1,0.4,0.1,0.7,0.1,1c0.1-0.1,0.2-0.1,0.2-0.2c0.5-1.7,1.8-2.1,3.2-2.3
			c2.1-0.2,4.2,0.2,6.2,0.7c0.7,0.2,1.4,0.5,2.1,0.6c0.9,0.2,1.7-0.1,2.4-0.7c0.2,0.7-0.1,1-0.6,1.2c-0.9,0.4-1.9,0.4-2.9,0.1
			c-2-0.7-4-1-6.1-0.8c-0.6,0.1-1.3,0.3-1.9,0.5c-0.4,0.2-0.6,0.6-1,1c1.4,0,2.7-0.2,3.9,0.1c1.2,0.2,2.4,0.8,3.5,1.4
			c1.1,0.6,2,1.4,2.6,2.6c-0.5-0.1-0.9-0.2-1.4-0.3c1,2.1,2.9,2.6,4.8,3.3c-1.2,0.7-2.3,0.3-3.2,0.2c0.2,1.3,0.5,2.5,0.4,3.7
			c-0.1,1.9-1,3.5-2.2,5c-1.6,2-3.8,3.2-6.2,4c-0.5,0.2-1.1,0.3-1.6,0.5c1.1,0.3,2.2,0.4,3,1.3c-3.7-0.2-7.2,0.4-10.1,2.9
			c1.1,1,2.4,1.6,3.7,2.1c1,0.3,1.9,0.6,3,0.3c2.1-0.6,3.9-1.5,5.6-2.8c3-2.4,5.1-5.5,6.6-9c2.3-5.3,3.2-10.8,3.7-16.5
			C66.9,18.6,66.8,17.9,66.8,17.1L66.8,17.1z M26.6,34c-5.2,0-10.4,0-15.6,0c-0.7,0-1.5-0.1-2.2-0.3c-0.9-0.2-1.7-0.6-2.6-0.9
			c0.2,1,0.7,1.9,1.4,2.6c1.8,1.9,4.1,2.8,6.7,2.8c4.1,0,8.2,0,12.3,0c0.2,0,0.4,0,0.6,0V34C27,34,26.8,34,26.6,34L26.6,34z
			 M93.1,33c-1.2,0.6-2.4,1-3.7,1c-5.2,0-10.5,0-15.7,0c-0.2,0-0.4,0-0.6,0c-0.2,0.1-0.4,0.2-0.4,0.4c0,1.2,0,2.4,0,3.7
			c0.3,0,0.5,0,0.7,0c4,0,7.9,0,11.9,0c2.1,0,4-0.6,5.8-1.7c1.4-0.9,2.3-2.1,2.8-3.8C93.5,32.8,93.3,32.9,93.1,33L93.1,33z
			 M89.9,38.8c-1,0.6-2.2,0.8-3.3,0.9c-2.4,0.1-4.9,0-7.3,0c-0.2,0-0.5,0-0.7,0c0,1.3,0,2.4,0,3.6c0,0.4,0.2,0.5,0.5,0.5
			c1.2,0,2.4-0.1,3.6,0c2.1,0.1,3.9-0.7,5.6-1.8c1.1-0.8,2.1-1.8,2.2-3.4C90.2,38.6,90,38.7,89.9,38.8L89.9,38.8z M15.2,39.6
			c-1.5,0-2.9-0.1-4.3-0.5c-0.4-0.2-0.9-0.4-1.3-0.6c0,0-0.1,0.1-0.1,0.1c0.2,0.5,0.4,1.1,0.7,1.6c1.2,1.9,3,2.9,5,3.3
			c2,0.4,4.2,0.2,6.3,0.3v-4.2C19.4,39.6,17.3,39.6,15.2,39.6L15.2,39.6z M21.6,49.2v-3.8c-3-0.1-6,0.5-8.8-1.4
			C14.1,48.3,17.3,49.8,21.6,49.2L21.6,49.2z M78.5,49.2c5,0.6,7.8-1.7,8.8-5.3c-2.7,1.9-5.7,1.3-8.8,1.4V49.2z"/>
		<path class="st1" d="M1,65.7c0.6-0.2,0.7-0.7,0.7-1.2c0-2.4,0-4.7,0-7.1c0-0.7-0.4-0.9-0.9-1c0.1,0,0.2-0.1,0.3-0.1
			c1.6,0,3.1,0,4.7,0.1c2.9,0.3,4.5,2.2,4.2,5.3c-0.4,3.3-3.3,4.5-5.9,4.2C3,65.8,2,65.8,1,65.7L1,65.7z M2.8,60.7
			C2.8,60.7,2.8,60.7,2.8,60.7c0.1,1.3,0.1,2.5,0.1,3.8c0,0.5,0.2,0.8,0.8,0.9c0.6,0,1.2,0.1,1.7,0.1c1.6,0,2.8-1,3.3-2.4
			c0.8-2.2-0.1-4.9-2.4-5.7c-0.8-0.3-1.8-0.3-2.7-0.4C3,56.8,2.7,57,2.8,57.6C2.8,58.7,2.8,59.7,2.8,60.7L2.8,60.7z M36.5,57.5
			c-0.1,0.4-0.2,0.5-0.3,0.6c-0.2,1.7-0.3,3.4-0.6,5c-0.1,0.9,0.2,2-0.9,2.6h2.1c-0.6-0.2-0.6-0.6-0.6-1.1c0.1-0.8,0.1-1.6,0.2-2.3
			c0.1-0.7,0.1-1.3,0.2-2c0.2,0.1,0.3,0.2,0.4,0.3c0.8,1.5,1.5,3.1,2.3,4.6c0.1,0.2,0.3,0.3,0.4,0.4c0.1-0.1,0.3-0.3,0.3-0.4
			c0.7-1.4,1.3-2.7,2-4.1c0.2-0.4,0.4-0.8,0.6-1.2c0.1,0,0.1,0,0.2,0c0.2,1.9,0.3,3.7,0.5,5.7h2.1c-1.2-0.5-1.2-0.6-1.3-1.7
			c-0.1-1.3-0.3-2.7-0.4-4c-0.1-0.8-0.2-1.6-0.3-2.4c-0.1,0-0.1,0-0.2,0c-1,2.2-2.1,4.3-3.2,6.7C38.7,62,37.6,59.8,36.5,57.5
			L36.5,57.5z M66.5,57.7c0,0.2-0.1,0.3-0.1,0.5c-0.2,1.7-0.3,3.4-0.6,5.1c-0.1,0.9,0.3,1.9-0.9,2.5h2c-0.2-0.3-0.6-0.6-0.6-0.8
			c0.1-1.6,0.3-3.1,0.5-4.8c0.1,0.2,0.2,0.2,0.2,0.3c0.8,1.6,1.6,3.2,2.5,4.8c0.1,0.2,0.2,0.3,0.3,0.4c0.1-0.1,0.3-0.2,0.4-0.4
			c0.6-1.2,1.2-2.5,1.8-3.7c0.2-0.5,0.5-1,0.7-1.5c0.1,0,0.1,0,0.2,0c0.2,1.8,0.3,3.7,0.5,5.6h2.1c-1.1,0-1.2-0.9-1.3-1.6
			c-0.2-1.3-0.3-2.6-0.4-3.9c-0.1-0.9-0.2-1.7-0.3-2.6c-0.1,0-0.1,0-0.2,0c-1.1,2.2-2.1,4.4-3.3,6.7c-1.2-2.3-2.3-4.5-3.3-6.7
			C66.7,57.6,66.6,57.6,66.5,57.7L66.5,57.7z M52.9,61.4c0.6,0.1,0.7,0.5,0.7,1c0,0.7,0,1.4,0,2.1c0,0.5-0.2,0.8-0.7,0.9
			c-1,0.2-2.1,0.1-3-0.3c-1.4-0.8-2.3-2-2.5-3.6c-0.2-1.8,0.4-3.4,1.6-4.1c1.3-0.7,2.7-0.7,4.1-0.2c0.7,0.2,1.1,0.8,1.3,1.5
			c0.1-0.6,0.2-1.1,0.2-1.6c0-0.1-0.2-0.3-0.3-0.3c-1.5-0.1-3-0.4-4.4-0.1c-1.8,0.3-3,1.5-3.5,3.2c-0.5,1.9-0.1,3.7,1.3,5
			c1.8,1.6,4,1.6,6.2,1c0.4-0.1,0.6-0.3,0.5-0.8c-0.1-0.5,0-1.1,0-1.6c0-0.7-0.2-1.6,0.7-2.1h-2.8C52.7,61.2,52.8,61.3,52.9,61.4
			L52.9,61.4z M89.2,65.8c0-2.1,0-4.3,0-6.4c0-0.6-0.1-1.2,0.7-1.6h-2.1c0,0.1-0.1,0.1-0.1,0.2c0.1,0,0.2,0.1,0.3,0.1
			c0.7,0.1,0.7,0.5,0.7,1.1c0,0.9,0,1.9,0.1,2.8c0,0.7,0,1.4,0,2.3c-2.1-2.3-4.2-4.4-6.3-6.6c-0.1,0-0.1,0.1-0.2,0.1
			c0,0.2,0,0.4,0,0.6c0,2,0,3.9,0,5.9c0,0.6,0,1.2-0.7,1.5h2.3c-1.1-0.3-0.9-1.2-1-1.9c0-1.1,0-2.3,0-3.4c0-0.3,0-0.5,0-1
			c2.1,2.4,4.1,4.5,6.3,6.5C89.1,65.9,89.1,65.8,89.2,65.8L89.2,65.8z M13.7,62.5c0,0.8-0.1,1.6,0,2.5c0,0.3,0.5,0.6,0.8,0.9
			c-0.3,0-0.7-0.1-1.1-0.1c-0.4,0-0.8,0-1.4,0.1c1-0.7,0.7-1.7,0.7-2.5c0.1-1.3,0-2.7,0-4c0-0.6,0.1-1.3-0.7-1.4
			c1.3,0,2.5-0.1,3.8,0c1.6,0.2,2.1,2.1,1,3.4c-0.5,0.5-0.5,1.1,0,1.7c0.4,0.5,0.7,0.9,1.1,1.3c0.6,0.5,1.2,1,1.7,1.4
			c-1.1,0.3-1.9,0-2.8-1.1c-0.4-0.5-0.8-1.1-1.2-1.6C15.1,62.3,14.6,62.2,13.7,62.5L13.7,62.5z M13.7,61.9c0.8,0,1.7,0.5,2.3-0.3
			c0.5-0.7,0.5-1.8,0-2.6c-0.5-0.7-1.2-1-2.3-0.7V61.9L13.7,61.9z M95.3,57.6c-1.8,0-3.3,1.1-3.8,2.8c-0.5,1.7,0.1,3.7,1.1,4.4
			c1.6,1.1,3.3,1.4,5.2,0.9c0.5-0.2,0.8-0.4,0.7-1c-0.1-0.5,0-1,0-1.6c0-0.5-0.1-1.1,0.6-1.3h-2.4c0.9,0.3,0.7,1,0.7,1.6
			c0,0.3,0,0.6,0,0.9c0,0.8-0.1,1-1,1c-2.3,0.2-4.1-1.3-4.3-3.6c-0.1-1.3,0.1-2.6,1.4-3.3c1.1-0.6,2.2-0.5,3.3-0.2
			c0.6,0.1,1.1,0.5,1.2,1.3c0,0,0.1,0.1,0.2,0.2v-1.8C97.4,57.8,96.3,57.7,95.3,57.6L95.3,57.6z M60.1,57.5c0.2,0.5,0.4,0.9,0.6,1.3
			c0.7,1.8,1.5,3.7,2.2,5.5c0.3,0.6,0.6,1.2,1.4,1.3c0,0.1,0,0.1,0,0.2c-0.6,0-1.3-0.1-1.9-0.1c-0.1,0-0.1-0.2-0.2-0.3
			c-0.1-0.3-0.1-0.5-0.2-0.8c-0.5-1.3-1.5-1.9-3-1.8c-0.2,0-0.4,0.2-0.4,0.3c-0.2,0.5-0.4,1.1-0.6,1.6c-0.2,0.4-0.2,0.8,0.3,1h-2.2
			c0.9-0.2,1.1-0.9,1.4-1.6c0.8-2.1,1.6-4.2,2.4-6.3C59.8,57.8,59.9,57.7,60.1,57.5L60.1,57.5z M58.8,62.4H61c-0.4-1-0.7-2-1.1-2.9
			c-0.1,0-0.1,0-0.2,0C59.5,60.4,59.1,61.4,58.8,62.4z M34,65.8c-0.5,0-1.1,0-1.6,0c-0.3,0-0.4-0.1-0.5-0.5
			c-0.2-0.8-0.5-1.5-0.8-2.3c0-0.1-0.3-0.2-0.4-0.2c-0.7,0-1.6-0.2-2.1,0.1c-0.5,0.3-0.6,1.3-0.8,2c-0.1,0.2,0.2,0.5,0.3,0.8h-2.2
			c0.1-0.1,0.2-0.2,0.2-0.2c0.6-0.1,0.9-0.5,1-0.9c0.8-2.3,1.7-4.5,2.5-6.8c0-0.1,0.1-0.2,0.3-0.4c0.4,0.8,0.7,1.6,1,2.3
			c0.6,1.5,1.2,3,1.8,4.4c0.3,0.7,0.6,1.3,1.4,1.4C34.1,65.7,34,65.8,34,65.8L34,65.8z M30.9,62.4c-0.4-1-0.7-1.9-1.1-2.9
			c-0.1,0-0.1,0-0.2,0c-0.3,0.9-0.6,1.8-1,2.8H30.9z M25,64.3c-0.2,1.1-0.9,1.1-1.7,1c-0.1,0-0.2,0-0.3,0c-0.7,0.1-0.8-0.4-0.9-0.9
			c0-0.8,0-1.5,0-2.3c0-0.2,0.2-0.4,0.3-0.4c0.8,0.1,1.7-0.3,2.2,0.9v-1.4c-0.7,0.1-1.3,0.1-2,0.2c-0.4,0-0.6-0.2-0.6-0.5
			c0-0.7,0-1.4,0-2.1c0-0.4,0.2-0.5,0.5-0.5c0.8,0,1.6-0.3,2.2,0.6c0-0.4,0-0.8,0.1-1.2h-4.4c0.8,0.4,0.7,1.1,0.7,1.8
			c0,1.6,0,3.1,0,4.7c0,0.6,0,1.2-0.6,1.6c0.4,0,0.8-0.1,1.2-0.1c0.9,0,1.9,0.1,2.8,0.1c0.1,0,0.4-0.1,0.4-0.2
			c0.1-0.4,0.2-0.8,0.3-1.2C25.1,64.4,25,64.4,25,64.3L25,64.3z M77.7,59.4c0,1.5,0,2.9,0,4.4c0,0.7,0.1,1.5-0.8,2h2.6
			c0.1-0.1,0.1-0.1,0.2-0.2c-1,0-1-0.6-1-1.2c0-0.1,0-0.3,0-0.4c0-1.6,0-3.1,0-4.7c0-0.6-0.1-1.2,0.5-1.5h-2.3
			C77.7,58.2,77.7,58.7,77.7,59.4L77.7,59.4z"/>
	</g>
</g>
</svg>
