<?xml version="1.0" encoding="utf-8"?>
<!-- Generator: Adobe Illustrator 27.9.0, SVG Export Plug-In . SVG Version: 6.00 Build 0)  -->
<svg version="1.1" id="Layer_1" xmlns="http://www.w3.org/2000/svg" xmlns:xlink="http://www.w3.org/1999/xlink" x="0px" y="0px"
	 viewBox="0 0 80 27" style="enable-background:new 0 0 80 27;" xml:space="preserve">
<style type="text/css">
	.st0{fill:#9D9D9D;}
</style>
<path class="st0" d="M49.7,20.6h-1.7c0.1-0.3,0.2-0.7,0.3-1c0-0.1,0.2-0.1,0.2-0.1c0.9,0,1.9,0,2.8,0c-0.1,0.2-0.1,0.4-0.1,0.5
	c-0.2,0.7-0.4,1.3-0.6,2c-0.1,0.2-0.2,0.4-0.3,0.4c-1.1,0.5-2.2,0.8-3.4,0.6c-1.3-0.2-2-0.9-2-2.2c-0.1-2.1,1.5-4,3.5-4.4
	c0.7-0.1,1.5-0.1,2.2,0.2c0.7,0.3,1.1,0.9,1.2,1.8c-0.5,0.1-0.9,0.1-1.3,0.1c-0.6-1.3-2.1-1.5-3.3-0.4c-0.7,0.7-1,1.7-1,2.7
	c0,0.7,0.5,1.1,1.3,1.1c0.6,0,1.1-0.1,1.6-0.4c0.3-0.1,0.4-0.6,0.5-0.9C49.8,20.7,49.8,20.6,49.7,20.6L49.7,20.6z M60.9,22.9
	c0.3,0,0.4-0.1,0.5-0.4c0.3-0.8,0.5-1.7,0.8-2.5c0.2-0.5,0.5-0.9,1.1-1c0.5-0.1,0.7,0.1,0.6,0.6c-0.2,0.8-0.5,1.6-0.8,2.4
	c-0.1,0.3-0.2,0.5-0.3,0.9c0.4,0,0.8,0,1.1,0c0.1,0,0.3-0.1,0.3-0.2c0.4-1.1,0.7-2.1,1-3.2c0.2-0.8-0.2-1.3-1-1.3
	c-0.7,0-1.3,0.3-1.9,0.7c-0.5-0.9-1.1-1-2.8-0.2c0-0.1,0.1-0.3,0.1-0.4c-0.3,0-0.6,0-1,0c-0.2,0-0.3,0.1-0.4,0.3
	c-0.3,0.8-0.5,1.6-0.8,2.5c-0.2,0.6-0.4,1.2-0.6,1.9c0.4,0,0.7,0,1,0c0.3,0,0.4-0.1,0.5-0.3c0.2-0.8,0.5-1.5,0.7-2.3
	c0.2-0.5,0.4-0.9,1-1.1c0.2-0.1,0.5-0.1,0.7,0c0.1,0.1,0.1,0.4,0.1,0.6c0,0.1-0.1,0.3-0.1,0.4c-0.3,0.9-0.6,1.8-0.9,2.7
	C60.3,22.9,60.6,22.9,60.9,22.9z M74.9,24.8c0.2,0,0.3,0.1,0.5,0.1c2.1,0.2,2.8-0.5,3.2-1.9c0.5-1.5,1-2.9,1.4-4.4
	c0-0.1,0-0.2,0-0.3c-0.6,0.1-1.3-0.3-1.4,0.7c-0.9-1-1.9-1.1-2.9-0.3c-1,0.8-1.3,1.8-1.2,3c0.1,0.9,0.7,1.4,1.6,1.3
	c0.4,0,0.9-0.2,1.4-0.4c-0.1,0.3-0.2,0.6-0.4,0.9c-0.2,0.3-0.6,0.4-1,0.4c-0.3,0-0.6-0.1-0.7-0.5c0,0-0.1-0.1-0.2-0.1
	c-0.4-0.1-0.8-0.1-1.2-0.2C73.8,24.1,74.1,24.5,74.9,24.8z M76.5,19.4c0.3-0.3,0.7-0.4,1.1-0.2c0.3,0.2,0.5,0.6,0.5,1
	c-0.1,0.7-0.4,1.3-1,1.7c-0.7,0.4-1.3,0-1.3-0.9C75.8,20.4,76,19.8,76.5,19.4L76.5,19.4z M50.6,8.5c-0.1,0-0.3,0.1-0.4,0.2
	c-1.4,2-2.8,3.9-4.1,5.9c-0.1,0.1-0.1,0.2-0.2,0.3c0.4,0,0.7,0,1.1,0c0.2,0,0.4-0.1,0.5-0.3c0.3-0.3,0.4-0.6,0.7-1
	c0.1-0.1,0.2-0.2,0.3-0.2c0.8,0,1.7,0,2.6,0c0,0.5,0.1,1,0.1,1.4h1.3c-0.2-2.2-0.3-4.3-0.5-6.4C51.5,8.4,51,8.4,50.6,8.5L50.6,8.5z
	 M50.9,12.4h-2c0.6-0.9,1.2-1.6,1.8-2.4l0.1,0C50.9,10.8,50.9,11.6,50.9,12.4z M65.4,14.9c0.2-0.7,0.3-1.3,0.5-2
	c0.1-0.4,0.3-0.9,0.4-1.3c0.2-0.7-0.2-1.3-0.9-1.4c-0.6-0.1-1.2-0.1-1.7,0c-0.7,0.1-1.2,0.5-1.5,1.2c0.3,0,0.6,0.1,0.9,0.1
	c0.2,0,0.4,0,0.5-0.2c0.3-0.3,0.7-0.4,1-0.2c0.1,0,0.3,0.3,0.3,0.4c0,0.2-0.1,0.5-0.4,0.5c-0.2,0-0.4,0-0.6,0.1
	c-0.6,0.1-1.2,0.1-1.8,0.3c-0.7,0.3-1.1,1.2-0.8,1.8c0.2,0.6,0.9,0.9,1.7,0.7c0.3-0.1,0.7-0.3,1-0.4c0,0.1,0.1,0.2,0.1,0.4
	L65.4,14.9L65.4,14.9z M63.5,14c-0.3,0.1-0.6,0-0.7-0.3c-0.1-0.3,0.1-0.6,0.5-0.7c0.4-0.1,0.9-0.2,1.4-0.3
	C64.5,13.4,64.2,13.9,63.5,14L63.5,14z M53.6,19.6c0.2,0,0.4,0,0.5-0.2c0.2-0.3,0.6-0.4,0.9-0.3c0.2,0.1,0.4,0.3,0.4,0.4
	c0,0.3-0.1,0.5-0.4,0.5c-0.5,0-1,0.1-1.4,0.2c-0.5,0.1-1,0.2-1.4,0.6c-0.4,0.5-0.5,1.2-0.2,1.7c0.3,0.5,0.8,0.7,1.4,0.5
	c0.4-0.1,0.7-0.3,1.1-0.5c0,0,0.1,0,0.1,0c0,0.1,0,0.2,0.1,0.4h1.2c0.1-0.5,0.2-1,0.3-1.5c0.2-0.6,0.4-1.1,0.5-1.7
	c0.2-0.7-0.1-1.2-0.8-1.4c-0.8-0.2-1.5-0.2-2.3,0.1c-0.5,0.2-0.8,0.5-1.1,1.1C53,19.5,53.3,19.5,53.6,19.6L53.6,19.6z M53.8,22.1
	c-0.3,0-0.6,0-0.7-0.4c-0.1-0.3,0.1-0.5,0.4-0.6c0.5-0.1,1-0.2,1.5-0.4C54.9,21.6,54.5,22,53.8,22.1z M72.5,22.9
	c0.1,0,0.2-0.1,0.3-0.2c0.1-0.3,0.2-0.7,0.3-1c0.2-0.7,0.5-1.5,0.7-2.2c0.2-0.8-0.3-1.3-1-1.3c-0.5,0-1,0.2-1.5,0.4
	c-0.1,0-0.3,0.1-0.4,0.2c0-0.2,0.1-0.3,0.1-0.5h-1.3c-0.5,1.5-1,3.1-1.5,4.7c0.4,0,0.7,0,1,0c0.3,0,0.4-0.1,0.4-0.3
	c0.2-0.8,0.5-1.5,0.8-2.3c0.2-0.6,0.7-1,1.3-1.2c0.5-0.1,0.8,0.2,0.7,0.7c-0.1,0.3-0.2,0.5-0.3,0.8c-0.2,0.8-0.5,1.6-0.8,2.4
	C71.8,22.9,72.2,23,72.5,22.9L72.5,22.9z M53.3,13.8c0.2,0.3,0.3,0.5,0.5,0.7c0.9,0.7,2.8,0.6,3.6-0.2c0.9-0.8,0.7-1.8-0.4-2.2
	c-0.4-0.2-0.8-0.3-1.3-0.4c-0.1,0-0.3-0.2-0.3-0.3c0-0.1,0.1-0.3,0.3-0.4c0.4-0.3,1.1-0.1,1.5,0.3c0.1,0.1,0.1,0.1,0.2,0.1
	c0.4,0,0.7-0.1,1.1-0.2c-0.1-0.5-0.3-0.9-0.7-1c-1-0.4-2-0.3-3,0.3c-0.4,0.3-0.7,0.7-0.6,1.3c0,0.5,0.4,0.8,0.8,0.9
	c0.4,0.2,0.9,0.3,1.3,0.5c0.3,0.1,0.4,0.4,0.1,0.6c-0.5,0.4-1.4,0.3-1.8-0.3c-0.1-0.1-0.2-0.2-0.3-0.2c-0.3,0-0.7,0.1-1,0.2
	C53.3,13.7,53.3,13.8,53.3,13.8L53.3,13.8z M67.3,18.3c-0.2,0-0.4,0.1-0.4,0.3c-0.3,1-0.6,2-1,3c-0.1,0.4-0.3,0.9-0.4,1.3
	c0.4,0,0.7,0,1,0c0.2,0,0.4-0.1,0.4-0.3c0.3-0.9,0.6-1.7,0.8-2.6c0.2-0.6,0.4-1.2,0.6-1.8C68,18.3,67.7,18.3,67.3,18.3L67.3,18.3z
	 M60.4,10.2c-0.3,0-0.4,0.1-0.4,0.3c-0.3,0.8-0.5,1.7-0.8,2.5c-0.2,0.6-0.4,1.2-0.6,1.9c0.4,0,0.7,0,1.1,0c0.1,0,0.3-0.1,0.4-0.3
	c0.2-0.5,0.3-1,0.5-1.4c0.3-1,0.6-1.9,1-3C61.1,10.2,60.7,10.2,60.4,10.2L60.4,10.2z M68.4,17.6c0.1,0,0.2-0.1,0.2-0.1
	c0.1-0.3,0.2-0.6,0.3-1c-0.9-0.1-1.5,0.3-1.7,1c0,0,0,0.1,0,0.2C67.7,17.6,68,17.6,68.4,17.6L68.4,17.6z M60.9,8.5
	c-0.1,0-0.2,0.1-0.2,0.1c-0.1,0.3-0.2,0.6-0.3,1c0.4,0,0.8,0,1.1,0c0.1,0,0.2-0.1,0.2-0.2c0.1-0.3,0.2-0.6,0.3-1
	C61.6,8.5,61.2,8.4,60.9,8.5z M27.1,3.1l-3.4,8.7l-0.6,8.5L23,26.1H0l4.1-23H27.1z M22.4,23L15.2,5.1L1.8,23H5l4-5.4h8.1l2.1,5.4
	H22.4z M11,14.9h5.1l-1.7-4.5L11,14.9z M46.3,0l-4.1,23h-23l4.1-23H46.3z M27,12c0.2-2.6,3.5-6.2,6.9-6.2s4.6,2.9,4.6,2.9h2.8
	c-0.1-1.3-1.8-5.6-6.9-5.6s-8.9,4.1-9.9,8c-1.1,3.9,1.1,9,6.9,9s8.9-5.5,8.9-5.5l0.4-2.7h-7.8l-0.5,2.7h4.8c0,0-2.5,2.8-5.6,2.8
	C28.9,17.4,26.7,14.9,27,12z"/>
</svg>
