<?xml version="1.0" encoding="utf-8"?>
<!-- Generator: Adobe Illustrator 27.9.0, SVG Export Plug-In . SVG Version: 6.00 Build 0)  -->
<svg version="1.1" id="Layer_1" xmlns="http://www.w3.org/2000/svg" xmlns:xlink="http://www.w3.org/1999/xlink" x="0px" y="0px"
	 viewBox="0 0 136 48" style="enable-background:new 0 0 136 48;" xml:space="preserve">
<style type="text/css">
	.st0{fill:#9D9D9D;}
</style>
<g>
	<g>
		<path class="st0" d="M40.2,25.5c0.8,0,1.5-0.7,1.5-1.5c0-0.8-0.7-1.5-1.5-1.5c-0.8,0-1.5,0.7-1.5,1.5
			C38.7,24.8,39.4,25.5,40.2,25.5z"/>
		<path class="st0" d="M40.2,25.5c0.8,0,1.5-0.7,1.5-1.5c0-0.8-0.7-1.5-1.5-1.5c-0.8,0-1.5,0.7-1.5,1.5
			C38.7,24.8,39.4,25.5,40.2,25.5z"/>
		<path class="st0" d="M40.2,19.7c0.8,0,1.5-0.7,1.5-1.5s-0.7-1.5-1.5-1.5c-0.8,0-1.5,0.7-1.5,1.5S39.4,19.7,40.2,19.7z"/>
		<path class="st0" d="M40.2,14.2c0.8,0,1.5-0.7,1.5-1.5s-0.7-1.5-1.5-1.5c-0.8,0-1.5,0.7-1.5,1.5S39.4,14.2,40.2,14.2z"/>
		<path class="st0" d="M40.2,8.8c0.8,0,1.5-0.7,1.5-1.5c0-0.8-0.7-1.5-1.5-1.5c-0.8,0-1.5,0.7-1.5,1.5C38.7,8.1,39.4,8.8,40.2,8.8z"
			/>
		<path class="st0" d="M44.6,9.3c0.8,0,1.5-0.7,1.5-1.5c0-0.8-0.7-1.5-1.5-1.5c-0.8,0-1.5,0.7-1.5,1.5C43.1,8.7,43.8,9.3,44.6,9.3z"
			/>
		<path class="st0" d="M48.7,11.1c0.8,0,1.5-0.7,1.5-1.5c0-0.8-0.7-1.5-1.5-1.5c-0.8,0-1.5,0.7-1.5,1.5
			C47.2,10.4,47.9,11.1,48.7,11.1z"/>
		<path class="st0" d="M52.2,13.8c0.8,0,1.5-0.7,1.5-1.5c0-0.8-0.7-1.5-1.5-1.5c-0.8,0-1.5,0.7-1.5,1.5
			C50.7,13.2,51.4,13.8,52.2,13.8z"/>
		<path class="st0" d="M54.8,17.4c0.8,0,1.5-0.7,1.5-1.5s-0.7-1.5-1.5-1.5c-0.8,0-1.5,0.7-1.5,1.5S54,17.4,54.8,17.4z"/>
		<path class="st0" d="M56.5,21.5c0.8,0,1.5-0.7,1.5-1.5c0-0.8-0.7-1.5-1.5-1.5c-0.8,0-1.5,0.7-1.5,1.5C55,20.8,55.6,21.5,56.5,21.5
			z"/>
		<path class="st0" d="M56.9,25.5c0.8,0,1.5-0.7,1.5-1.5c0-0.8-0.7-1.5-1.5-1.5c-0.8,0-1.5,0.7-1.5,1.5
			C55.5,24.8,56.1,25.5,56.9,25.5z"/>
		<path class="st0" d="M56.5,30.3c0.8,0,1.5-0.7,1.5-1.5c0-0.8-0.7-1.5-1.5-1.5c-0.8,0-1.5,0.7-1.5,1.5C55,29.6,55.6,30.3,56.5,30.3
			z"/>
		<path class="st0" d="M54.8,34.3c0.8,0,1.5-0.7,1.5-1.5s-0.7-1.5-1.5-1.5c-0.8,0-1.5,0.7-1.5,1.5S54,34.3,54.8,34.3z"/>
		<path class="st0" d="M52.2,37.8c0.8,0,1.5-0.7,1.5-1.5c0-0.8-0.7-1.5-1.5-1.5c-0.8,0-1.5,0.7-1.5,1.5
			C50.7,37.1,51.4,37.8,52.2,37.8z"/>
		<path class="st0" d="M48.7,40.3c0.8,0,1.5-0.7,1.5-1.5c0-0.8-0.7-1.5-1.5-1.5c-0.8,0-1.5,0.7-1.5,1.5
			C47.2,39.7,47.9,40.3,48.7,40.3z"/>
		<path class="st0" d="M44.6,41.8c0.8,0,1.5-0.7,1.5-1.5c0-0.8-0.7-1.5-1.5-1.5c-0.8,0-1.5,0.7-1.5,1.5
			C43.1,41.2,43.8,41.8,44.6,41.8z"/>
		<path class="st0" d="M40.2,42.2c0.8,0,1.5-0.7,1.5-1.5c0-0.8-0.7-1.5-1.5-1.5c-0.8,0-1.5,0.7-1.5,1.5
			C38.7,41.5,39.4,42.2,40.2,42.2z"/>
		<path class="st0" d="M35.8,9.3c0.8,0,1.5-0.7,1.5-1.5c0-0.8-0.7-1.5-1.5-1.5s-1.5,0.7-1.5,1.5C34.4,8.7,35,9.3,35.8,9.3z"/>
		<path class="st0" d="M31.8,11.1c0.8,0,1.5-0.7,1.5-1.5c0-0.8-0.7-1.5-1.5-1.5s-1.5,0.7-1.5,1.5C30.3,10.4,30.9,11.1,31.8,11.1z"/>
		<path class="st0" d="M28.3,13.8c0.8,0,1.5-0.7,1.5-1.5c0-0.8-0.7-1.5-1.5-1.5c-0.8,0-1.5,0.7-1.5,1.5
			C26.8,13.2,27.5,13.8,28.3,13.8z"/>
		<path class="st0" d="M25.6,17.4c0.8,0,1.5-0.7,1.5-1.5s-0.7-1.5-1.5-1.5s-1.5,0.7-1.5,1.5S24.8,17.4,25.6,17.4z"/>
		<path class="st0" d="M24,21.5c0.8,0,1.5-0.7,1.5-1.5c0-0.8-0.7-1.5-1.5-1.5c-0.8,0-1.5,0.7-1.5,1.5C22.5,20.8,23.2,21.5,24,21.5z"
			/>
		<path class="st0" d="M23.5,25.5c0.8,0,1.5-0.7,1.5-1.5c0-0.8-0.7-1.5-1.5-1.5s-1.5,0.7-1.5,1.5C22.1,24.8,22.7,25.5,23.5,25.5z"/>
		<path class="st0" d="M24,30.3c0.8,0,1.5-0.7,1.5-1.5c0-0.8-0.7-1.5-1.5-1.5c-0.8,0-1.5,0.7-1.5,1.5C22.5,29.6,23.2,30.3,24,30.3z"
			/>
		<path class="st0" d="M25.6,34.3c0.8,0,1.5-0.7,1.5-1.5s-0.7-1.5-1.5-1.5s-1.5,0.7-1.5,1.5S24.8,34.3,25.6,34.3z"/>
		<path class="st0" d="M28.3,37.8c0.8,0,1.5-0.7,1.5-1.5c0-0.8-0.7-1.5-1.5-1.5c-0.8,0-1.5,0.7-1.5,1.5
			C26.8,37.1,27.5,37.8,28.3,37.8z"/>
		<path class="st0" d="M31.8,40.3c0.8,0,1.5-0.7,1.5-1.5c0-0.8-0.7-1.5-1.5-1.5s-1.5,0.7-1.5,1.5C30.3,39.7,30.9,40.3,31.8,40.3z"/>
		<path class="st0" d="M35.8,41.8c0.8,0,1.5-0.7,1.5-1.5c0-0.8-0.7-1.5-1.5-1.5s-1.5,0.7-1.5,1.5C34.4,41.2,35,41.8,35.8,41.8z"/>
		<path class="st0" d="M44.6,15.1c0.8,0,1.5-0.7,1.5-1.5c0-0.8-0.7-1.5-1.5-1.5c-0.8,0-1.5,0.7-1.5,1.5
			C43.1,14.4,43.7,15.1,44.6,15.1z"/>
		<path class="st0" d="M48.2,17.5c0.8,0,1.5-0.7,1.5-1.5c0-0.8-0.7-1.5-1.5-1.5c-0.8,0-1.5,0.7-1.5,1.5
			C46.8,16.9,47.4,17.5,48.2,17.5z"/>
		<path class="st0" d="M50.7,21.2c0.8,0,1.5-0.7,1.5-1.5c0-0.8-0.7-1.5-1.5-1.5s-1.5,0.7-1.5,1.5C49.2,20.6,49.9,21.2,50.7,21.2z"/>
		<path class="st0" d="M51.5,25.5c0.8,0,1.5-0.7,1.5-1.5c0-0.8-0.7-1.5-1.5-1.5c-0.8,0-1.5,0.7-1.5,1.5C50,24.8,50.7,25.5,51.5,25.5
			z"/>
		<path class="st0" d="M50.7,29.9c0.8,0,1.5-0.7,1.5-1.5c0-0.8-0.7-1.5-1.5-1.5s-1.5,0.7-1.5,1.5C49.2,29.3,49.9,29.9,50.7,29.9z"/>
		<path class="st0" d="M48.2,33.6c0.8,0,1.5-0.7,1.5-1.5c0-0.8-0.7-1.5-1.5-1.5c-0.8,0-1.5,0.7-1.5,1.5
			C46.8,32.9,47.4,33.6,48.2,33.6z"/>
		<path class="st0" d="M44.6,36c0.8,0,1.5-0.7,1.5-1.5S45.4,33,44.6,33c-0.8,0-1.5,0.7-1.5,1.5S43.7,36,44.6,36z"/>
		<path class="st0" d="M40.2,36.8c0.8,0,1.5-0.7,1.5-1.5s-0.7-1.5-1.5-1.5c-0.8,0-1.5,0.7-1.5,1.5S39.4,36.8,40.2,36.8z"/>
		<path class="st0" d="M36,15.1c0.8,0,1.5-0.7,1.5-1.5c0-0.8-0.7-1.5-1.5-1.5s-1.5,0.7-1.5,1.5C34.5,14.4,35.1,15.1,36,15.1z"/>
		<path class="st0" d="M32.3,17.5c0.8,0,1.5-0.7,1.5-1.5c0-0.8-0.7-1.5-1.5-1.5c-0.8,0-1.5,0.7-1.5,1.5
			C30.8,16.9,31.5,17.5,32.3,17.5z"/>
		<path class="st0" d="M29.9,21.2c0.8,0,1.5-0.7,1.5-1.5c0-0.8-0.7-1.5-1.5-1.5c-0.8,0-1.5,0.7-1.5,1.5C28.4,20.6,29,21.2,29.9,21.2
			z"/>
		<path class="st0" d="M29,25.5c0.8,0,1.5-0.7,1.5-1.5c0-0.8-0.7-1.5-1.5-1.5c-0.8,0-1.5,0.7-1.5,1.5C27.5,24.8,28.2,25.5,29,25.5z"
			/>
		<path class="st0" d="M29.9,29.9c0.8,0,1.5-0.7,1.5-1.5c0-0.8-0.7-1.5-1.5-1.5c-0.8,0-1.5,0.7-1.5,1.5C28.4,29.3,29,29.9,29.9,29.9
			z"/>
		<path class="st0" d="M32.3,33.6c0.8,0,1.5-0.7,1.5-1.5c0-0.8-0.7-1.5-1.5-1.5c-0.8,0-1.5,0.7-1.5,1.5
			C30.8,32.9,31.5,33.6,32.3,33.6z"/>
		<path class="st0" d="M36,36c0.8,0,1.5-0.7,1.5-1.5S36.8,33,36,33s-1.5,0.7-1.5,1.5S35.1,36,36,36z"/>
		<path class="st0" d="M44.3,21.4c0.8,0,1.5-0.7,1.5-1.5s-0.7-1.5-1.5-1.5c-0.8,0-1.5,0.7-1.5,1.5S43.5,21.4,44.3,21.4z"/>
		<path class="st0" d="M46,25.5c0.8,0,1.5-0.7,1.5-1.5c0-0.8-0.7-1.5-1.5-1.5s-1.5,0.7-1.5,1.5C44.5,24.8,45.2,25.5,46,25.5z"/>
		<path class="st0" d="M44.3,29.6c0.8,0,1.5-0.7,1.5-1.5s-0.7-1.5-1.5-1.5c-0.8,0-1.5,0.7-1.5,1.5S43.5,29.6,44.3,29.6z"/>
		<path class="st0" d="M40.2,31.3c0.8,0,1.5-0.7,1.5-1.5s-0.7-1.5-1.5-1.5c-0.8,0-1.5,0.7-1.5,1.5S39.4,31.3,40.2,31.3z"/>
		<path class="st0" d="M36.1,29.6c0.8,0,1.5-0.7,1.5-1.5s-0.7-1.5-1.5-1.5c-0.8,0-1.5,0.7-1.5,1.5S35.3,29.6,36.1,29.6z"/>
		<path class="st0" d="M34.4,25.5c0.8,0,1.5-0.7,1.5-1.5s-0.7-1.5-1.5-1.5c-0.8,0-1.5,0.7-1.5,1.5S33.6,25.5,34.4,25.5z"/>
		<path class="st0" d="M36.1,21.4c0.8,0,1.5-0.7,1.5-1.5s-0.7-1.5-1.5-1.5s-1.5,0.7-1.5,1.5S35.3,21.4,36.1,21.4z"/>
		<path class="st0" d="M83.7,22.9v-5.5c0,0,0.1-4.2-4.2-4.2l-14.4,0v21.5h17.5c0,0,4.2,0,4.2-4.5v-3.4C86.8,26.8,86.8,23,83.7,22.9
			L83.7,22.9z M68.1,17.9c0-1.6,1.6-1.6,1.6-1.6h9.2c1.8,0,1.6,1.9,1.6,1.9v4.4H68.1V17.9z M82.1,31.9H69.7c0,0-1.6,0-1.6-1.6v-4.5
			h14c0.9,0,1.6,0.3,1.6,1.6V30C83.8,30,84,31.9,82.1,31.9z"/>
		<path class="st0" d="M107.5,13.3H85.9v3h9.3v18.5h3V16.3h9.3V13.3z"/>
		<path class="st0" d="M113.5,34.7V19.1h-3v15.6H113.5z"/>
		<path class="st0" d="M112,16.3c0.8,0,1.5-0.7,1.5-1.5s-0.7-1.5-1.5-1.5c-0.8,0-1.5,0.7-1.5,1.5S111.2,16.3,112,16.3z"/>
	</g>
</g>
</svg>
