<?xml version="1.0" encoding="utf-8"?>
<!-- Generator: Adobe Illustrator 27.9.0, SVG Export Plug-In . SVG Version: 6.00 Build 0)  -->
<svg version="1.1" id="Layer_1" xmlns="http://www.w3.org/2000/svg" xmlns:xlink="http://www.w3.org/1999/xlink" x="0px" y="0px"
	 viewBox="0 0 82 20" style="enable-background:new 0 0 82 20;" xml:space="preserve">
<style type="text/css">
	.st0{fill:#9D9D9D;}
	.st1{fill-rule:evenodd;clip-rule:evenodd;fill:#9D9D9D;}
</style>
<path class="st0" d="M18,0h-1.8v1.8H18V0z"/>
<path class="st0" d="M1.8,2H0v1.8h1.8V2z"/>
<path class="st0" d="M3.8,18.2H2V20h1.8V18.2z"/>
<path class="st0" d="M13.9,14.2h-1.8v1.8h1.8V14.2z"/>
<path class="st1" d="M5.8,0H4.1v1.8h1.8V0z M3.8,0H2v1.8h1.8V0z M6.1,1.8h1.8V0H6.1V1.8z M9.9,0H8.1v1.8h1.8V0z M11.9,0h-1.8v1.8
	h1.8V0z M15.9,0h-1.8v1.8h1.8V0z M2,3.8h1.8V2H2V3.8z M0,5.8h1.8V4.1H0V5.8z M2,5.8h1.8V4.1H2V5.8z M0,7.8h1.8V6.1H0V7.8z M2,7.8
	h1.8V6.1H2V7.8z M0,9.9h1.8V8.1H0V9.9z M2,9.9h1.8V8.1H2V9.9z M0,11.9h1.8v-1.8H0V11.9z M2,11.9h1.8v-1.8H2V11.9z M0,13.9h1.8v-1.8
	H0V13.9z M2,13.9h1.8v-1.8H2V13.9z M0,15.9h1.8v-1.8H0V15.9z M2,15.9h1.8v-1.8H2V15.9z M4.1,13.9h1.8v-1.8H4.1V13.9z M4.1,15.9h1.8
	v-1.8H4.1V15.9z M6.1,13.9h1.8v-1.8H6.1V13.9z M6.1,15.9h1.8v-1.8H6.1V15.9z M8.1,13.9h1.8v-1.8H8.1V13.9z M8.1,15.9h1.8v-1.8H8.1
	V15.9z M10.1,13.9h1.8v-1.8h-1.8V13.9z M10.1,15.9h1.8v-1.8h-1.8V15.9z M14.2,13.9h1.8v-1.8h-1.8V13.9z M0,18h1.8v-1.8H0V18z M0,20
	h1.8v-1.8H0V20z M2,18h1.8v-1.8H2V18z M4.1,3.8h1.8V2H4.1V3.8z M6.1,3.8h1.8V2H6.1V3.8z M8.1,3.8h1.8V2H8.1V3.8z M10.1,3.8h1.8V2
	h-1.8V3.8z M12.2,1.8h1.8V0h-1.8V1.8z M12.2,13.9h1.8v-1.8h-1.8V13.9z M12.2,3.8h1.8V2h-1.8V3.8L12.2,3.8z M14.2,3.8h1.8V2h-1.8V3.8
	L14.2,3.8z M16.2,3.8H18V2h-1.8V3.8L16.2,3.8z M14.2,5.8h1.8V4.1h-1.8V5.8z M16.2,5.8H18V4.1h-1.8V5.8z M18.2,4.1v1.8H20V4.1H18.2z
	 M16.2,7.8H18V6.1h-1.8V7.8z M18.2,7.8H20V6.1h-1.8V7.8z M16.2,9.9H18V8.1h-1.8V9.9z M18.2,9.9H20V8.1h-1.8V9.9z M16.2,11.9H18v-1.8
	h-1.8V11.9z M16.2,13.9H18v-1.8h-1.8V13.9z M14.2,11.9h1.8v-1.8h-1.8V11.9z M18.2,11.9H20v-1.8h-1.8V11.9z"/>
<path class="st1" d="M24,7.8h1.8V6.1H24V7.8z M24,9.9h1.8V8.1H24V9.9z M24,11.9h1.8v-1.8H24V11.9z M24,13.9h1.8v-1.8H24V13.9z
	 M24,15.9h1.8v-1.8H24V15.9z M26,5.8h1.8V4.1H26V5.8z M26,3.8h1.8V2H26V3.8z M28,5.8h1.8V4.1H28V5.8z M28,3.8h1.8V2H28V3.8z M31.8,2
	h-1.8v1.8h1.8V2z M30.1,1.8h1.8V0h-1.8V1.8z M32.1,3.8h1.8V2h-1.8V3.8z M32.1,1.8h1.8V0h-1.8V1.8z M34.1,3.8h1.8V2h-1.8V3.8z
	 M35.9,0h-1.8v1.8h1.8V0z M37.9,2h-1.8v1.8h1.8V2z M36.2,1.8h1.8V0h-1.8V1.8z M26,7.8h1.8V6.1H26V7.8z M26,9.9h1.8V8.1H26V9.9z
	 M26,11.9h1.8v-1.8H26V11.9z M34.1,9.9h1.8V8.1h-1.8V9.9z M34.1,11.9h1.8v-1.8h-1.8V11.9z M37.9,8.1h-1.8v1.8h1.8V8.1z M37.9,10.1
	h-1.8v1.8h1.8V10.1z M38.2,9.9h1.8V8.1h-1.8V9.9z M38.2,11.9h1.8v-1.8h-1.8V11.9z M38.2,15.9h1.8v-1.8h-1.8V15.9z M40.2,9.9H42V8.1
	h-1.8V9.9z M40.2,11.9H42v-1.8h-1.8V11.9z M38.2,3.8h1.8V2h-1.8V3.8z M38.2,5.8h1.8V4.1h-1.8V5.8z M40.2,3.8H42V2h-1.8V3.8z
	 M40.2,5.8H42V4.1h-1.8V5.8z M26,13.9h1.8v-1.8H26V13.9z M26,15.9h1.8v-1.8H26V15.9z M28,15.9h1.8v-1.8H28V15.9z M28,18h1.8v-1.8H28
	V18z M28,20h1.8v-1.8H28V20z M31.8,16.2h-1.8V18h1.8V16.2z M30.1,20h1.8v-1.8h-1.8V20z M32.1,18h1.8v-1.8h-1.8V18z M32.1,20h1.8
	v-1.8h-1.8V20z M34.1,18h1.8v-1.8h-1.8V18z M34.1,20h1.8v-1.8h-1.8V20z M37.9,16.2h-1.8V18h1.8V16.2z M36.2,20h1.8v-1.8h-1.8V20z
	 M38.2,18h1.8v-1.8h-1.8V18z M40.2,18H42v-1.8h-1.8V18z M40.2,13.9H42v-1.8h-1.8V13.9z M40.2,15.9H42v-1.8h-1.8V15.9z M42.2,10.1
	v1.8H44v-1.8H42.2z M42.2,13.9H44v-1.8h-1.8V13.9z"/>
<path class="st0" d="M25.8,4.1H24v1.8h1.8V4.1z"/>
<path class="st0" d="M29.8,0h-1.8v1.8h1.8V0z"/>
<path class="st0" d="M27.8,16.2H26V18h1.8V16.2z"/>
<path class="st0" d="M39.9,18.2h-1.8V20h1.8V18.2z"/>
<path class="st0" d="M44,8.1h-1.8v1.8H44V8.1z"/>
<path class="st0" d="M44,14.2h-1.8v1.8H44V14.2z"/>
<path class="st0" d="M51.4,0H48v5.5h1.4V3.4h2.1V2.7h0.7V0.7h-0.7V0z M50.7,2.1h-1.4V1.4h1.4V2.1z M53.5,5.5h2.7V4.8h0.7V0.7h-0.7V0
	h-2.7v0.7h-0.7v4.1h0.7V5.5z M54.1,1.4h1.4v2.7h-1.4V1.4z M58.3,5.5H61V4.8h0.7V3.4h-1.4v0.7h-1.4V1.4h1.4v0.7h1.4V0.7H61V0h-2.7
	v0.7h-0.7v4.1h0.7V5.5z M63.7,3.4h1.4v2.1h1.4V3.4h-0.7V2.1h0.7V0h-1.4v2.1h-1.4V0h-1.4v5.5h1.4V3.4z M71.2,4.1h-2.7V3.4h2.1V2.1
	h-2.1V1.4h2.7V0h-4.1v5.5h4.1V4.1z M71.9,0v1.4h1.4v4.1h1.4V1.4H76V0H71.9z M50.1,10.7h0.7v0.7h-1.4V8.6h2.1V7.3h-2.7V8H48v4.1h0.7
	v0.7h2.7v-0.7h0.7V9.3h-2.1V10.7L50.1,10.7z M56.2,7.3h-2.7v0.7h-0.7v4.8h1.4v-1.4h1.4v1.4h1.4V7.9h-0.7V7.3z M55.5,10h-1.4V8.6h1.4
	V10z M61,8.6h-0.7v0.7h-0.7V8.6h-0.7V7.9h-0.7V7.3h-0.7v5.5h1.4v-2.1h0.7v0.7h0.7v-0.7H61v2.1h1.4V7.3h-0.7v0.7H61V8.6z M63,12.7
	h4.1v-1.4h-2.7v-0.7h2.1V9.3h-2.1V8.6h2.7V7.3H63V12.7z M68.5,7.9h-0.7V10h0.7v0.7h2.1v0.7h-2.7v1.4h3.4v-0.7h0.7V10h-0.7V9.3h-2.1
	V8.6h2.7V7.3h-3.4V7.9z M48.7,15.2H48v2.1h0.7v0.7h2.1v0.7H48V20h3.4v-0.7h0.7v-2.1h-0.7v-0.7h-2.1v-0.7h2.7v-1.4h-3.4V15.2z
	 M56.2,14.5h-2.7v0.7h-0.7v4.1h0.7V20h2.7v-0.7h0.7v-4.1h-0.7V14.5z M55.5,18.6h-1.4v-2.7h1.4V18.6z M57.6,20h1.4v-2.1H61v-1.4h-2.1
	v-0.7h2.7v-1.4h-4.1L57.6,20L57.6,20z M62.4,15.9h1.4V20h1.4v-4.1h1.4v-1.4h-4.1V15.9z"/>
<path class="st0" d="M78,2.3v-2h-0.6V0h1.5v0.4h-0.6v2H78L78,2.3z M79.2,2.3V0h0.4l0.8,1.5L81.1,0h0.4v2.3h-0.4V0.7l-0.6,1.1h-0.4
	l-0.6-1.2v1.6H79.2z"/>
</svg>
