<?xml version="1.0" encoding="utf-8"?>
<!-- Generator: Adobe Illustrator 28.0.0, SVG Export Plug-In . SVG Version: 6.00 Build 0)  -->
<svg version="1.1" id="Layer_1" xmlns="http://www.w3.org/2000/svg" xmlns:xlink="http://www.w3.org/1999/xlink" x="0px" y="0px"
	 viewBox="0 0 32 32" style="enable-background:new 0 0 32 32;" xml:space="preserve">
<style type="text/css">
	.st0{fill:#3D5D2B;}
	.st1{fill:#FFFFFF;}
</style>
<circle class="st0" cx="16" cy="16.2" r="16"/>
<path class="st1" d="M27.8,13.6v-1.3h-3.5l1.4-5.6h-3.2l-1.1,5.6h-3.1L17,6.7h-2.2l-1.2,5.6h-3.2L9.3,6.7H6.1l1.4,5.6H4.2v1.3h3.5
	l0.6,2.2H4.2v1.3h4.4l2.1,8.5h2.5l1.8-8.5h1.7l1.8,8.5H21l2.1-8.5h4.6v-1.3h-4.3l0.6-2.2C24,13.6,27.8,13.6,27.8,13.6z M10.7,13.6
	h2.6l-0.5,2.2h-1.7L10.7,13.6z M11.9,19.8l-0.5-2.7h1.1L11.9,19.8z M15.3,15.9l0.5-2.2H16l0.5,2.2H15.3z M19.9,19.8l-0.6-2.7h1.1
	L19.9,19.8z M20.7,15.9H19l-0.5-2.2h2.6L20.7,15.9z"/>
</svg>
